<svg version="1.2" xmlns="http://www.w3.org/2000/svg" viewBox="0 0 263 239" width="263" height="239">
	<style>
		.s0 { fill: #1f71ee } 
		.s1 { fill: #55bf5e } 
	</style>
	<g id="&lt;Group&gt;">
		<path id="&lt;Path&gt;" class="s0" d="m180.58 108.03l-27.42 20.17c-1.51 1.11-3.67 0.55-4.45-1.15l-18.73-40.91c-1.11-2.42-4.59-2.31-5.54 0.18l-13.55 35.52c-3.01 5.52-14.07 5.28-19.12 14.71-5.37 9.99-0.25 20.72 1.95 23.15 1.59 1.77 1.22 3.83 0.9 4.82q0 0.01 0 0.01l-0.2 0.52-0.03 0.08-16.39 42.98c-0.44 1.16-1.56 1.93-2.81 1.93h-40.43c-2.15 0-3.6-2.2-2.76-4.18l76-178.04c0.47-1.1 1.56-1.82 2.76-1.82h32.75c1.17 0 2.24 0.68 2.73 1.75l35.28 76.66c0.58 1.27 0.19 2.78-0.94 3.62z"/>
		<path id="&lt;Path&gt;" class="s0" d="m225.66 210.53h-36.77c-1.18 0-2.25-0.69-2.73-1.75l-14.24-31.07c-0.49-1.08-0.29-2.35 0.51-3.23l24.46-26.82c1.43-1.56 3.99-1.17 4.88 0.76l26.62 57.85c0.92 1.99-0.54 4.26-2.73 4.26z"/>
	</g>
	<path id="&lt;Path&gt;" class="s1" d="m229.62 95.72c0 0-77.03 85.07-81.91 89.21-4.87 4.15-12.67 4.15-22.42-6.33-9.76-10.49-23.16-28.04-23.16-28.04 0 0-3.17-5.36 1.7-10.97 4.88-5.6 12.92-2.19 16.82 1.47 3.9 3.65 13.9 12.18 15.36 13.16 1.46 0.97 3.66 0.97 5.85-0.98 2.2-1.95 81.42-60.21 85.56-62.4 4.15-2.19 5.85 1.22 2.2 4.88z"/>
</svg>