<svg version="1.2" xmlns="http://www.w3.org/2000/svg" viewBox="0 0 906 298" width="906" height="298">
	<style>
		.s0 { fill: #1f71ee } 
		.s1 { fill: #606060 } 
		.s2 { fill: #55bf5e } 
		.s3 { fill: #ffffff } 
		.s4 { fill: #000000 } 
	</style>
	<g id="Layer 1">
		<g id="&lt;Group&gt;">
			<g id="&lt;Group&gt;">
				<path id="&lt;Path&gt;" class="s0" d="m196.58 108.03l-27.42 20.17c-1.51 1.11-3.67 0.55-4.45-1.15l-18.73-40.91c-1.11-2.42-4.59-2.31-5.54 0.18l-13.55 35.52c-3.01 5.52-14.07 5.28-19.12 14.71-5.37 9.99-0.25 20.72 1.95 23.15 1.59 1.77 1.22 3.83 0.9 4.82q0 0.01 0 0.01l-0.2 0.52-0.03 0.08-16.39 42.98c-0.44 1.16-1.56 1.93-2.81 1.93h-40.43c-2.15 0-3.6-2.2-2.76-4.18l76-178.04c0.47-1.1 1.56-1.82 2.76-1.82h32.75c1.17 0 2.24 0.68 2.73 1.75l35.28 76.66c0.58 1.27 0.19 2.78-0.94 3.62z"/>
				<path id="&lt;Path&gt;" class="s0" d="m241.66 210.53h-36.77c-1.18 0-2.25-0.69-2.73-1.75l-14.24-31.07c-0.49-1.08-0.29-2.35 0.51-3.23l24.46-26.82c1.43-1.56 3.99-1.17 4.88 0.76l26.62 57.85c0.92 1.99-0.54 4.26-2.73 4.26z"/>
			</g>
			<path id="&lt;Path&gt;" class="s1" d="m110.42 165.05l-0.03 0.08v-0.01q0 0 0.03-0.07z"/>
			<path id="&lt;Path&gt;" class="s2" d="m245.62 95.72c0 0-77.03 85.07-81.91 89.21-4.87 4.15-12.67 4.15-22.42-6.33-9.76-10.49-23.16-28.04-23.16-28.04 0 0-3.17-5.36 1.7-10.97 4.88-5.6 12.92-2.19 16.82 1.47 3.9 3.65 13.9 12.18 15.36 13.16 1.46 0.97 3.66 0.97 5.85-0.98 2.2-1.95 81.42-60.21 85.56-62.4 4.15-2.19 5.85 1.22 2.2 4.88z"/>
			<path id="&lt;Path&gt;" class="s3" d="m390.9 91.81h22.92v54.36c0 0 1.22 14.63 17.55 13.41 16.33-1.22 16.09-15.6 16.09-19.01 0-3.41 0-48.51 0-48.51h22.18v84.83h-21.7v-13.16c0 0-7.55 15.6-27.54 14.62-19.99-0.97-29.25-15.36-29.25-28.28 0-12.91-0.25-58.26-0.25-58.26z"/>
			<path id="&lt;Path&gt;" class="s3" d="m277.79 176.4h23.65l31.45-92.87 32.42 93.12h23.64l-41.68-115.31h-27.79z"/>
			<path id="&lt;Path&gt;" class="s3" d="m365.31 152.51h-61.19v-19.5h61.19z"/>
			<path id="&lt;Compound Path&gt;" fill-rule="evenodd" class="s3" d="m554.96 134.6c0 24.23-17 43.87-37.97 43.87-20.97 0-37.97-19.64-37.97-43.87 0-24.24 17-43.88 37.97-43.88 20.97 0 37.97 19.64 37.97 43.88zm-10.24 0c0-14.34-9.5-25.97-21.21-25.97-11.71 0-21.21 11.63-21.21 25.97 0 14.33 9.5 25.96 21.21 25.96 11.71 0 21.21-11.63 21.21-25.96z"/>
			<path id="&lt;Path&gt;" class="s3" d="m565.8 176.04h-22.18v-118.47h22.18z"/>
			<path id="&lt;Path&gt;" class="s3" d="m602.61 176.04h-22.18v-83.37h22.18z"/>
			<path id="&lt;Path&gt;" class="s3" d="m623.46 68.9v83.61c0 0-0.74 12.43 10.23 20.24 10.97 7.8 31.69 2.68 31.69 2.68v-17.07c0 0-18.28 5.37-19.5-9.26-1.22-14.63 0-79.96 0-79.96 0 0-22.29-0.37-22.42-0.24z"/>
			<path id="&lt;Path&gt;" class="s3" d="m665.63 108.88h-54.61v-16.82h54.61z"/>
			<path id="&lt;Path&gt;" class="s3" d="m605.66 68.78c0 6.93-6.55 12.55-14.63 12.55-8.07 0-14.62-5.62-14.62-12.55 0-6.93 6.55-12.56 14.62-12.56 8.08 0 14.63 5.63 14.63 12.56z"/>
			<path id="&lt;Path&gt;" class="s0" d="m783.49 176.04h-22.18v-83.37h22.18z"/>
			<path id="&lt;Path&gt;" class="s0" d="m786.54 68.78c0 6.93-6.55 12.55-14.63 12.55-8.08 0-14.63-5.62-14.63-12.55 0-6.93 6.55-12.56 14.63-12.56 8.08 0 14.63 5.63 14.63 12.56z"/>
			<path id="&lt;Path&gt;" class="s0" d="m698.78 176.4h-20.96v-114.81h20.96z"/>
			<path id="&lt;Path&gt;" class="s0" d="m692.2 61.59h55.82v16.82h-55.82z"/>
			<path id="&lt;Path&gt;" class="s0" d="m692.2 113.27h51.43v16.82h-51.43z"/>
			<g id="&lt;Group&gt;">
				<path id="&lt;Path&gt;" class="s0" d="m868 93.03l-29.17 42.09-10.98 15.84-16.62 23.98h-21.94l27.59-39.82 10.97-15.83 18.2-26.26z"/>
				<path id="&lt;Path&gt;" class="s0" d="m866.42 174.94h-21.94l-16.63-23.98-10.97-15.84-29.17-42.09h21.95l18.19 26.26 10.98 15.83z"/>
			</g>
			<g id="Tagline">
				<filter id="f0">
					<feFlood flood-color="#ffffff" flood-opacity="1" />
					<feBlend mode="hard-light" in2="SourceGraphic"/>
					<feComposite in2="SourceAlpha" operator="in" />
				</filter>
				<g id="&lt;Group&gt;" filter="url(#f0)">
					<path id="&lt;Compound Path&gt;" class="s4" d="m280.63 186.81v13.11h15.15v-13.11h4.09v31.33h-4.09v-14.69h-15.15v14.69h-4.05v-31.33z"/>
					<path id="&lt;Compound Path&gt;" fill-rule="evenodd" class="s4" d="m310.1 207.64c0.09 5.53 3.62 7.81 7.71 7.81 2.93 0 4.7-0.51 6.23-1.17l0.7 2.93c-1.44 0.65-3.9 1.4-7.48 1.4-6.93 0-11.07-4.56-11.07-11.34 0-6.79 4-12.14 10.55-12.14 7.35 0 9.3 6.46 9.3 10.6 0 0.84-0.09 1.49-0.14 1.91zm11.99-2.93c0.05-2.6-1.06-6.65-5.67-6.65-4.13 0-5.95 3.81-6.27 6.65z"/>
					<path id="&lt;Compound Path&gt;" fill-rule="evenodd" class="s4" d="m336.27 185.14v33h-4.09v-33z"/>
					<path id="&lt;Compound Path&gt;" fill-rule="evenodd" class="s4" d="m344.21 202.99c0-2.88-0.09-5.21-0.18-7.35h3.67l0.19 3.86h0.09c1.67-2.74 4.32-4.37 7.99-4.37 5.44 0 9.53 4.61 9.53 11.44 0 8.09-4.92 12.08-10.22 12.08-2.98 0-5.58-1.3-6.93-3.53h-0.09v12.23h-4.05zm4.05 5.99c0 0.61 0.09 1.16 0.18 1.68 0.75 2.83 3.21 4.78 6.14 4.78 4.32 0 6.83-3.53 6.83-8.69 0-4.51-2.37-8.37-6.69-8.37-2.79 0-5.39 2-6.18 5.07-0.14 0.51-0.28 1.12-0.28 1.67z"/>
					<path id="&lt;Compound Path&gt;" class="s4" d="m373.75 191.83c-1.4 0-2.53-1.13-2.53-2.53 0-1.4 1.13-2.53 2.53-2.53 1.4 0 2.54 1.13 2.54 2.53 0 1.4-1.14 2.53-2.54 2.53zm2.07 3.81v22.5h-4.09v-22.5z"/>
					<path id="&lt;Compound Path&gt;" class="s4" d="m383.68 201.73c0-2.32-0.05-4.23-0.19-6.09h3.63l0.23 3.72h0.09c1.12-2.13 3.72-4.23 7.44-4.23 3.11 0 7.95 1.86 7.95 9.58v13.43h-4.09v-12.97c0-3.62-1.35-6.64-5.21-6.64-2.7 0-4.79 1.9-5.48 4.18-0.19 0.51-0.28 1.21-0.28 1.91v13.52h-4.09z"/>
					<path id="&lt;Compound Path&gt;" fill-rule="evenodd" class="s4" d="m429.93 195.64c-0.1 1.63-0.19 3.44-0.19 6.19v13.06c0 5.16-1.02 8.32-3.21 10.27-2.18 2.05-5.34 2.7-8.18 2.7-2.69 0-5.67-0.65-7.48-1.86l1.02-3.12c1.49 0.93 3.81 1.77 6.6 1.77 4.18 0 7.25-2.18 7.25-7.86v-2.51h-0.09c-1.26 2.1-3.67 3.77-7.16 3.77-5.58 0-9.57-4.74-9.57-10.97 0-7.62 4.97-11.95 10.13-11.95 3.9 0 6.04 2.05 7.02 3.91h0.09l0.19-3.4zm-4.23 8.88c0-0.69-0.05-1.3-0.24-1.86-0.74-2.37-2.74-4.32-5.71-4.32-3.91 0-6.7 3.3-6.7 8.51 0 4.41 2.23 8.09 6.65 8.09 2.51 0 4.79-1.59 5.67-4.19 0.23-0.7 0.33-1.49 0.33-2.18z"/>
					<path id="&lt;Compound Path&gt;" fill-rule="evenodd" class="s4" d="m467.95 185.14v27.19c0 2 0.04 4.28 0.18 5.81h-3.67l-0.19-3.9h-0.09c-1.25 2.51-4 4.41-7.67 4.41-5.44 0-9.62-4.6-9.62-11.43-0.05-7.48 4.6-12.09 10.09-12.09 3.44 0 5.76 1.63 6.78 3.44h0.1v-13.43zm-4.09 19.66c0-0.51-0.05-1.21-0.19-1.72-0.6-2.6-2.84-4.74-5.9-4.74-4.23 0-6.74 3.72-6.74 8.69 0 4.56 2.23 8.32 6.64 8.32 2.75 0 5.26-1.81 6-4.88 0.14-0.55 0.19-1.11 0.19-1.76z"/>
					<path id="&lt;Compound Path&gt;" fill-rule="evenodd" class="s4" d="m478.08 207.64c0.09 5.53 3.62 7.81 7.72 7.81 2.92 0 4.69-0.51 6.22-1.17l0.7 2.93c-1.44 0.65-3.9 1.4-7.48 1.4-6.93 0-11.07-4.56-11.07-11.34 0-6.79 4-12.14 10.56-12.14 7.34 0 9.29 6.46 9.29 10.6 0 0.84-0.09 1.49-0.14 1.91zm12-2.93c0.04-2.6-1.07-6.65-5.67-6.65-4.14 0-5.95 3.81-6.28 6.65z"/>
					<path id="&lt;Compound Path&gt;" class="s4" d="m500.16 201.73c0-2.32-0.05-4.23-0.19-6.09h3.63l0.23 3.72h0.09c1.12-2.13 3.72-4.23 7.44-4.23 3.11 0 7.95 1.86 7.95 9.58v13.43h-4.09v-12.97c0-3.62-1.35-6.64-5.21-6.64-2.69 0-4.79 1.9-5.48 4.18-0.19 0.51-0.28 1.21-0.28 1.91v13.52h-4.09z"/>
					<path id="&lt;Compound Path&gt;" class="s4" d="m531.76 189.18v6.46h5.86v3.12h-5.86v12.13c0 2.79 0.8 4.37 3.07 4.37 1.07 0 1.86-0.14 2.37-0.28l0.19 3.07c-0.79 0.32-2.05 0.56-3.63 0.56-1.9 0-3.44-0.61-4.41-1.72-1.16-1.21-1.58-3.21-1.58-5.86v-12.27h-3.49v-3.12h3.49v-5.39z"/>
					<path id="&lt;Compound Path&gt;" fill-rule="evenodd" class="s4" d="m555.75 218.14l-0.33-2.83h-0.14c-1.25 1.76-3.67 3.34-6.87 3.34-4.56 0-6.88-3.2-6.88-6.46 0-5.44 4.83-8.41 13.52-8.36v-0.47c0-1.86-0.51-5.2-5.11-5.2-2.09 0-4.28 0.65-5.86 1.67l-0.93-2.7c1.86-1.21 4.56-2 7.39-2 6.88 0 8.56 4.7 8.56 9.21v8.41c0 1.95 0.09 3.86 0.37 5.39zm-0.61-11.48c-4.46-0.09-9.52 0.7-9.52 5.07 0 2.65 1.76 3.9 3.85 3.9 2.93 0 4.79-1.86 5.44-3.76 0.14-0.42 0.23-0.89 0.23-1.3z"/>
					<path id="&lt;Compound Path&gt;" fill-rule="evenodd" class="s4" d="m570.86 185.14v33h-4.1v-33z"/>
					<path id="&lt;Compound Path&gt;" fill-rule="evenodd" class="s4" d="m589.73 202.99c0-2.88-0.1-5.21-0.19-7.35h3.67l0.19 3.86h0.09c1.67-2.74 4.32-4.37 8-4.37 5.44 0 9.53 4.61 9.53 11.44 0 8.09-4.93 12.08-10.23 12.08-2.98 0-5.58-1.3-6.93-3.53h-0.09v12.23h-4.04zm4.04 5.99c0 0.61 0.09 1.16 0.19 1.68 0.74 2.83 3.2 4.78 6.13 4.78 4.32 0 6.84-3.53 6.84-8.69 0-4.51-2.38-8.37-6.7-8.37-2.79 0-5.39 2-6.18 5.07-0.14 0.51-0.28 1.12-0.28 1.67z"/>
					<path id="&lt;Compound Path&gt;" class="s4" d="m617.24 202.66c0-2.65-0.04-4.92-0.18-7.02h3.58l0.14 4.42h0.18c1.02-3.02 3.49-4.93 6.23-4.93 0.47 0 0.79 0.05 1.16 0.14v3.86c-0.42-0.09-0.83-0.14-1.39-0.14-2.88 0-4.93 2.19-5.49 5.25-0.09 0.56-0.18 1.21-0.18 1.91v11.99h-4.05z"/>
					<path id="&lt;Compound Path&gt;" fill-rule="evenodd" class="s4" d="m645.74 218.14l-0.33-2.83h-0.14c-1.25 1.76-3.67 3.34-6.88 3.34-4.55 0-6.88-3.2-6.88-6.46 0-5.44 4.84-8.41 13.53-8.36v-0.47c0-1.86-0.51-5.2-5.11-5.2-2.1 0-4.28 0.65-5.86 1.67l-0.93-2.7c1.86-1.21 4.55-2 7.39-2 6.88 0 8.55 4.7 8.55 9.21v8.41c0 1.95 0.1 3.86 0.38 5.39zm-0.61-11.48c-4.46-0.09-9.53 0.7-9.53 5.07 0 2.65 1.77 3.9 3.86 3.9 2.93 0 4.79-1.86 5.44-3.76 0.14-0.42 0.23-0.89 0.23-1.3z"/>
					<path id="&lt;Compound Path&gt;" class="s4" d="m672.79 217.31c-1.07 0.55-3.44 1.3-6.46 1.3-6.79 0-11.2-4.6-11.2-11.48 0-6.93 4.74-11.95 12.08-11.95 2.42 0 4.56 0.6 5.67 1.16l-0.93 3.16c-0.97-0.55-2.51-1.07-4.74-1.07-5.16 0-7.95 3.82-7.95 8.51 0 5.21 3.35 8.41 7.81 8.41 2.33 0 3.86-0.6 5.02-1.11z"/>
					<path id="&lt;Compound Path&gt;" class="s4" d="m684.18 189.18v6.46h5.85v3.12h-5.85v12.13c0 2.79 0.79 4.37 3.06 4.37 1.07 0 1.86-0.14 2.37-0.28l0.19 3.07c-0.79 0.32-2.04 0.56-3.63 0.56-1.9 0-3.43-0.61-4.41-1.72-1.16-1.21-1.58-3.21-1.58-5.86v-12.27h-3.49v-3.12h3.49v-5.39z"/>
					<path id="&lt;Compound Path&gt;" class="s4" d="m697.73 191.83c-1.41 0-2.54-1.13-2.54-2.53 0-1.4 1.13-2.53 2.54-2.53 1.4 0 2.53 1.13 2.53 2.53 0 1.4-1.13 2.53-2.53 2.53zm2.06 3.81v22.5h-4.09v-22.5z"/>
					<path id="&lt;Compound Path&gt;" class="s4" d="m723.68 217.31c-1.06 0.55-3.43 1.3-6.46 1.3-6.78 0-11.2-4.6-11.2-11.48 0-6.93 4.74-11.95 12.09-11.95 2.41 0 4.55 0.6 5.67 1.16l-0.93 3.16c-0.98-0.55-2.51-1.07-4.74-1.07-5.16 0-7.95 3.82-7.95 8.51 0 5.21 3.35 8.41 7.81 8.41 2.32 0 3.86-0.6 5.02-1.11z"/>
					<path id="&lt;Compound Path&gt;" fill-rule="evenodd" class="s4" d="m731.54 207.64c0.09 5.53 3.63 7.81 7.72 7.81 2.92 0 4.69-0.51 6.22-1.17l0.7 2.93c-1.44 0.65-3.9 1.4-7.48 1.4-6.93 0-11.06-4.56-11.06-11.34 0-6.79 3.99-12.14 10.55-12.14 7.34 0 9.29 6.46 9.29 10.6 0 0.84-0.09 1.49-0.14 1.91zm12-2.93c0.04-2.6-1.07-6.65-5.67-6.65-4.14 0-5.95 3.81-6.28 6.65z"/>
					<path id="&lt;Compound Path&gt;" class="s4" d="m753.06 213.96c1.21 0.79 3.35 1.63 5.39 1.63 2.98 0 4.37-1.49 4.37-3.35 0-1.95-1.16-3.02-4.18-4.14-4.05-1.44-5.95-3.67-5.95-6.37 0-3.62 2.93-6.6 7.76-6.6 2.28 0 4.28 0.65 5.53 1.4l-1.02 2.97c-0.88-0.55-2.51-1.3-4.6-1.3-2.42 0-3.77 1.4-3.77 3.07 0 1.86 1.35 2.7 4.28 3.81 3.9 1.49 5.9 3.44 5.9 6.79 0 3.95-3.06 6.74-8.41 6.74-2.46 0-4.74-0.61-6.32-1.54z"/>
					<path id="&lt;Compound Path&gt;" class="s4" d="m788.94 189.18v6.46h5.86v3.12h-5.86v12.13c0 2.79 0.79 4.37 3.07 4.37 1.07 0 1.86-0.14 2.37-0.28l0.19 3.07c-0.79 0.32-2.05 0.56-3.63 0.56-1.9 0-3.44-0.61-4.41-1.72-1.17-1.21-1.58-3.21-1.58-5.86v-12.27h-3.49v-3.12h3.49v-5.39z"/>
					<path id="&lt;Compound Path&gt;" class="s4" d="m819.3 212.01q-0.01 3.48 0.18 6.13h-3.62l-0.24-3.67h-0.09c-1.07 1.81-3.44 4.18-7.44 4.18-3.53 0-7.76-1.95-7.76-9.85v-13.16h4.09v12.46c0 4.28 1.3 7.16 5.02 7.16 2.74 0 4.65-1.91 5.39-3.72 0.24-0.6 0.38-1.35 0.38-2.09v-13.81h4.09z"/>
					<path id="&lt;Compound Path&gt;" class="s4" d="m827.15 202.66c0-2.65-0.05-4.92-0.18-7.02h3.57l0.14 4.42h0.19c1.02-3.02 3.49-4.93 6.23-4.93 0.46 0 0.79 0.05 1.16 0.14v3.86c-0.42-0.09-0.84-0.14-1.39-0.14-2.89 0-4.93 2.19-5.49 5.25-0.09 0.56-0.18 1.21-0.18 1.91v11.99h-4.05z"/>
					<path id="&lt;Compound Path&gt;" class="s4" d="m843.61 201.73c0-2.32-0.05-4.23-0.19-6.09h3.63l0.23 3.72h0.09c1.12-2.13 3.72-4.23 7.44-4.23 3.11 0 7.95 1.86 7.95 9.58v13.43h-4.09v-12.97c0-3.62-1.35-6.64-5.21-6.64-2.7 0-4.79 1.9-5.49 4.18-0.18 0.51-0.27 1.21-0.27 1.91v13.52h-4.09z"/>
					<path id="&lt;Compound Path&gt;" class="s4" d="m278.07 254.95l2.98 11.43c0.65 2.51 1.25 4.84 1.67 7.16h0.14c0.51-2.28 1.25-4.69 2-7.11l3.67-11.48h3.44l3.49 11.25c0.83 2.69 1.48 5.06 2 7.34h0.13c0.38-2.28 0.98-4.65 1.72-7.3l3.21-11.29h4.05l-7.26 22.5h-3.71l-3.44-10.74c-0.79-2.51-1.44-4.74-2-7.39h-0.1c-0.55 2.69-1.25 5.02-2.04 7.44l-3.63 10.69h-3.72l-6.78-22.5z"/>
					<path id="&lt;Compound Path&gt;" fill-rule="evenodd" class="s4" d="m313.54 266.94c0.09 5.53 3.62 7.81 7.71 7.81 2.93 0 4.7-0.51 6.23-1.16l0.7 2.93c-1.44 0.65-3.91 1.39-7.48 1.39-6.93 0-11.07-4.55-11.07-11.34 0-6.79 4-12.13 10.55-12.13 7.35 0 9.3 6.46 9.3 10.6 0 0.83-0.09 1.48-0.14 1.9zm11.99-2.93c0.05-2.6-1.06-6.64-5.67-6.64-4.13 0-5.95 3.81-6.27 6.64z"/>
					<path id="&lt;Compound Path&gt;" fill-rule="evenodd" class="s4" d="m335.43 277.45c0.09-1.54 0.19-3.81 0.19-5.81v-27.2h4.04v14.13h0.09c1.44-2.51 4.05-4.13 7.67-4.13 5.58 0 9.53 4.65 9.48 11.48 0 8.04-5.06 12.04-10.08 12.04-3.26 0-5.86-1.26-7.53-4.23h-0.14l-0.19 3.72zm4.23-9.02c0 0.51 0.1 1.02 0.19 1.49 0.79 2.83 3.16 4.78 6.13 4.78 4.28 0 6.84-3.48 6.84-8.64 0-4.51-2.33-8.37-6.7-8.37-2.79 0-5.39 1.91-6.23 5.02-0.09 0.47-0.23 1.02-0.23 1.68z"/>
					<path id="&lt;Compound Path&gt;" class="s4" d="m362.57 273.26c1.21 0.79 3.35 1.63 5.4 1.63 2.97 0 4.37-1.49 4.37-3.35 0-1.95-1.17-3.02-4.19-4.13-4.04-1.44-5.95-3.68-5.95-6.37 0-3.63 2.93-6.6 7.77-6.6 2.27 0 4.27 0.65 5.53 1.39l-1.03 2.98c-0.88-0.56-2.51-1.3-4.6-1.3-2.41 0-3.76 1.39-3.76 3.06 0 1.86 1.35 2.7 4.27 3.82 3.91 1.48 5.91 3.44 5.91 6.78 0 3.95-3.07 6.74-8.42 6.74-2.46 0-4.74-0.6-6.32-1.53z"/>
					<path id="&lt;Compound Path&gt;" class="s4" d="m384.63 251.14c-1.4 0-2.53-1.13-2.53-2.54 0-1.4 1.13-2.53 2.53-2.53 1.4 0 2.53 1.13 2.53 2.53 0 1.41-1.13 2.54-2.53 2.54zm2.07 3.81v22.5h-4.09v-22.5z"/>
					<path id="&lt;Compound Path&gt;" class="s4" d="m399.48 248.49v6.46h5.86v3.11h-5.86v12.14c0 2.78 0.79 4.37 3.07 4.37 1.07 0 1.86-0.14 2.37-0.28l0.19 3.06c-0.8 0.33-2.05 0.56-3.63 0.56-1.91 0-3.44-0.6-4.42-1.72-1.16-1.21-1.58-3.21-1.58-5.85v-12.28h-3.48v-3.11h3.48v-5.39z"/>
					<path id="&lt;Compound Path&gt;" fill-rule="evenodd" class="s4" d="m413.01 266.94c0.09 5.53 3.62 7.81 7.71 7.81 2.93 0 4.7-0.51 6.23-1.16l0.7 2.93c-1.44 0.65-3.91 1.39-7.49 1.39-6.92 0-11.06-4.55-11.06-11.34 0-6.79 4-12.13 10.55-12.13 7.35 0 9.3 6.46 9.3 10.6 0 0.83-0.09 1.48-0.14 1.9zm11.99-2.93c0.05-2.6-1.07-6.64-5.67-6.64-4.13 0-5.95 3.81-6.27 6.64z"/>
					<path id="&lt;Compound Path&gt;" class="s4" d="m447.59 254.95l4.41 12.64c0.75 2.05 1.35 3.91 1.82 5.77h0.14c0.51-1.86 1.16-3.72 1.9-5.77l4.37-12.64h4.28l-8.83 22.5h-3.91l-8.55-22.5z"/>
					<path id="&lt;Compound Path&gt;" class="s4" d="m471.46 251.14c-1.4 0-2.54-1.13-2.54-2.54 0-1.4 1.14-2.53 2.54-2.53 1.4 0 2.53 1.13 2.53 2.53 0 1.41-1.13 2.54-2.53 2.54zm2.06 3.81v22.5h-4.09v-22.5z"/>
					<path id="&lt;Compound Path&gt;" class="s4" d="m480.82 273.26c1.21 0.79 3.35 1.63 5.39 1.63 2.98 0 4.37-1.49 4.37-3.35 0-1.95-1.16-3.02-4.18-4.13-4.04-1.44-5.95-3.68-5.95-6.37 0-3.63 2.93-6.6 7.76-6.6 2.28 0 4.28 0.65 5.53 1.39l-1.02 2.98c-0.88-0.56-2.51-1.3-4.6-1.3-2.42 0-3.77 1.39-3.77 3.06 0 1.86 1.35 2.7 4.28 3.82 3.91 1.48 5.9 3.44 5.9 6.78 0 3.95-3.06 6.74-8.41 6.74-2.46 0-4.74-0.6-6.32-1.53z"/>
					<path id="&lt;Compound Path&gt;" class="s4" d="m502.88 251.14c-1.4 0-2.54-1.13-2.54-2.54 0-1.4 1.14-2.53 2.54-2.53 1.4 0 2.53 1.13 2.53 2.53 0 1.41-1.13 2.54-2.53 2.54zm2.07 3.81v22.5h-4.1v-22.5z"/>
					<path id="&lt;Compound Path&gt;" class="s4" d="m517.73 248.49v6.46h5.85v3.11h-5.85v12.14c0 2.78 0.79 4.37 3.07 4.37 1.06 0 1.85-0.14 2.37-0.28l0.18 3.06c-0.79 0.33-2.04 0.56-3.62 0.56-1.91 0-3.44-0.6-4.42-1.72-1.16-1.21-1.58-3.21-1.58-5.85v-12.28h-3.49v-3.11h3.49v-5.39z"/>
					<path id="&lt;Compound Path&gt;" fill-rule="evenodd" class="s4" d="m549.34 266.01c0 8.32-5.77 11.95-11.21 11.95-6.09 0-10.78-4.46-10.78-11.58 0-7.53 4.93-11.94 11.16-11.94 6.46 0 10.83 4.69 10.83 11.57zm-17.85 0.23c0 4.93 2.83 8.65 6.83 8.65 3.9 0 6.83-3.67 6.83-8.74 0-3.81-1.9-8.64-6.74-8.64-4.83 0-6.92 4.46-6.92 8.73z"/>
					<path id="&lt;Compound Path&gt;" class="s4" d="m555.56 261.97c0-2.65-0.04-4.93-0.18-7.02h3.58l0.14 4.42h0.18c1.02-3.03 3.49-4.93 6.23-4.93 0.47 0 0.79 0.04 1.16 0.14v3.86c-0.42-0.1-0.83-0.14-1.39-0.14-2.88 0-4.93 2.18-5.49 5.25-0.09 0.56-0.18 1.21-0.18 1.9v12h-4.05z"/>
					<path id="&lt;Compound Path&gt;" class="s4" d="m571.27 273.26c1.21 0.79 3.35 1.63 5.4 1.63 2.97 0 4.37-1.49 4.37-3.35 0-1.95-1.17-3.02-4.19-4.13-4.04-1.44-5.95-3.68-5.95-6.37 0-3.63 2.93-6.6 7.76-6.6 2.28 0 4.28 0.65 5.54 1.39l-1.03 2.98c-0.88-0.56-2.51-1.3-4.6-1.3-2.42 0-3.76 1.39-3.76 3.06 0 1.86 1.34 2.7 4.27 3.82 3.91 1.48 5.91 3.44 5.91 6.78 0 3.95-3.07 6.74-8.42 6.74-2.46 0-4.74-0.6-6.32-1.53z"/>
					<path id="&lt;Compound Path&gt;" class="s4" d="m604.25 251.14c-1.4 0-2.53-1.13-2.53-2.54 0-1.4 1.13-2.53 2.53-2.53 1.4 0 2.54 1.13 2.54 2.53 0 1.41-1.14 2.54-2.54 2.54zm2.07 3.81v22.5h-4.09v-22.5z"/>
					<path id="&lt;Compound Path&gt;" class="s4" d="m614.18 261.04c0-2.33-0.05-4.23-0.19-6.09h3.63l0.23 3.72h0.09c1.12-2.14 3.72-4.23 7.44-4.23 3.11 0 7.95 1.86 7.95 9.57v13.44h-4.09v-12.97c0-3.63-1.35-6.65-5.21-6.65-2.7 0-4.79 1.91-5.48 4.18-0.19 0.52-0.28 1.21-0.28 1.91v13.53h-4.09z"/>
					<path id="&lt;Compound Path&gt;" class="s4" d="m645.78 248.49v6.46h5.86v3.11h-5.86v12.14c0 2.78 0.79 4.37 3.07 4.37 1.07 0 1.86-0.14 2.37-0.28l0.19 3.06c-0.79 0.33-2.05 0.56-3.63 0.56-1.9 0-3.44-0.6-4.41-1.72-1.17-1.21-1.58-3.21-1.58-5.85v-12.28h-3.49v-3.11h3.49v-5.39z"/>
					<path id="&lt;Compound Path&gt;" fill-rule="evenodd" class="s4" d="m677.39 266.01c0 8.32-5.76 11.95-11.2 11.95-6.09 0-10.79-4.46-10.79-11.58 0-7.53 4.93-11.94 11.16-11.94 6.46 0 10.83 4.69 10.83 11.57zm-17.85 0.23c0 4.93 2.84 8.65 6.83 8.65 3.91 0 6.84-3.67 6.84-8.74 0-3.81-1.91-8.64-6.74-8.64-4.84 0-6.93 4.46-6.93 8.73z"/>
					<path id="&lt;Compound Path&gt;" fill-rule="evenodd" class="s4" d="m694.54 262.29c0-2.88-0.09-5.2-0.18-7.34h3.67l0.18 3.86h0.1c1.67-2.75 4.32-4.37 7.99-4.37 5.44 0 9.53 4.6 9.53 11.43 0 8.09-4.93 12.09-10.23 12.09-2.97 0-5.57-1.3-6.92-3.53h-0.09v12.22h-4.05zm4.05 6c0 0.6 0.09 1.16 0.18 1.67 0.75 2.84 3.21 4.79 6.14 4.79 4.32 0 6.83-3.53 6.83-8.69 0-4.51-2.37-8.37-6.69-8.37-2.79 0-5.4 2-6.19 5.07-0.13 0.51-0.27 1.11-0.27 1.67z"/>
					<path id="&lt;Compound Path&gt;" fill-rule="evenodd" class="s4" d="m734.52 277.45l-0.33-2.84h-0.14c-1.25 1.77-3.67 3.35-6.88 3.35-4.55 0-6.88-3.21-6.88-6.46 0-5.44 4.84-8.42 13.53-8.37v-0.46c0-1.86-0.51-5.21-5.11-5.21-2.1 0-4.28 0.65-5.86 1.67l-0.93-2.69c1.86-1.21 4.55-2 7.39-2 6.88 0 8.55 4.69 8.55 9.2v8.41c0 1.96 0.1 3.86 0.37 5.4zm-0.6-11.48c-4.46-0.1-9.53 0.69-9.53 5.06 0 2.65 1.77 3.91 3.86 3.91 2.93 0 4.79-1.86 5.44-3.77 0.14-0.42 0.23-0.88 0.23-1.3z"/>
					<path id="&lt;Compound Path&gt;" class="s4" d="m750.27 248.49v6.46h5.86v3.11h-5.86v12.14c0 2.78 0.79 4.37 3.07 4.37 1.07 0 1.86-0.14 2.37-0.28l0.19 3.06c-0.79 0.33-2.05 0.56-3.63 0.56-1.9 0-3.44-0.6-4.41-1.72-1.17-1.21-1.59-3.21-1.59-5.85v-12.28h-3.48v-3.11h3.48v-5.39z"/>
					<path id="&lt;Compound Path&gt;" class="s4" d="m763.82 251.14c-1.4 0-2.53-1.13-2.53-2.54 0-1.4 1.13-2.53 2.53-2.53 1.4 0 2.54 1.13 2.54 2.53 0 1.41-1.14 2.54-2.54 2.54zm2.07 3.81v22.5h-4.09v-22.5z"/>
					<path id="&lt;Compound Path&gt;" fill-rule="evenodd" class="s4" d="m776.02 266.94c0.1 5.53 3.63 7.81 7.72 7.81 2.93 0 4.69-0.51 6.23-1.16l0.69 2.93c-1.44 0.65-3.9 1.39-7.48 1.39-6.92 0-11.06-4.55-11.06-11.34 0-6.79 4-12.13 10.55-12.13 7.34 0 9.3 6.46 9.3 10.6 0 0.83-0.1 1.48-0.14 1.9zm11.99-2.93c0.05-2.6-1.07-6.64-5.67-6.64-4.14 0-5.95 3.81-6.28 6.64z"/>
					<path id="&lt;Compound Path&gt;" class="s4" d="m798.1 261.04c0-2.33-0.05-4.23-0.18-6.09h3.62l0.23 3.72h0.1c1.11-2.14 3.71-4.23 7.43-4.23 3.12 0 7.95 1.86 7.95 9.57v13.44h-4.09v-12.97c0-3.63-1.35-6.65-5.2-6.65-2.7 0-4.79 1.91-5.49 4.18-0.19 0.52-0.28 1.21-0.28 1.91v13.53h-4.09z"/>
					<path id="&lt;Compound Path&gt;" class="s4" d="m829.71 248.49v6.46h5.86v3.11h-5.86v12.14c0 2.78 0.79 4.37 3.07 4.37 1.07 0 1.86-0.14 2.37-0.28l0.18 3.06c-0.79 0.33-2.04 0.56-3.62 0.56-1.91 0-3.44-0.6-4.42-1.72-1.16-1.21-1.58-3.21-1.58-5.85v-12.28h-3.48v-3.11h3.48v-5.39z"/>
					<path id="&lt;Compound Path&gt;" class="s4" d="m840.68 273.26c1.21 0.79 3.34 1.63 5.39 1.63 2.97 0 4.37-1.49 4.37-3.35 0-1.95-1.16-3.02-4.18-4.13-4.05-1.44-5.95-3.68-5.95-6.37 0-3.63 2.92-6.6 7.76-6.6 2.28 0 4.28 0.65 5.53 1.39l-1.02 2.98c-0.89-0.56-2.51-1.3-4.6-1.3-2.42 0-3.77 1.39-3.77 3.06 0 1.86 1.35 2.7 4.28 3.82 3.9 1.48 5.9 3.44 5.9 6.78 0 3.95-3.07 6.74-8.41 6.74-2.47 0-4.74-0.6-6.32-1.53z"/>
					<path id="&lt;Compound Path&gt;" fill-rule="evenodd" class="s4" d="m861.99 277.96c-1.53 0-2.77-1.31-2.77-2.93 0-1.62 1.24-2.93 2.77-2.93 1.53 0 2.77 1.31 2.77 2.93 0 1.62-1.24 2.93-2.77 2.93z"/>
				</g>
			</g>
		</g>
	</g>
</svg>