<svg version="1.2" xmlns="http://www.w3.org/2000/svg" viewBox="0 0 906 298" width="906" height="298">
	<style>
		.s0 { fill: #1f71ee } 
		.s1 { fill: #606060 } 
		.s2 { fill: #55bf5e } 
		.s3 { fill: #00143d } 
		.s4 { fill: #ffffff } 
		.s5 { fill: #000000 } 
	</style>
	<g id="Layer 1">
		<g id="&lt;Group&gt;">
			<g id="&lt;Group&gt;">
				<path id="&lt;Path&gt;" class="s0" d="m196.58 108.03l-27.42 20.17c-1.51 1.11-3.67 0.55-4.45-1.15l-18.73-40.91c-1.11-2.42-4.59-2.31-5.54 0.18l-13.55 35.52c-3.01 5.52-14.07 5.28-19.12 14.71-5.37 9.99-0.25 20.72 1.95 23.15 1.59 1.77 1.22 3.83 0.9 4.82q0 0.01 0 0.01l-0.2 0.52-0.03 0.08-16.39 42.98c-0.44 1.16-1.56 1.93-2.81 1.93h-40.43c-2.15 0-3.6-2.2-2.76-4.18l76-178.04c0.47-1.1 1.56-1.82 2.76-1.82h32.75c1.17 0 2.24 0.68 2.73 1.75l35.28 76.66c0.58 1.27 0.19 2.78-0.94 3.62z"/>
				<path id="&lt;Path&gt;" class="s0" d="m241.66 210.53h-36.77c-1.18 0-2.25-0.69-2.73-1.75l-14.24-31.07c-0.49-1.08-0.29-2.35 0.51-3.23l24.46-26.82c1.43-1.56 3.99-1.17 4.88 0.76l26.62 57.85c0.92 1.99-0.54 4.26-2.73 4.26z"/>
			</g>
			<path id="&lt;Path&gt;" class="s1" d="m110.42 165.05l-0.03 0.08v-0.01q0 0 0.03-0.07z"/>
			<path id="&lt;Path&gt;" class="s2" d="m245.62 95.72c0 0-77.03 85.07-81.91 89.21-4.87 4.15-12.67 4.15-22.42-6.33-9.76-10.49-23.16-28.04-23.16-28.04 0 0-3.17-5.36 1.7-10.97 4.88-5.6 12.92-2.19 16.82 1.47 3.9 3.65 13.9 12.18 15.36 13.16 1.46 0.97 3.66 0.97 5.85-0.98 2.2-1.95 81.42-60.21 85.56-62.4 4.15-2.19 5.85 1.22 2.2 4.88z"/>
			<path id="&lt;Path&gt;" class="s3" d="m390.9 91.81h22.92v54.36c0 0 1.22 14.63 17.55 13.41 16.33-1.22 16.09-15.6 16.09-19.01 0-3.41 0-48.51 0-48.51h22.18v84.83h-21.7v-13.16c0 0-7.55 15.6-27.54 14.62-19.99-0.97-29.25-15.36-29.25-28.28 0-12.91-0.25-58.26-0.25-58.26z"/>
			<path id="&lt;Path&gt;" class="s3" d="m277.79 176.4h23.65l31.45-92.87 32.42 93.12h23.64l-41.68-115.31h-27.79z"/>
			<path id="&lt;Path&gt;" class="s3" d="m365.31 152.51h-61.19v-19.5h61.19z"/>
			<path id="&lt;Compound Path&gt;" fill-rule="evenodd" class="s3" d="m554.96 134.6c0 24.23-17 43.87-37.97 43.87-20.97 0-37.97-19.64-37.97-43.87 0-24.24 17-43.88 37.97-43.88 20.97 0 37.97 19.64 37.97 43.88zm-10.24 0c0-14.34-9.5-25.97-21.21-25.97-11.71 0-21.21 11.63-21.21 25.97 0 14.33 9.5 25.96 21.21 25.96 11.71 0 21.21-11.63 21.21-25.96z"/>
			<path id="&lt;Path&gt;" class="s3" d="m565.8 176.04h-22.18v-118.47h22.18z"/>
			<path id="&lt;Path&gt;" class="s3" d="m602.61 176.04h-22.18v-83.37h22.18z"/>
			<path id="&lt;Path&gt;" class="s3" d="m623.46 68.9v83.61c0 0-0.74 12.43 10.23 20.24 10.97 7.8 31.69 2.68 31.69 2.68v-17.07c0 0-18.28 5.37-19.5-9.26-1.22-14.63 0-79.96 0-79.96 0 0-22.29-0.37-22.42-0.24z"/>
			<path id="&lt;Path&gt;" class="s3" d="m665.63 108.88h-54.61v-16.82h54.61z"/>
			<path id="&lt;Path&gt;" class="s3" d="m605.66 68.78c0 6.93-6.55 12.55-14.63 12.55-8.07 0-14.62-5.62-14.62-12.55 0-6.93 6.55-12.56 14.62-12.56 8.08 0 14.63 5.63 14.63 12.56z"/>
			<path id="&lt;Path&gt;" class="s0" d="m783.49 176.04h-22.18v-83.37h22.18z"/>
			<path id="&lt;Path&gt;" class="s0" d="m786.54 68.78c0 6.93-6.55 12.55-14.63 12.55-8.08 0-14.63-5.62-14.63-12.55 0-6.93 6.55-12.56 14.63-12.56 8.08 0 14.63 5.63 14.63 12.56z"/>
			<path id="&lt;Path&gt;" class="s0" d="m698.78 176.4h-20.96v-114.81h20.96z"/>
			<path id="&lt;Path&gt;" class="s0" d="m692.2 61.59h55.82v16.82h-55.82z"/>
			<path id="&lt;Path&gt;" class="s0" d="m692.2 113.27h51.43v16.82h-51.43z"/>
			<g id="&lt;Group&gt;">
				<path id="&lt;Path&gt;" class="s0" d="m868 93.03l-29.17 42.09-10.98 15.84-16.62 23.98h-21.94l27.59-39.82 10.97-15.83 18.2-26.26z"/>
				<path id="&lt;Path&gt;" class="s0" d="m866.42 174.94h-21.94l-16.63-23.98-10.97-15.84-29.17-42.09h21.95l18.19 26.26 10.98 15.83z"/>
			</g>
			<g id="Tagline">
				<g id="&lt;Group&gt;">
					<g id="&lt;Group&gt;">
						<path id="&lt;Path&gt;" class="s4" d="m295.78 219.26c-0.62 0-1.12-0.5-1.12-1.12v-13.56h-12.91v13.56c0 0.62-0.5 1.12-1.12 1.12h-4.05c-0.62 0-1.12-0.5-1.12-1.12v-31.33c0-0.62 0.5-1.12 1.12-1.12h4.05c0.62 0 1.12 0.5 1.12 1.12v11.99h12.91v-11.99c0-0.62 0.5-1.12 1.12-1.12h4.09c0.62 0 1.12 0.5 1.12 1.12v31.33c0 0.62-0.5 1.12-1.12 1.12z"/>
						<path id="&lt;Compound Path&gt;" fill-rule="evenodd" class="s4" d="m302.12 186.81v31.33c0 1.24-1.01 2.25-2.25 2.25h-4.09c-1.24 0-2.24-1.01-2.24-2.25v-12.44h-10.67v12.44c0 1.24-1 2.25-2.24 2.25h-4.05c-1.23 0-2.24-1.01-2.24-2.25v-31.33c0-1.24 1.01-2.24 2.24-2.24h4.05c1.24 0 2.24 1 2.24 2.24v10.87h10.67v-10.87c0-1.24 1-2.24 2.24-2.24h4.09c1.24 0 2.25 1 2.25 2.24zm-6.34 0v13.11h-15.15v-13.11h-4.05v31.33h4.05v-14.69h15.15v14.69h4.09v-31.33z"/>
					</g>
					<g id="&lt;Group&gt;">
						<path id="&lt;Compound Path&gt;" fill-rule="evenodd" class="s4" d="m317.26 219.73c-7.41 0-12.19-4.89-12.19-12.46 0-7.81 4.8-13.26 11.67-13.26 7.2 0 10.42 5.89 10.42 11.72 0 0.79-0.07 1.42-0.12 1.85l-0.02 0.18c-0.07 0.57-0.55 1-1.12 1h-14.6c0.62 5 4.69 5.56 6.51 5.56 2.87 0 4.48-0.51 5.79-1.07q0.22-0.09 0.44-0.09 0.27 0 0.51 0.12c0.29 0.15 0.51 0.42 0.58 0.74l0.7 2.93c0.13 0.53-0.14 1.06-0.63 1.29-1.51 0.68-4.11 1.49-7.94 1.49zm3.65-16.14c-0.12-0.98-0.46-2.31-1.39-3.26q-1.13-1.14-3.1-1.15c-2.92 0-4.36 2.39-4.92 4.41z"/>
						<path id="&lt;Compound Path&gt;" fill-rule="evenodd" class="s4" d="m328.28 205.73c0 0.85-0.07 1.53-0.13 1.98l-0.02 0.18c-0.12 1.13-1.08 1.99-2.23 1.99h-13.22c0.85 2.69 3.15 3.32 5.13 3.32 2.67 0 4.15-0.47 5.36-0.98q0.42-0.18 0.87-0.18 0.53 0 1.01 0.24c0.59 0.3 1.02 0.84 1.18 1.48l0.69 2.93c0.25 1.05-0.28 2.13-1.26 2.57-1.61 0.72-4.37 1.59-8.4 1.59-3.99 0-7.37-1.32-9.75-3.82-2.33-2.43-3.56-5.81-3.56-9.76 0-3.9 1.18-7.47 3.34-10.05 2.32-2.79 5.68-4.33 9.45-4.33 7.98 0 11.54 6.45 11.54 12.84zm-22.09 1.54c0 6.78 4.14 11.34 11.07 11.34 3.58 0 6.04-0.75 7.48-1.4l-0.7-2.93c-1.53 0.66-3.3 1.17-6.23 1.17-4.09 0-7.62-2.28-7.71-7.81h15.8c0.05-0.42 0.14-1.07 0.14-1.91 0-4.14-1.95-10.6-9.3-10.6-6.55 0-10.55 5.35-10.55 12.14zm10.23-9.21c4.6 0 5.72 4.05 5.67 6.65h-11.95c0.33-2.84 2.14-6.65 6.28-6.65zm3.09 4.41c-0.18-0.51-0.44-0.99-0.79-1.35q-0.8-0.82-2.3-0.81c-1.71 0-2.71 1.05-3.29 2.16z"/>
					</g>
					<g id="&lt;Group&gt;">
						<path id="&lt;Path&gt;" class="s4" d="m332.18 219.26c-0.62 0-1.13-0.5-1.13-1.12v-33c0-0.62 0.51-1.12 1.13-1.12h4.09c0.62 0 1.12 0.5 1.12 1.12v33c0 0.62-0.5 1.12-1.12 1.12z"/>
						<path id="&lt;Compound Path&gt;" fill-rule="evenodd" class="s4" d="m338.51 185.14v33c0 1.24-1 2.25-2.24 2.25h-4.09c-1.24 0-2.25-1.01-2.25-2.25v-33c0-1.24 1.01-2.24 2.25-2.24h4.09c1.24 0 2.24 1 2.24 2.24zm-6.33 0v33h4.09v-33z"/>
					</g>
					<g id="&lt;Group&gt;">
						<path id="&lt;Compound Path&gt;" fill-rule="evenodd" class="s4" d="m344.21 228.47c-0.62 0-1.12-0.5-1.12-1.12v-24.36c0-2.81-0.09-5.06-0.18-7.3-0.02-0.3 0.1-0.6 0.31-0.82 0.21-0.22 0.5-0.35 0.81-0.35h3.67c0.6 0 1.09 0.47 1.12 1.07l0.05 1.04c1.86-1.72 4.27-2.62 7.1-2.62 6.18 0 10.66 5.28 10.66 12.56 0 9.07-5.89 13.21-11.35 13.21-2.26 0-4.32-0.68-5.9-1.88v9.45c0 0.62-0.5 1.12-1.12 1.12zm5.32-18.06c0.64 2.35 2.66 3.91 5.04 3.91 4.21 0 5.71-3.91 5.71-7.57 0-3.6-1.72-7.24-5.57-7.24-2.36 0-4.45 1.74-5.09 4.22-0.11 0.4-0.25 0.95-0.25 1.4v3.86c0 0.49 0.08 0.95 0.16 1.42z"/>
						<path id="&lt;Compound Path&gt;" fill-rule="evenodd" class="s4" d="m367.75 206.57c0 4.35-1.29 8.02-3.74 10.61-2.26 2.4-5.36 3.72-8.73 3.72-1.73 0-3.35-0.36-4.78-1.02v7.47c0 1.24-1 2.24-2.24 2.24h-4.05c-1.24 0-2.24-1-2.24-2.24v-24.36c0-2.79-0.09-5.02-0.18-7.25-0.03-0.61 0.19-1.2 0.62-1.65 0.42-0.44 1.01-0.69 1.62-0.69h3.67c0.86 0 1.6 0.48 1.98 1.19 1.79-1.12 3.9-1.7 6.29-1.7 6.83 0 11.78 5.75 11.78 13.68zm-19.77-7.07h-0.09l-0.19-3.86h-3.67c0.09 2.14 0.18 4.47 0.18 7.35v24.36h4.05v-12.23h0.09c1.35 2.23 3.95 3.53 6.93 3.53 5.3 0 10.22-3.99 10.22-12.08 0-6.83-4.09-11.44-9.53-11.44-3.67 0-6.32 1.63-7.99 4.37zm0.46 11.16c-0.09-0.51-0.18-1.07-0.18-1.67v-3.86c0-0.56 0.14-1.16 0.28-1.68 0.79-3.06 3.39-5.06 6.18-5.06 4.32 0 6.69 3.86 6.69 8.36 0 5.16-2.51 8.7-6.83 8.7-2.93 0-5.39-1.96-6.14-4.79zm6.14 2.54c4.26 0 4.59-4.93 4.59-6.45 0-2.82-1.17-6.12-4.45-6.12-1.85 0-3.5 1.39-4.01 3.38q0 0.02-0.01 0.03c-0.05 0.19-0.2 0.74-0.2 1.09v3.86q0.01 0.57 0.14 1.18c0.51 1.82 2.08 3.03 3.94 3.03z"/>
					</g>
					<g id="&lt;Group&gt;">
						<path id="&lt;Compound Path&gt;" class="s4" d="m371.73 219.26c-0.62 0-1.12-0.5-1.12-1.12v-22.5c0-0.61 0.5-1.12 1.12-1.12h4.09c0.62 0 1.12 0.51 1.12 1.12v22.5c0 0.62-0.5 1.12-1.12 1.12zm1.95-26.3c-2.01 0-3.58-1.6-3.58-3.64 0-2.09 1.58-3.68 3.68-3.68 2.09 0 3.62 1.54 3.63 3.66 0.03 0.98-0.32 1.88-0.96 2.55-0.69 0.71-1.67 1.11-2.77 1.11z"/>
						<path id="&lt;Compound Path&gt;" fill-rule="evenodd" class="s4" d="m378.53 189.29c0.03 1.27-0.42 2.46-1.28 3.34q-0.46 0.48-1.04 0.81c1.06 0.18 1.86 1.1 1.86 2.2v22.5c0 1.24-1.01 2.25-2.25 2.25h-4.09c-1.24 0-2.24-1.01-2.24-2.25v-22.5c0-1.09 0.78-2 1.81-2.2-1.4-0.81-2.32-2.34-2.32-4.12 0-2.69 2.1-4.8 4.8-4.8 2.69 0 4.73 2.05 4.75 4.77zm-6.8 6.35v22.5h4.09v-22.5zm4.56-6.34c0-1.4-1.13-2.53-2.54-2.53-1.4 0-2.53 1.13-2.53 2.53 0 1.4 1.13 2.53 2.53 2.53 1.41 0 2.54-1.13 2.54-2.53z"/>
					</g>
					<g id="&lt;Group&gt;">
						<path id="&lt;Path&gt;" class="s4" d="m398.74 219.26c-0.62 0-1.13-0.5-1.13-1.12v-12.97c0-3.66-1.37-5.52-4.08-5.52-2.33 0-3.9 1.7-4.41 3.39q-0.01 0.03-0.02 0.05c-0.13 0.37-0.21 0.94-0.21 1.53v13.52c0 0.62-0.5 1.12-1.12 1.12h-4.09c-0.62 0-1.13-0.5-1.13-1.12v-16.41c0-2.5-0.05-4.29-0.18-6-0.02-0.31 0.09-0.62 0.3-0.85 0.21-0.23 0.51-0.36 0.82-0.36h3.63c0.59 0 1.08 0.46 1.12 1.05l0.05 0.9c1.53-1.39 3.74-2.46 6.59-2.46 4.18 0 9.07 2.8 9.07 10.7v13.43c0 0.62-0.5 1.12-1.12 1.12z"/>
						<path id="&lt;Compound Path&gt;" fill-rule="evenodd" class="s4" d="m401.52 195.36c1.62 1.45 3.55 4.25 3.55 9.35v13.43c0 1.24-1 2.25-2.24 2.25h-4.09c-1.24 0-2.25-1.01-2.25-2.25v-12.97c0-4.4-2.07-4.4-2.96-4.4-1.75 0-2.96 1.35-3.34 2.6q-0.02 0.05-0.04 0.11c-0.07 0.19-0.14 0.62-0.14 1.14v13.52c0 1.24-1 2.25-2.24 2.25h-4.09c-1.24 0-2.25-1.01-2.25-2.25v-16.41c0-2.47-0.05-4.24-0.18-5.92-0.04-0.62 0.17-1.23 0.6-1.69 0.42-0.46 1.02-0.72 1.64-0.72h3.63c0.81 0 1.53 0.44 1.93 1.1 1.55-0.96 3.5-1.61 5.83-1.61 1.45 0 4.24 0.32 6.64 2.47zm-14.08 4h-0.09l-0.23-3.72h-3.63c0.14 1.86 0.19 3.77 0.19 6.09v16.41h4.09v-13.52c0-0.7 0.09-1.4 0.28-1.91 0.69-2.28 2.78-4.18 5.48-4.18 3.86 0 5.21 3.02 5.21 6.64v12.97h4.09v-13.43c0-7.72-4.84-9.58-7.95-9.58-3.72 0-6.32 2.1-7.44 4.23z"/>
					</g>
					<g id="&lt;Group&gt;">
						<path id="&lt;Compound Path&gt;" fill-rule="evenodd" class="s4" d="m418.35 228.98c-3.1 0-6.21-0.78-8.1-2.05-0.42-0.28-0.61-0.8-0.45-1.28l1.02-3.12c0.11-0.32 0.36-0.58 0.69-0.7q0.19-0.07 0.38-0.07 0.32 0 0.59 0.17c0.77 0.48 2.89 1.6 6.01 1.6 4.02 0 6.02-2.09 6.13-6.38-1.64 1.31-3.76 2.02-6.13 2.02-6.1 0-10.7-5.2-10.7-12.09 0-8.49 5.8-13.07 11.26-13.07 2.9 0 4.86 1.02 6.14 2.15l0.04-0.58c0.03-0.59 0.52-1.06 1.12-1.06h3.58c0.3 0 0.6 0.13 0.81 0.35 0.21 0.23 0.32 0.53 0.31 0.84-0.1 1.7-0.19 3.44-0.19 6.12v13.06c0 5.47-1.1 8.89-3.58 11.11-2.63 2.46-6.31 2.98-8.93 2.98zm1.4-29.52c-3.39 0-5.58 2.9-5.58 7.39 0 3.36 1.46 6.96 5.53 6.96 2.09 0 3.9-1.34 4.61-3.42 0.17-0.51 0.26-1.16 0.26-1.82v-4.05c0-0.68-0.05-1.13-0.17-1.5-0.7-2.24-2.44-3.56-4.65-3.56z"/>
						<path id="&lt;Compound Path&gt;" fill-rule="evenodd" class="s4" d="m424.55 194.3c0.41-0.55 1.06-0.9 1.8-0.9h3.58c0.61 0 1.2 0.26 1.63 0.7 0.42 0.45 0.64 1.06 0.61 1.67-0.1 1.68-0.19 3.41-0.19 6.06v13.06c0 5.8-1.21 9.48-3.93 11.93-2.92 2.71-6.88 3.28-9.7 3.28-2.6 0-6.25-0.59-8.73-2.23-0.84-0.56-1.2-1.61-0.88-2.57l1.02-3.12c0.21-0.65 0.72-1.17 1.37-1.41q0.37-0.13 0.76-0.13 0.64 0 1.19 0.34c0.69 0.43 2.59 1.43 5.41 1.43 2.59 0 4.11-0.97 4.71-3.09-1.41 0.64-3 0.97-4.71 0.97-6.74 0-11.82-5.68-11.82-13.21 0-4.15 1.29-7.73 3.73-10.36 2.26-2.43 5.42-3.83 8.65-3.83 2.34 0 4.14 0.6 5.5 1.41zm-15.63 12.78c0 6.23 3.99 10.97 9.57 10.97 3.49 0 5.9-1.67 7.16-3.77h0.09v2.51c0 5.68-3.07 7.86-7.25 7.86-2.79 0-5.11-0.84-6.6-1.77l-1.02 3.12c1.81 1.21 4.79 1.86 7.48 1.86 2.84 0 6-0.65 8.18-2.7 2.19-1.95 3.21-5.11 3.21-10.27v-13.06c0-2.75 0.09-4.56 0.19-6.19h-3.58l-0.19 3.4h-0.09c-0.98-1.86-3.12-3.91-7.02-3.91-5.16 0-10.13 4.33-10.13 11.95zm4.13-0.23c0-5.21 2.79-8.51 6.7-8.51 2.97 0 4.97 1.95 5.71 4.32 0.19 0.56 0.24 1.17 0.24 1.86v4.05c0 0.69-0.1 1.48-0.33 2.18-0.88 2.6-3.16 4.19-5.67 4.19-4.42 0-6.65-3.68-6.65-8.09zm10.19 3.19c0.14-0.4 0.21-0.94 0.21-1.47v-4.05c0-0.55-0.03-0.9-0.12-1.15q0-0.02-0.01-0.03c-0.2-0.65-1.06-2.76-3.57-2.76-2.71 0-4.45 2.46-4.45 6.27 0 1.37 0.31 5.84 4.4 5.84 1.61 0 3-1.04 3.54-2.65z"/>
					</g>
					<g id="&lt;Group&gt;">
						<path id="&lt;Compound Path&gt;" fill-rule="evenodd" class="s4" d="m456.51 219.78c-6.22 0-10.74-5.28-10.74-12.56-0.03-4.07 1.29-7.65 3.7-10.08 2.01-2.02 4.67-3.13 7.51-3.13 2.23 0 4.23 0.63 5.75 1.76v-10.63c0-0.62 0.51-1.12 1.13-1.12h4.09c0.62 0 1.12 0.5 1.12 1.12v27.19c0 1.39 0.02 3.97 0.18 5.71 0.03 0.32-0.08 0.63-0.29 0.86-0.21 0.23-0.51 0.36-0.83 0.36h-3.67c-0.6 0-1.09-0.47-1.12-1.06l-0.05-0.96c-1.74 1.61-4.15 2.54-6.78 2.54zm1.26-20.32c-3.42 0-5.62 2.97-5.62 7.57 0 3.48 1.45 7.2 5.52 7.2 2.36 0 4.33-1.62 4.91-4.02 0.11-0.44 0.15-0.88 0.15-1.5v-3.91c0-0.55-0.05-1.09-0.14-1.42q-0.01-0.02-0.01-0.04c-0.45-1.93-2.11-3.88-4.81-3.88z"/>
						<path id="&lt;Compound Path&gt;" fill-rule="evenodd" class="s4" d="m470.19 185.14v27.19c0 2.36 0.06 4.35 0.18 5.61 0.05 0.63-0.16 1.25-0.58 1.72-0.43 0.46-1.03 0.73-1.66 0.73h-3.67c-0.84 0-1.57-0.46-1.96-1.15-1.71 1.07-3.78 1.66-5.99 1.66-3.33 0-6.36-1.4-8.55-3.94-2.14-2.48-3.31-5.94-3.31-9.73-0.03-4.37 1.4-8.23 4.02-10.88 2.22-2.23 5.17-3.46 8.31-3.46 1.68 0 3.26 0.33 4.63 0.94v-8.69c0-1.24 1.01-2.24 2.25-2.24h4.09c1.24 0 2.24 1 2.24 2.24zm-6.33 0v13.43h-0.1c-1.02-1.81-3.34-3.44-6.78-3.44-5.49 0-10.14 4.61-10.09 12.09 0 6.83 4.18 11.43 9.62 11.43 3.67 0 6.42-1.9 7.67-4.41h0.09l0.19 3.9h3.67c-0.14-1.53-0.18-3.81-0.18-5.81v-27.19zm-12.83 21.89c0-4.97 2.51-8.69 6.74-8.69 3.07 0 5.3 2.14 5.9 4.74 0.14 0.51 0.19 1.21 0.19 1.72v3.91c0 0.65-0.05 1.21-0.19 1.76-0.74 3.07-3.25 4.88-6 4.88-4.41 0-6.64-3.76-6.64-8.32zm10.46 2.9c0.09-0.34 0.12-0.7 0.12-1.22v-3.91c0-0.5-0.05-0.94-0.1-1.13q-0.02-0.04-0.02-0.08c-0.35-1.5-1.64-3.01-3.72-3.01-3.32 0-4.5 3.48-4.5 6.45 0 1.43 0.32 6.08 4.4 6.08 1.86 0 3.35-1.24 3.82-3.18z"/>
					</g>
					<g id="&lt;Group&gt;">
						<path id="&lt;Compound Path&gt;" fill-rule="evenodd" class="s4" d="m485.24 219.73c-7.4 0-12.19-4.89-12.19-12.46 0-7.81 4.8-13.26 11.68-13.26 7.19 0 10.41 5.89 10.41 11.72 0 0.78-0.07 1.42-0.12 1.84l-0.02 0.19c-0.06 0.57-0.54 1-1.12 1h-14.6c0.62 5 4.7 5.56 6.52 5.56 2.86 0 4.47-0.51 5.79-1.07q0.21-0.09 0.43-0.09 0.27 0 0.51 0.12c0.29 0.15 0.51 0.42 0.59 0.74l0.69 2.93c0.13 0.53-0.14 1.06-0.63 1.29-1.51 0.68-4.11 1.49-7.94 1.49zm3.65-16.14c-0.12-0.98-0.46-2.31-1.39-3.25q-1.13-1.15-3.1-1.16c-2.92 0-4.36 2.39-4.91 4.41z"/>
						<path id="&lt;Compound Path&gt;" fill-rule="evenodd" class="s4" d="m496.27 205.73c0 0.85-0.08 1.53-0.14 1.97l-0.02 0.18c-0.12 1.14-1.08 2-2.23 2h-13.22c0.85 2.69 3.15 3.32 5.14 3.32 2.66 0 4.14-0.47 5.35-0.98q0.42-0.18 0.87-0.18 0.53 0 1.02 0.24c0.59 0.3 1.01 0.84 1.17 1.48l0.69 2.93c0.25 1.05-0.27 2.13-1.26 2.57-1.6 0.72-4.37 1.59-8.4 1.59-3.99 0-7.36-1.32-9.75-3.82-2.33-2.43-3.56-5.81-3.56-9.76 0-3.9 1.19-7.47 3.34-10.05 2.32-2.79 5.68-4.33 9.46-4.33 7.97 0 11.54 6.45 11.54 12.84zm-22.1 1.54c0 6.78 4.14 11.34 11.07 11.34 3.58 0 6.04-0.75 7.48-1.4l-0.7-2.93c-1.53 0.66-3.3 1.17-6.22 1.17-4.1 0-7.63-2.28-7.72-7.81h15.8c0.05-0.42 0.14-1.07 0.14-1.91 0-4.14-1.95-10.6-9.29-10.6-6.56 0-10.56 5.35-10.56 12.14zm10.23-9.21c4.6 0 5.72 4.05 5.67 6.65h-11.94c0.32-2.84 2.13-6.65 6.27-6.65zm3.09 4.41c-0.18-0.51-0.44-0.99-0.79-1.35q-0.8-0.82-2.3-0.81c-1.71 0-2.71 1.05-3.29 2.16z"/>
					</g>
					<g id="&lt;Group&gt;">
						<path id="&lt;Path&gt;" class="s4" d="m515.22 219.26c-0.62 0-1.12-0.5-1.12-1.12v-12.97c0-3.66-1.38-5.52-4.09-5.52-2.33 0-3.89 1.7-4.41 3.39q-0.01 0.03-0.02 0.05c-0.13 0.37-0.21 0.94-0.21 1.53v13.52c0 0.62-0.5 1.12-1.12 1.12h-4.09c-0.62 0-1.12-0.5-1.12-1.12v-16.41c0-2.5-0.06-4.29-0.19-6-0.02-0.31 0.09-0.62 0.3-0.85 0.21-0.23 0.51-0.36 0.82-0.36h3.63c0.59 0 1.08 0.46 1.12 1.05l0.05 0.9c1.53-1.39 3.74-2.46 6.59-2.46 4.18 0 9.07 2.8 9.07 10.7v13.43c0 0.62-0.5 1.12-1.12 1.12z"/>
						<path id="&lt;Compound Path&gt;" fill-rule="evenodd" class="s4" d="m518 195.36c1.62 1.45 3.55 4.25 3.55 9.35v13.43c0 1.24-1 2.25-2.24 2.25h-4.09c-1.24 0-2.25-1.01-2.25-2.25v-12.97c0-4.4-2.07-4.4-2.96-4.4-1.75 0-2.95 1.35-3.34 2.6q-0.01 0.05-0.03 0.11c-0.08 0.19-0.15 0.62-0.15 1.14v13.52c0 1.24-1 2.25-2.24 2.25h-4.09c-1.24 0-2.25-1.01-2.25-2.25v-16.41c0-2.47-0.05-4.24-0.18-5.92-0.04-0.62 0.17-1.23 0.6-1.69 0.42-0.46 1.02-0.72 1.64-0.72h3.63c0.82 0 1.54 0.44 1.93 1.1 1.55-0.96 3.5-1.61 5.83-1.61 1.45 0 4.24 0.32 6.64 2.47zm-14.08 4h-0.09l-0.23-3.72h-3.63c0.14 1.86 0.19 3.77 0.19 6.09v16.41h4.09v-13.52c0-0.7 0.09-1.4 0.28-1.91 0.69-2.28 2.79-4.18 5.48-4.18 3.86 0 5.21 3.02 5.21 6.64v12.97h4.09v-13.43c0-7.72-4.84-9.58-7.95-9.58-3.72 0-6.32 2.1-7.44 4.23z"/>
					</g>
					<g id="&lt;Group&gt;">
						<path id="&lt;Path&gt;" class="s4" d="m533.76 219.73c-2.22 0-4.04-0.72-5.24-2.08-1.28-1.35-1.87-3.45-1.87-6.62v-11.15h-2.37c-0.62 0-1.12-0.5-1.12-1.12v-3.12c0-0.61 0.5-1.12 1.12-1.12h2.37v-4.27c0-0.51 0.34-0.95 0.83-1.08l4-1.07q0.14-0.04 0.28-0.04 0.38 0 0.69 0.23c0.27 0.22 0.44 0.54 0.44 0.89v5.34h4.73c0.62 0 1.12 0.51 1.12 1.12v3.12c0 0.62-0.5 1.12-1.12 1.12h-4.73v11.01c0 3.25 1.12 3.25 1.94 3.25 0.99 0 1.68-0.13 2.08-0.24q0.14-0.04 0.29-0.04 0.36 0 0.66 0.21c0.27 0.2 0.44 0.51 0.46 0.84l0.19 3.07c0.03 0.48-0.25 0.92-0.69 1.11-1.01 0.41-2.45 0.64-4.06 0.64z"/>
						<path id="&lt;Compound Path&gt;" fill-rule="evenodd" class="s4" d="m533.13 187.4c0.55 0.43 0.88 1.09 0.88 1.78v4.22h3.61c1.24 0 2.25 1.01 2.25 2.24v3.12c0 1.24-1.01 2.24-2.25 2.24h-3.61v9.89c0 1.41 0.24 1.9 0.32 2.01 0.02 0.03 0.07 0.12 0.5 0.12 0.91 0 1.51-0.13 1.78-0.2q0.3-0.08 0.59-0.08c0.47 0 0.93 0.14 1.31 0.42 0.55 0.39 0.89 1.01 0.93 1.69l0.19 3.06c0.06 0.96-0.5 1.85-1.39 2.21-1.15 0.48-2.7 0.73-4.48 0.73-2.51 0-4.66-0.87-6.07-2.45-1.94-2.05-2.17-5.19-2.17-7.37v-10.03h-1.24c-1.24 0-2.24-1-2.24-2.24v-3.12c0-1.23 1-2.24 2.24-2.24h1.24v-3.15c0-1.01 0.69-1.9 1.67-2.17l4-1.06q0.28-0.08 0.57-0.08c0.49 0 0.98 0.16 1.37 0.46zm-5.36 2.85v5.39h-3.49v3.12h3.49v12.27c0 2.65 0.42 4.65 1.58 5.86 0.97 1.11 2.51 1.72 4.41 1.72 1.58 0 2.84-0.24 3.63-0.56l-0.19-3.07c-0.51 0.14-1.3 0.28-2.37 0.28-2.27 0-3.07-1.58-3.07-4.37v-12.13h5.86v-3.12h-5.86v-6.46z"/>
					</g>
					<g id="&lt;Group&gt;">
						<path id="&lt;Compound Path&gt;" fill-rule="evenodd" class="s4" d="m548.41 219.78c-5.26 0-8.01-3.82-8.01-7.59 0-5.82 4.91-9.24 13.51-9.47-0.19-2.35-1.47-3.44-3.97-3.44-1.84 0-3.8 0.56-5.25 1.49q-0.28 0.18-0.61 0.18-0.18 0-0.36-0.06c-0.33-0.11-0.59-0.37-0.7-0.7l-0.93-2.69c-0.17-0.49 0.02-1.03 0.45-1.31 2.13-1.38 5.05-2.18 8-2.18 6.24 0 9.68 3.67 9.68 10.33v8.41q0 3.24 0.35 5.19c0.06 0.33-0.03 0.67-0.24 0.92-0.21 0.26-0.53 0.4-0.86 0.4h-3.72c-0.57 0-1.05-0.42-1.12-0.99l-0.06-0.59c-1.67 1.34-3.85 2.1-6.16 2.1zm5.61-12c-4.83 0.08-7.28 1.41-7.28 3.95 0 2.51 1.91 2.78 2.73 2.78 2.47 0 3.89-1.55 4.38-3 0.11-0.33 0.17-0.68 0.17-0.94z"/>
						<path id="&lt;Compound Path&gt;" fill-rule="evenodd" class="s4" d="m561.34 204.34v8.41q0 3.14 0.34 4.99c0.12 0.66-0.06 1.33-0.49 1.84-0.43 0.51-1.06 0.81-1.72 0.81h-3.72c-0.74 0-1.41-0.36-1.82-0.93-1.62 0.93-3.53 1.44-5.52 1.44-5.99 0-9.13-4.38-9.13-8.71 0-3 1.35-9.77 13.27-10.54-0.37-0.9-1.18-1.25-2.61-1.25-1.61 0-3.39 0.5-4.64 1.31q-0.56 0.36-1.22 0.36-0.37 0-0.73-0.12c-0.65-0.23-1.16-0.74-1.39-1.39l-0.93-2.7c-0.33-0.97 0.04-2.05 0.9-2.61 2.31-1.5 5.45-2.36 8.61-2.36 6.87 0 10.8 4.17 10.8 11.45zm-18.19-7.21l0.93 2.7c1.58-1.02 3.77-1.67 5.86-1.67 4.6 0 5.11 3.34 5.11 5.2v0.47q-0.1 0-0.2 0c-8.56 0-13.32 2.97-13.32 8.36 0 3.26 2.32 6.46 6.88 6.46 3.2 0 5.62-1.58 6.87-3.34h0.14l0.33 2.83h3.72c-0.28-1.53-0.37-3.44-0.37-5.39v-8.41c0-4.51-1.68-9.21-8.56-9.21-2.83 0-5.53 0.79-7.39 2zm2.47 14.6c0-4.16 4.58-5.08 8.87-5.08q0.33 0 0.66 0.01v3.91c0 0.41-0.1 0.88-0.24 1.3-0.65 1.9-2.51 3.76-5.44 3.76-2.09 0-3.85-1.25-3.85-3.9zm7.16-0.57c0.09-0.26 0.12-0.48 0.12-0.59v-1.62q-5.03 0.32-5.04 2.78c0 0.77 0.18 1.66 1.61 1.66 1.88 0 2.95-1.16 3.31-2.23z"/>
					</g>
					<g id="&lt;Group&gt;">
						<path id="&lt;Path&gt;" class="s4" d="m566.76 219.26c-0.61 0-1.12-0.5-1.12-1.12v-33c0-0.62 0.51-1.12 1.12-1.12h4.1c0.62 0 1.12 0.5 1.12 1.12v33c0 0.62-0.5 1.12-1.12 1.12z"/>
						<path id="&lt;Compound Path&gt;" fill-rule="evenodd" class="s4" d="m573.1 185.14v33c0 1.24-1.01 2.25-2.24 2.25h-4.1c-1.23 0-2.24-1.01-2.24-2.25v-33c0-1.24 1.01-2.24 2.24-2.24h4.1c1.23 0 2.24 1 2.24 2.24zm-6.34 0v33h4.1v-33z"/>
					</g>
					<g id="&lt;Group&gt;">
						<path id="&lt;Compound Path&gt;" fill-rule="evenodd" class="s4" d="m589.73 228.47c-0.62 0-1.13-0.5-1.13-1.12v-24.36c0-2.81-0.08-5.06-0.18-7.3-0.01-0.3 0.1-0.6 0.31-0.82 0.21-0.22 0.5-0.35 0.81-0.35h3.67c0.6 0 1.09 0.47 1.12 1.07l0.05 1.04c1.86-1.72 4.27-2.62 7.11-2.62 6.17 0 10.65 5.28 10.65 12.56 0 9.07-5.89 13.21-11.35 13.21-2.26 0-4.32-0.68-5.9-1.88v9.45c0 0.62-0.5 1.12-1.12 1.12zm5.33-18.06c0.63 2.35 2.65 3.91 5.04 3.91 4.21 0 5.71-3.91 5.71-7.57 0-3.6-1.73-7.24-5.57-7.24-2.36 0-4.46 1.74-5.1 4.22-0.11 0.4-0.24 0.95-0.24 1.4v3.86c0 0.49 0.07 0.97 0.16 1.42z"/>
						<path id="&lt;Compound Path&gt;" fill-rule="evenodd" class="s4" d="m613.26 206.57c0 4.35-1.29 8.02-3.74 10.61-2.25 2.4-5.36 3.72-8.73 3.72-1.73 0-3.35-0.36-4.78-1.02v7.47c0 1.24-1 2.24-2.24 2.24h-4.04c-1.24 0-2.25-1-2.25-2.24v-24.36c0-2.79-0.08-5.02-0.18-7.25-0.03-0.61 0.2-1.2 0.62-1.65 0.42-0.44 1.01-0.69 1.62-0.69h3.67c0.86 0 1.61 0.48 1.98 1.19 1.79-1.12 3.91-1.7 6.3-1.7 6.82 0 11.77 5.75 11.77 13.68zm-19.77-7.07h-0.09l-0.19-3.86h-3.67c0.09 2.14 0.19 4.47 0.19 7.35v24.36h4.04v-12.23h0.09c1.35 2.23 3.95 3.53 6.93 3.53 5.3 0 10.23-3.99 10.23-12.08 0-6.83-4.09-11.44-9.53-11.44-3.68 0-6.33 1.63-8 4.37zm0.47 11.16c-0.1-0.51-0.19-1.07-0.19-1.67v-3.86c0-0.56 0.14-1.16 0.28-1.68 0.79-3.06 3.39-5.06 6.18-5.06 4.32 0 6.7 3.86 6.7 8.36 0 5.16-2.52 8.7-6.84 8.7-2.93 0-5.39-1.96-6.13-4.79zm6.13 2.54c4.26 0 4.59-4.93 4.59-6.45 0-2.82-1.16-6.12-4.45-6.12-1.85 0-3.49 1.39-4.01 3.38q0 0.02-0.01 0.03c-0.05 0.19-0.2 0.74-0.2 1.09v3.86q0.02 0.57 0.14 1.18c0.51 1.82 2.08 3.03 3.94 3.03z"/>
					</g>
					<g id="&lt;Group&gt;">
						<path id="&lt;Path&gt;" class="s4" d="m617.24 219.26c-0.62 0-1.12-0.5-1.12-1.12v-15.48c0-2.9-0.06-5.04-0.18-6.94-0.02-0.31 0.09-0.61 0.3-0.84 0.21-0.23 0.51-0.36 0.82-0.36h3.58c0.6 0 1.1 0.48 1.12 1.09l0.02 0.85c1.42-1.54 3.34-2.45 5.41-2.45 0.53 0 0.94 0.05 1.43 0.17 0.5 0.13 0.85 0.58 0.85 1.09v3.86c0 0.34-0.15 0.66-0.42 0.88q-0.31 0.24-0.7 0.24-0.12 0-0.24-0.02c-0.36-0.08-0.7-0.12-1.15-0.12-2.22 0-3.9 1.66-4.38 4.33-0.08 0.49-0.17 1.09-0.17 1.71v11.99c0 0.62-0.5 1.12-1.12 1.12z"/>
						<path id="&lt;Compound Path&gt;" fill-rule="evenodd" class="s4" d="m628.9 193.1c1 0.25 1.7 1.14 1.7 2.17v3.86c0 0.68-0.31 1.33-0.84 1.75-0.41 0.32-0.9 0.5-1.41 0.5q-0.24 0-0.48-0.06c-0.21-0.04-0.46-0.08-0.91-0.08-2.45 0-3.13 2.57-3.28 3.39-0.08 0.48-0.15 0.99-0.15 1.52v11.99c0 1.24-1 2.25-2.24 2.25h-4.05c-1.24 0-2.24-1.01-2.24-2.25v-15.48c0-2.87-0.06-4.99-0.18-6.87-0.04-0.62 0.17-1.22 0.6-1.68 0.42-0.45 1.02-0.71 1.64-0.71h3.58c0.76 0 1.44 0.38 1.84 0.97 1.38-0.95 3-1.48 4.71-1.48 0.62 0 1.13 0.06 1.71 0.21zm-7.94 6.96h-0.18l-0.14-4.42h-3.58c0.14 2.1 0.18 4.37 0.18 7.02v15.48h4.05v-11.99c0-0.7 0.09-1.35 0.18-1.91 0.56-3.06 2.61-5.25 5.49-5.25 0.56 0 0.97 0.05 1.39 0.14v-3.86c-0.37-0.09-0.69-0.14-1.16-0.14-2.74 0-5.21 1.91-6.23 4.93z"/>
					</g>
					<g id="&lt;Group&gt;">
						<path id="&lt;Compound Path&gt;" fill-rule="evenodd" class="s4" d="m638.39 219.78c-5.25 0-8-3.82-8-7.59 0-5.82 4.91-9.24 13.5-9.47-0.19-2.35-1.46-3.44-3.96-3.44-1.84 0-3.81 0.56-5.25 1.49q-0.28 0.18-0.61 0.18-0.19 0-0.37-0.06c-0.32-0.11-0.58-0.37-0.69-0.7l-0.93-2.69c-0.17-0.49 0.02-1.03 0.45-1.31 2.13-1.38 5.05-2.18 8-2.18 6.24 0 9.68 3.67 9.68 10.33v8.41q0 3.24 0.35 5.19c0.06 0.33-0.03 0.67-0.24 0.92-0.22 0.26-0.53 0.4-0.86 0.4h-3.72c-0.57 0-1.05-0.42-1.12-0.99l-0.07-0.59c-1.66 1.34-3.84 2.1-6.16 2.1zm5.62-12c-4.83 0.08-7.28 1.41-7.28 3.95 0 2.51 1.91 2.78 2.73 2.78 2.47 0 3.88-1.55 4.38-3 0.11-0.33 0.17-0.68 0.17-0.94z"/>
						<path id="&lt;Compound Path&gt;" fill-rule="evenodd" class="s4" d="m651.33 204.34v8.41q0 3.14 0.33 4.99c0.12 0.66-0.06 1.33-0.48 1.84-0.43 0.51-1.06 0.81-1.72 0.81h-3.72c-0.74 0-1.41-0.36-1.82-0.93-1.62 0.93-3.53 1.44-5.53 1.44-5.99 0-9.12-4.38-9.12-8.71 0-3 1.35-9.77 13.27-10.54-0.38-0.9-1.18-1.25-2.61-1.25-1.61 0-3.39 0.5-4.64 1.31q-0.57 0.36-1.22 0.36-0.37 0-0.73-0.12c-0.65-0.23-1.17-0.74-1.39-1.39l-0.93-2.7c-0.34-0.97 0.03-2.05 0.9-2.61 2.31-1.5 5.44-2.36 8.61-2.36 6.86 0 10.8 4.17 10.8 11.45zm-18.19-7.21l0.93 2.7c1.58-1.02 3.76-1.67 5.86-1.67 4.6 0 5.11 3.34 5.11 5.2v0.47q-0.1 0-0.2 0c-8.57 0-13.33 2.97-13.33 8.36 0 3.26 2.33 6.46 6.88 6.46 3.21 0 5.63-1.58 6.88-3.34h0.14l0.33 2.83h3.72c-0.28-1.53-0.38-3.44-0.38-5.39v-8.41c0-4.51-1.67-9.21-8.55-9.21-2.84 0-5.53 0.79-7.39 2zm2.46 14.6c0-4.16 4.59-5.08 8.87-5.08q0.33 0 0.66 0.01v3.91c0 0.41-0.09 0.88-0.23 1.3-0.65 1.9-2.51 3.76-5.44 3.76-2.09 0-3.86-1.25-3.86-3.9zm7.17-0.57c0.09-0.26 0.12-0.48 0.12-0.59v-1.62q-5.03 0.32-5.04 2.78c0 0.77 0.18 1.66 1.61 1.66 1.88 0 2.95-1.16 3.31-2.23z"/>
					</g>
					<g id="&lt;Group&gt;">
						<path id="&lt;Path&gt;" class="s4" d="m666.33 219.73c-7.37 0-12.33-5.07-12.33-12.6 0-7.7 5.43-13.07 13.21-13.07 2.67 0 4.99 0.69 6.17 1.28 0.49 0.24 0.73 0.8 0.58 1.32l-0.93 3.16c-0.1 0.33-0.34 0.6-0.66 0.72q-0.2 0.09-0.42 0.08-0.29 0-0.55-0.14c-0.74-0.42-2.06-0.92-4.19-0.92-5.04 0-6.83 3.97-6.83 7.38 0 4.36 2.69 7.29 6.69 7.29 2.08 0 3.45-0.53 4.57-1.02q0.22-0.09 0.45-0.09 0.26 0 0.51 0.12c0.3 0.15 0.51 0.42 0.59 0.75l0.69 3.07c0.12 0.49-0.12 1-0.57 1.24-1.27 0.66-3.85 1.43-6.98 1.43z"/>
						<path id="&lt;Compound Path&gt;" fill-rule="evenodd" class="s4" d="m673.89 194.34c0.97 0.48 1.45 1.59 1.14 2.64l-0.92 3.16c-0.2 0.65-0.68 1.19-1.32 1.44q-0.41 0.17-0.84 0.17-0.59 0-1.11-0.3c-0.62-0.35-1.75-0.77-3.63-0.77-4.2 0-5.7 3.23-5.7 6.26 0 3.75 2.18 6.17 5.56 6.17 1.86 0 3.05-0.46 4.12-0.93q0.44-0.19 0.9-0.19 0.53 0 1.01 0.24c0.6 0.3 1.03 0.86 1.18 1.51l0.7 3.07c0.22 0.99-0.25 2.01-1.15 2.49-1.44 0.75-4.17 1.55-7.5 1.55-3.94 0-7.32-1.33-9.76-3.84-2.41-2.49-3.69-5.9-3.69-9.88 0-8.36 5.89-14.19 14.33-14.19 2.86 0 5.32 0.72 6.68 1.4zm-18.76 12.79c0 6.88 4.41 11.48 11.2 11.48 3.02 0 5.39-0.75 6.46-1.3l-0.7-3.07c-1.16 0.51-2.69 1.11-5.02 1.11-4.46 0-7.81-3.2-7.81-8.41 0-4.69 2.79-8.51 7.95-8.51 2.23 0 3.77 0.52 4.74 1.07l0.93-3.16c-1.11-0.56-3.25-1.16-5.67-1.16-7.34 0-12.08 5.02-12.08 11.95z"/>
					</g>
					<g id="&lt;Group&gt;">
						<path id="&lt;Path&gt;" class="s4" d="m686.17 219.73c-2.22 0-4.03-0.72-5.24-2.08-1.28-1.35-1.87-3.45-1.87-6.62v-11.15h-2.37c-0.62 0-1.12-0.5-1.12-1.12v-3.12c0-0.61 0.5-1.12 1.12-1.12h2.37v-4.27c0-0.51 0.34-0.95 0.83-1.08l4-1.07q0.14-0.04 0.29-0.04 0.37 0 0.68 0.23c0.28 0.22 0.44 0.54 0.44 0.89v5.34h4.73c0.62 0 1.12 0.51 1.12 1.12v3.12c0 0.62-0.5 1.12-1.12 1.12h-4.73v11.01c0 3.25 1.12 3.25 1.94 3.25 0.99 0 1.68-0.13 2.08-0.24q0.15-0.04 0.29-0.04 0.36 0 0.66 0.21c0.27 0.2 0.44 0.51 0.46 0.84l0.19 3.07c0.03 0.48-0.25 0.92-0.69 1.11-1.01 0.41-2.45 0.64-4.06 0.64z"/>
						<path id="&lt;Compound Path&gt;" fill-rule="evenodd" class="s4" d="m685.54 187.4c0.56 0.43 0.88 1.09 0.88 1.78v4.22h3.61c1.24 0 2.25 1.01 2.25 2.24v3.12c0 1.24-1.01 2.24-2.25 2.24h-3.61v9.89c0 1.41 0.24 1.9 0.32 2.01 0.02 0.03 0.07 0.12 0.5 0.12 0.92 0 1.51-0.13 1.78-0.2q0.3-0.08 0.59-0.08c0.47 0 0.93 0.14 1.31 0.42 0.55 0.39 0.89 1.01 0.93 1.69l0.19 3.06c0.06 0.96-0.5 1.85-1.39 2.21-1.15 0.48-2.7 0.73-4.48 0.73-2.51 0-4.66-0.87-6.07-2.45-1.94-2.05-2.17-5.19-2.17-7.37v-10.03h-1.24c-1.24 0-2.24-1-2.24-2.24v-3.12c0-1.23 1-2.24 2.24-2.24h1.24v-3.15c0-1.01 0.69-1.9 1.67-2.17l4-1.06q0.28-0.08 0.58-0.08c0.48 0 0.97 0.16 1.36 0.46zm-5.36 2.85v5.39h-3.49v3.12h3.49v12.27c0 2.65 0.42 4.65 1.58 5.86 0.98 1.11 2.51 1.72 4.41 1.72 1.59 0 2.84-0.24 3.63-0.56l-0.19-3.07c-0.51 0.14-1.3 0.28-2.37 0.28-2.27 0-3.06-1.58-3.06-4.37v-12.13h5.85v-3.12h-5.85v-6.46z"/>
					</g>
					<g id="&lt;Group&gt;">
						<path id="&lt;Compound Path&gt;" class="s4" d="m695.7 219.26c-0.62 0-1.12-0.5-1.12-1.12v-22.5c0-0.61 0.5-1.12 1.12-1.12h4.09c0.62 0 1.13 0.51 1.13 1.12v22.5c0 0.62-0.51 1.12-1.13 1.12zm1.96-26.3c-2.01 0-3.59-1.6-3.59-3.64 0-2.09 1.58-3.68 3.68-3.68 2.1 0 3.62 1.54 3.63 3.67 0.03 0.97-0.31 1.87-0.96 2.54-0.69 0.71-1.67 1.11-2.76 1.11z"/>
						<path id="&lt;Compound Path&gt;" fill-rule="evenodd" class="s4" d="m702.5 189.29c0.03 1.27-0.42 2.46-1.28 3.34q-0.46 0.48-1.03 0.81c1.05 0.18 1.85 1.1 1.85 2.2v22.5c0 1.24-1.01 2.25-2.25 2.25h-4.09c-1.24 0-2.24-1.01-2.24-2.25v-22.5c0-1.09 0.78-2 1.81-2.2-1.4-0.81-2.32-2.34-2.32-4.12 0-2.69 2.11-4.8 4.8-4.8 2.7 0 4.73 2.05 4.75 4.77zm-6.8 6.35v22.5h4.09v-22.5zm4.56-6.34c0-1.4-1.13-2.53-2.53-2.53-1.4 0-2.54 1.13-2.54 2.53 0 1.4 1.14 2.53 2.54 2.53 1.4 0 2.53-1.13 2.53-2.53z"/>
					</g>
					<g id="&lt;Group&gt;">
						<path id="&lt;Path&gt;" class="s4" d="m717.22 219.73c-7.37 0-12.32-5.07-12.32-12.6 0-7.7 5.43-13.07 13.21-13.07 2.66 0 4.99 0.69 6.17 1.28 0.49 0.24 0.73 0.8 0.57 1.32l-0.93 3.16c-0.09 0.33-0.33 0.6-0.65 0.72q-0.21 0.09-0.42 0.08-0.3 0-0.56-0.14c-0.73-0.42-2.06-0.92-4.18-0.92-5.04 0-6.83 3.97-6.83 7.38 0 4.36 2.69 7.29 6.69 7.29 2.07 0 3.44-0.53 4.57-1.02q0.21-0.09 0.45-0.09 0.26 0 0.5 0.12c0.3 0.15 0.52 0.42 0.59 0.75l0.7 3.07c0.11 0.49-0.12 1-0.58 1.24-1.26 0.66-3.85 1.43-6.98 1.43z"/>
						<path id="&lt;Compound Path&gt;" fill-rule="evenodd" class="s4" d="m724.78 194.34c0.97 0.48 1.46 1.59 1.15 2.64l-0.93 3.16c-0.19 0.65-0.68 1.19-1.31 1.44q-0.41 0.17-0.84 0.17-0.59 0-1.12-0.3c-0.61-0.35-1.74-0.77-3.62-0.77-4.21 0-5.71 3.23-5.71 6.26 0 3.75 2.19 6.17 5.57 6.17 1.86 0 3.05-0.46 4.11-0.93q0.44-0.19 0.91-0.19 0.52 0 1.01 0.24c0.59 0.3 1.03 0.86 1.18 1.51l0.69 3.07c0.23 0.99-0.24 2.01-1.15 2.49-1.44 0.75-4.17 1.55-7.5 1.55-3.94 0-7.31-1.33-9.75-3.84-2.42-2.49-3.69-5.9-3.69-9.88 0-8.36 5.89-14.19 14.33-14.19 2.86 0 5.32 0.72 6.67 1.4zm-18.76 12.79c0 6.88 4.42 11.48 11.2 11.48 3.03 0 5.4-0.75 6.46-1.3l-0.69-3.07c-1.16 0.51-2.7 1.11-5.02 1.11-4.46 0-7.81-3.2-7.81-8.41 0-4.69 2.79-8.51 7.95-8.51 2.23 0 3.76 0.52 4.74 1.07l0.93-3.16c-1.12-0.56-3.26-1.16-5.67-1.16-7.35 0-12.09 5.02-12.09 11.95z"/>
					</g>
					<g id="&lt;Group&gt;">
						<path id="&lt;Compound Path&gt;" fill-rule="evenodd" class="s4" d="m738.7 219.73c-7.4 0-12.19-4.89-12.19-12.46 0-7.81 4.8-13.26 11.68-13.26 7.19 0 10.42 5.89 10.42 11.72 0 0.78-0.08 1.42-0.13 1.84l-0.02 0.19c-0.06 0.57-0.54 1-1.12 1h-14.6c0.62 5 4.7 5.56 6.52 5.56 2.86 0 4.47-0.51 5.79-1.07q0.21-0.09 0.43-0.09 0.27 0 0.51 0.12c0.3 0.15 0.51 0.42 0.59 0.74l0.69 2.93c0.13 0.53-0.14 1.06-0.63 1.29-1.5 0.68-4.11 1.49-7.94 1.49zm3.65-16.14c-0.12-0.98-0.46-2.31-1.39-3.25q-1.13-1.15-3.1-1.16c-2.92 0-4.36 2.39-4.91 4.41z"/>
						<path id="&lt;Compound Path&gt;" fill-rule="evenodd" class="s4" d="m749.73 205.73c0 0.85-0.08 1.53-0.13 1.97l-0.03 0.18c-0.12 1.14-1.08 2-2.23 2h-13.22c0.85 2.69 3.15 3.32 5.14 3.32 2.66 0 4.14-0.47 5.35-0.98q0.42-0.18 0.87-0.18 0.53 0 1.02 0.24c0.59 0.3 1.01 0.84 1.17 1.48l0.7 2.93c0.24 1.05-0.28 2.13-1.26 2.57-1.61 0.72-4.38 1.59-8.41 1.59-3.99 0-7.36-1.32-9.75-3.82-2.33-2.43-3.56-5.81-3.56-9.76 0-3.9 1.19-7.47 3.34-10.05 2.32-2.79 5.68-4.33 9.46-4.33 7.97 0 11.54 6.45 11.54 12.84zm-22.09 1.54c0 6.78 4.13 11.34 11.06 11.34 3.58 0 6.04-0.75 7.48-1.4l-0.7-2.93c-1.53 0.66-3.3 1.17-6.22 1.17-4.09 0-7.63-2.28-7.72-7.81h15.8c0.05-0.42 0.14-1.07 0.14-1.91 0-4.14-1.95-10.6-9.29-10.6-6.56 0-10.55 5.35-10.55 12.14zm10.22-9.21c4.6 0 5.72 4.05 5.67 6.65h-11.94c0.32-2.84 2.13-6.65 6.27-6.65zm3.09 4.41c-0.18-0.51-0.43-0.99-0.79-1.35q-0.8-0.82-2.3-0.81c-1.71 0-2.71 1.05-3.28 2.16z"/>
					</g>
					<g id="&lt;Group&gt;">
						<path id="&lt;Path&gt;" class="s4" d="m758.36 219.73c-2.55 0-5.07-0.62-6.89-1.69-0.46-0.27-0.66-0.82-0.5-1.32l1.02-3.11c0.11-0.33 0.37-0.59 0.7-0.71q0.18-0.06 0.37-0.06 0.33 0 0.62 0.18c1.06 0.7 3.01 1.44 4.77 1.44 0.98 0 3.25-0.21 3.25-2.22 0-1.03-0.25-1.91-3.45-3.09-5.52-1.96-6.68-5.12-6.68-7.42 0-4.47 3.73-7.72 8.88-7.72 2.22 0 4.44 0.57 6.1 1.55 0.46 0.27 0.67 0.83 0.49 1.33l-1.02 2.98c-0.11 0.32-0.36 0.58-0.69 0.69q-0.18 0.07-0.37 0.06-0.32 0-0.6-0.17c-0.54-0.34-2-1.13-4-1.13-1.61 0-2.64 0.77-2.64 1.95 0 0.99 0.49 1.6 3.55 2.76 3.08 1.18 6.63 3.13 6.63 7.84 0 4.77-3.75 7.86-9.54 7.86z"/>
						<path id="&lt;Compound Path&gt;" fill-rule="evenodd" class="s4" d="m767.13 194.6c0.91 0.54 1.32 1.65 0.98 2.66l-1.03 2.97c-0.22 0.65-0.73 1.16-1.37 1.39q-0.37 0.13-0.75 0.13-0.64 0-1.2-0.35c-0.45-0.29-1.69-0.95-3.4-0.95-0.26 0-1.52 0.04-1.52 0.82 0 0.22 0 0.27 0.22 0.45 0.53 0.44 1.67 0.91 2.61 1.26 3.15 1.21 7.35 3.43 7.35 8.89 0 5.37-4.29 8.98-10.66 8.98-2.75 0-5.47-0.67-7.46-1.84-0.91-0.54-1.32-1.63-0.99-2.64l1.02-3.11c0.22-0.66 0.73-1.19 1.39-1.42q0.36-0.13 0.74-0.12 0.66 0 1.23 0.36c0.93 0.61 2.63 1.26 4.16 1.26 0.97 0 2.13-0.19 2.13-1.1 0-0.48 0-1.03-2.71-2.03-6.46-2.31-7.42-6.3-7.42-8.48 0-5.12 4.2-8.84 10-8.84 2.41 0 4.85 0.62 6.68 1.71zm-14.44 7.13c0 2.7 1.9 4.93 5.95 6.37 3.02 1.12 4.18 2.19 4.18 4.14 0 1.86-1.39 3.35-4.37 3.35-2.04 0-4.18-0.84-5.39-1.63l-1.02 3.11c1.58 0.93 3.86 1.54 6.32 1.54 5.35 0 8.41-2.79 8.41-6.74 0-3.35-2-5.3-5.9-6.79-2.93-1.11-4.28-1.95-4.28-3.81 0-1.67 1.35-3.07 3.77-3.07 2.09 0 3.72 0.75 4.6 1.3l1.02-2.97c-1.25-0.75-3.25-1.4-5.53-1.4-4.83 0-7.76 2.98-7.76 6.6z"/>
					</g>
					<g id="&lt;Group&gt;">
						<path id="&lt;Path&gt;" class="s4" d="m790.94 219.73c-2.22 0-4.04-0.72-5.24-2.08-1.28-1.35-1.88-3.45-1.88-6.62v-11.15h-2.36c-0.62 0-1.12-0.5-1.12-1.12v-3.12c0-0.61 0.5-1.12 1.12-1.12h2.36v-4.27c0-0.51 0.35-0.95 0.84-1.08l3.99-1.07q0.15-0.04 0.29-0.04 0.38 0 0.69 0.23c0.27 0.22 0.44 0.54 0.44 0.89v5.34h4.73c0.62 0 1.12 0.51 1.12 1.12v3.12c0 0.62-0.5 1.12-1.12 1.12h-4.73v11.01c0 3.25 1.12 3.25 1.94 3.25 0.99 0 1.68-0.13 2.08-0.24q0.14-0.04 0.29-0.04 0.36 0 0.66 0.21c0.27 0.2 0.44 0.51 0.46 0.84l0.19 3.07c0.03 0.48-0.25 0.92-0.69 1.11-1.01 0.41-2.45 0.64-4.06 0.64z"/>
						<path id="&lt;Compound Path&gt;" fill-rule="evenodd" class="s4" d="m790.31 187.4c0.55 0.43 0.88 1.09 0.88 1.78v4.22h3.61c1.24 0 2.25 1.01 2.25 2.24v3.12c0 1.24-1.01 2.24-2.25 2.24h-3.61v9.89c0 1.41 0.24 1.9 0.32 2.01 0.02 0.03 0.07 0.12 0.5 0.12 0.91 0 1.51-0.13 1.78-0.2q0.29-0.08 0.59-0.08c0.47 0 0.92 0.14 1.31 0.42 0.55 0.39 0.89 1.01 0.93 1.69l0.19 3.06c0.06 0.96-0.5 1.85-1.39 2.21-1.15 0.48-2.7 0.73-4.48 0.73-2.51 0-4.66-0.87-6.07-2.45-1.94-2.05-2.17-5.19-2.17-7.37v-10.03h-1.24c-1.24 0-2.24-1-2.24-2.24v-3.12c0-1.23 1-2.24 2.24-2.24h1.24v-3.15c0-1.01 0.69-1.9 1.67-2.17l3.99-1.06q0.29-0.08 0.58-0.08c0.49 0 0.97 0.16 1.37 0.46zm-5.36 2.85v5.39h-3.49v3.12h3.49v12.27c0 2.65 0.41 4.65 1.58 5.86 0.97 1.11 2.51 1.72 4.41 1.72 1.58 0 2.84-0.24 3.63-0.56l-0.19-3.07c-0.51 0.14-1.3 0.28-2.37 0.28-2.28 0-3.07-1.58-3.07-4.37v-12.13h5.86v-3.12h-5.86v-6.46z"/>
					</g>
					<g id="&lt;Group&gt;">
						<path id="&lt;Path&gt;" class="s4" d="m808.09 219.78c-2.67 0-8.88-1.07-8.88-10.98v-13.16c0-0.61 0.5-1.12 1.12-1.12h4.09c0.62 0 1.12 0.51 1.12 1.12v12.46c0 5.35 2.09 6.04 3.9 6.04 2.3 0 3.78-1.63 4.36-3.02 0.18-0.47 0.28-1.09 0.28-1.67v-13.81c0-0.61 0.51-1.12 1.13-1.12h4.09c0.62 0 1.12 0.51 1.12 1.12v16.37c0 2.55 0.06 4.47 0.18 6.04 0.03 0.32-0.08 0.62-0.29 0.85-0.22 0.23-0.51 0.36-0.83 0.36h-3.62c-0.59 0-1.08-0.46-1.12-1.05l-0.06-0.95c-1.38 1.26-3.52 2.52-6.59 2.52z"/>
						<path id="&lt;Compound Path&gt;" fill-rule="evenodd" class="s4" d="m821.54 195.64v16.37c0 2.52 0.06 4.41 0.18 5.96 0.05 0.62-0.16 1.24-0.59 1.7-0.42 0.46-1.02 0.72-1.65 0.72h-3.62c-0.83 0-1.56-0.45-1.95-1.13-1.7 1.06-3.7 1.64-5.82 1.64-2.7 0-5.04-0.9-6.78-2.61-2.14-2.11-3.22-5.3-3.22-9.49v-13.16c0-1.23 1-2.24 2.24-2.24h4.09c1.24 0 2.25 1.01 2.25 2.24v12.46c0 4.92 1.8 4.92 2.77 4.92 1.85 0 2.94-1.44 3.31-2.31 0.13-0.36 0.21-0.82 0.21-1.26v-13.81c0-1.23 1.01-2.24 2.25-2.24h4.09c1.24 0 2.24 1.01 2.24 2.24zm-6.33 0v13.81c0 0.74-0.14 1.49-0.38 2.09-0.74 1.81-2.65 3.72-5.39 3.72-3.72 0-5.02-2.88-5.02-7.16v-12.46h-4.09v13.16c0 7.9 4.23 9.85 7.76 9.85 4 0 6.37-2.37 7.44-4.18h0.09l0.24 3.67h3.62q-0.19-2.65-0.18-6.13v-16.37z"/>
					</g>
					<g id="&lt;Group&gt;">
						<path id="&lt;Path&gt;" class="s4" d="m827.15 219.26c-0.62 0-1.12-0.5-1.12-1.12v-15.48c0-2.9-0.06-5.04-0.18-6.94-0.02-0.31 0.08-0.61 0.3-0.84 0.21-0.23 0.5-0.36 0.82-0.36h3.57c0.61 0 1.11 0.48 1.13 1.09l0.02 0.85c1.42-1.54 3.33-2.45 5.41-2.45 0.53 0 0.94 0.05 1.43 0.17 0.5 0.13 0.85 0.58 0.85 1.09v3.86c0 0.34-0.15 0.66-0.42 0.88q-0.31 0.24-0.7 0.24-0.12 0-0.24-0.02c-0.36-0.08-0.7-0.12-1.15-0.12-2.22 0-3.9 1.66-4.39 4.33-0.08 0.49-0.16 1.09-0.16 1.71v11.99c0 0.62-0.5 1.12-1.12 1.12z"/>
						<path id="&lt;Compound Path&gt;" fill-rule="evenodd" class="s4" d="m838.8 193.1c1 0.25 1.7 1.14 1.7 2.17v3.86c0 0.68-0.3 1.33-0.84 1.75-0.4 0.32-0.89 0.5-1.4 0.5q-0.24 0-0.49-0.06c-0.2-0.04-0.45-0.08-0.9-0.08-2.45 0-3.13 2.57-3.28 3.39-0.08 0.48-0.15 0.99-0.15 1.52v11.99c0 1.24-1.01 2.25-2.24 2.25h-4.05c-1.24 0-2.24-1.01-2.24-2.25v-15.48c0-2.87-0.06-4.99-0.18-6.87-0.05-0.62 0.17-1.22 0.6-1.68 0.42-0.45 1.01-0.71 1.64-0.71h3.57c0.77 0 1.45 0.38 1.85 0.97 1.38-0.95 2.99-1.48 4.71-1.48 0.62 0 1.13 0.06 1.7 0.21zm-7.93 6.96h-0.19l-0.14-4.42h-3.57c0.13 2.1 0.18 4.37 0.18 7.02v15.48h4.05v-11.99c0-0.7 0.09-1.35 0.18-1.91 0.56-3.06 2.6-5.25 5.49-5.25 0.55 0 0.97 0.05 1.39 0.14v-3.86c-0.37-0.09-0.7-0.14-1.16-0.14-2.74 0-5.21 1.91-6.23 4.93z"/>
					</g>
					<g id="&lt;Group&gt;">
						<path id="&lt;Path&gt;" class="s4" d="m858.67 219.26c-0.62 0-1.13-0.5-1.13-1.12v-12.97c0-3.66-1.37-5.52-4.08-5.52-2.33 0-3.9 1.7-4.41 3.39q-0.01 0.03-0.02 0.05c-0.13 0.37-0.21 0.94-0.21 1.53v13.52c0 0.62-0.5 1.12-1.12 1.12h-4.09c-0.62 0-1.13-0.5-1.13-1.12v-16.41c0-2.5-0.05-4.29-0.18-6-0.02-0.31 0.08-0.62 0.3-0.85 0.21-0.23 0.51-0.36 0.82-0.36h3.63c0.59 0 1.08 0.46 1.12 1.05l0.05 0.9c1.53-1.39 3.74-2.46 6.59-2.46 4.18 0 9.07 2.8 9.07 10.7v13.43c0 0.62-0.5 1.12-1.12 1.12z"/>
						<path id="&lt;Compound Path&gt;" fill-rule="evenodd" class="s4" d="m861.45 195.36c1.62 1.45 3.55 4.25 3.55 9.35v13.43c0 1.24-1 2.25-2.24 2.25h-4.09c-1.24 0-2.25-1.01-2.25-2.25v-12.97c0-4.4-2.07-4.4-2.96-4.4-1.75 0-2.96 1.35-3.34 2.6q-0.02 0.05-0.04 0.11c-0.07 0.19-0.14 0.62-0.14 1.14v13.52c0 1.24-1 2.25-2.24 2.25h-4.09c-1.24 0-2.25-1.01-2.25-2.25v-16.41c0-2.47-0.05-4.24-0.18-5.92-0.04-0.62 0.17-1.23 0.59-1.69 0.43-0.46 1.03-0.72 1.65-0.72h3.63c0.81 0 1.53 0.44 1.93 1.1 1.54-0.96 3.49-1.61 5.83-1.61 1.45 0 4.24 0.32 6.64 2.47zm-14.08 4h-0.09l-0.23-3.72h-3.63c0.14 1.86 0.19 3.77 0.19 6.09v16.41h4.09v-13.52c0-0.7 0.09-1.4 0.27-1.91 0.7-2.28 2.79-4.18 5.49-4.18 3.86 0 5.21 3.02 5.21 6.64v12.97h4.09v-13.43c0-7.72-4.84-9.58-7.95-9.58-3.72 0-6.32 2.1-7.44 4.23z"/>
					</g>
					<g id="&lt;Group&gt;">
						<path id="&lt;Path&gt;" class="s4" d="m295.6 278.57c-0.49 0-0.92-0.32-1.07-0.78l-3.44-10.74q-0.53-1.67-0.98-3.25-0.51 1.74-1.02 3.3l-3.63 10.71c-0.16 0.45-0.59 0.76-1.07 0.76h-3.72c-0.49 0-0.93-0.33-1.07-0.8l-6.79-22.5c-0.1-0.34-0.03-0.7 0.18-0.99 0.21-0.28 0.54-0.45 0.9-0.45h4.18c0.51 0 0.96 0.34 1.09 0.84l2.99 11.51q0.39 1.47 0.74 2.88 0.44-1.49 0.9-2.96l3.67-11.49c0.15-0.47 0.58-0.78 1.07-0.78h3.44c0.49 0 0.93 0.32 1.07 0.79l3.49 11.25q0.5 1.61 0.9 3.05 0.39-1.52 0.8-2.98l3.21-11.3c0.14-0.48 0.58-0.81 1.08-0.81h4.05c0.35 0 0.69 0.17 0.9 0.46 0.21 0.29 0.27 0.66 0.16 1l-7.25 22.5c-0.15 0.46-0.58 0.78-1.07 0.78z"/>
						<path id="&lt;Compound Path&gt;" fill-rule="evenodd" class="s4" d="m308.81 254.95q0 0.4-0.13 0.76l-7.23 22.43c-0.3 0.92-1.16 1.55-2.14 1.55h-3.71c-0.98 0-1.84-0.63-2.14-1.56l-3.37-10.5-3.57 10.54c-0.31 0.91-1.17 1.52-2.13 1.52h-3.72c-0.98 0-1.86-0.65-2.14-1.59l-6.79-22.5c-0.21-0.68-0.08-1.42 0.35-1.99 0.42-0.57 1.09-0.9 1.8-0.9h4.18c1.02 0 1.92 0.69 2.17 1.67l2.74 10.54 3.41-10.65c0.3-0.93 1.16-1.56 2.14-1.56h3.44c0.98 0 1.85 0.64 2.14 1.57l3.27 10.55 2.98-10.49c0.28-0.97 1.16-1.63 2.16-1.63h4.05c1.24 0 2.24 1 2.24 2.24zm-6.29 0l-3.21 11.29c-0.74 2.65-1.34 5.02-1.72 7.3h-0.13c-0.52-2.28-1.17-4.65-2-7.34l-3.49-11.25h-3.44l-3.67 11.48c-0.75 2.42-1.49 4.83-2 7.11h-0.14c-0.42-2.32-1.02-4.65-1.67-7.16l-2.98-11.43h-4.18l6.78 22.5h3.72l3.63-10.69c0.79-2.42 1.49-4.75 2.04-7.44h0.1c0.56 2.65 1.21 4.88 2 7.39l3.44 10.74h3.71l7.26-22.5zm4.04 0m0 2.24z"/>
					</g>
					<g id="&lt;Group&gt;">
						<path id="&lt;Compound Path&gt;" fill-rule="evenodd" class="s4" d="m320.7 279.03c-7.41 0-12.19-4.89-12.19-12.46 0-7.8 4.8-13.25 11.67-13.25 7.2 0 10.42 5.88 10.42 11.72 0 0.78-0.07 1.42-0.12 1.84l-0.02 0.19c-0.07 0.56-0.55 0.99-1.12 0.99h-14.6c0.62 5 4.69 5.57 6.51 5.57 2.87 0 4.48-0.52 5.79-1.07q0.22-0.09 0.44-0.09 0.27 0 0.51 0.12c0.29 0.15 0.51 0.42 0.58 0.74l0.7 2.93c0.13 0.52-0.14 1.06-0.63 1.28-1.51 0.68-4.11 1.49-7.94 1.49zm3.65-16.14c-0.12-0.97-0.46-2.3-1.39-3.25q-1.14-1.15-3.1-1.15c-2.92 0-4.36 2.38-4.92 4.4z"/>
						<path id="&lt;Compound Path&gt;" fill-rule="evenodd" class="s4" d="m331.72 265.04c0 0.84-0.07 1.52-0.13 1.97l-0.02 0.18c-0.12 1.14-1.09 2-2.23 2h-13.22c0.85 2.68 3.15 3.32 5.13 3.32 2.67 0 4.15-0.48 5.36-0.99q0.42-0.18 0.87-0.18 0.53 0.01 1.01 0.25c0.59 0.29 1.02 0.84 1.18 1.48l0.69 2.93c0.25 1.04-0.28 2.12-1.26 2.56-1.61 0.73-4.37 1.6-8.4 1.6-3.99 0-7.37-1.32-9.76-3.82-2.32-2.44-3.55-5.81-3.55-9.77 0-3.89 1.18-7.46 3.34-10.05 2.32-2.79 5.68-4.33 9.45-4.33 7.98 0 11.54 6.45 11.54 12.85zm-22.09 1.53c0 6.79 4.14 11.34 11.07 11.34 3.57 0 6.04-0.74 7.48-1.39l-0.7-2.93c-1.53 0.65-3.3 1.16-6.23 1.16-4.09 0-7.62-2.28-7.71-7.81h15.8c0.05-0.42 0.14-1.07 0.14-1.9 0-4.14-1.95-10.6-9.3-10.6-6.55 0-10.55 5.34-10.55 12.13zm10.23-9.2c4.6 0 5.72 4.04 5.67 6.64h-11.95c0.33-2.83 2.14-6.64 6.28-6.64zm3.09 4.4c-0.18-0.51-0.44-0.98-0.79-1.34q-0.8-0.82-2.3-0.82c-1.71 0-2.71 1.05-3.29 2.16z"/>
					</g>
					<g id="&lt;Group&gt;">
						<path id="&lt;Compound Path&gt;" fill-rule="evenodd" class="s4" d="m346.82 279.08q-4.12 0-6.69-2.44l-0.05 0.86c-0.03 0.6-0.52 1.07-1.12 1.07h-3.53c-0.31 0-0.61-0.13-0.82-0.35-0.21-0.23-0.32-0.53-0.3-0.84 0.09-1.47 0.18-3.75 0.18-5.74v-27.2c0-0.62 0.51-1.12 1.13-1.12h4.04c0.62 0 1.12 0.5 1.12 1.12v11.14c1.73-1.47 4.01-2.26 6.64-2.26 2.76 0 5.21 1 7.1 2.9 2.29 2.31 3.53 5.75 3.51 9.71 0 8.63-5.64 13.15-11.21 13.15zm-5.88-9.43c0.68 2.39 2.66 3.93 5.04 3.93 3.52 0 5.71-2.88 5.71-7.52 0-3.61-1.72-7.25-5.57-7.25-2.39 0-4.45 1.67-5.14 4.16l-0.03 0.18c-0.08 0.39-0.17 0.8-0.17 1.24v4.04c0 0.4 0.08 0.82 0.16 1.22z"/>
						<path id="&lt;Compound Path&gt;" fill-rule="evenodd" class="s4" d="m341.9 244.44v9.03c1.6-0.84 3.46-1.28 5.52-1.28 3.06 0 5.79 1.12 7.9 3.24 2.5 2.52 3.86 6.25 3.83 10.49 0 9.38-6.2 14.28-12.33 14.28q-3.43-0.01-5.95-1.58c-0.39 0.64-1.1 1.07-1.91 1.07h-3.53c-0.62 0-1.21-0.25-1.63-0.71-0.43-0.45-0.65-1.05-0.61-1.67 0.09-1.45 0.18-3.7 0.18-5.67v-27.2c0-1.24 1.01-2.24 2.25-2.24h4.04c1.24 0 2.24 1 2.24 2.24zm-6.28 0v27.2c0 2-0.1 4.27-0.19 5.81h3.53l0.19-3.72h0.14c1.67 2.97 4.27 4.23 7.53 4.23 5.02 0 10.08-4 10.08-12.04 0.05-6.83-3.9-11.48-9.48-11.48-3.62 0-6.23 1.62-7.67 4.13h-0.09v-14.13zm4.23 25.48c-0.09-0.47-0.19-0.98-0.19-1.49v-4.04c0-0.66 0.14-1.21 0.24-1.68 0.83-3.11 3.44-5.02 6.22-5.02 4.37 0 6.7 3.86 6.7 8.37 0 5.16-2.56 8.64-6.83 8.64-2.98 0-5.35-1.95-6.14-4.78zm2.2-6.54c-0.07 0.35-0.14 0.68-0.14 1.01v4.04c0 0.28 0.06 0.64 0.12 0.96 0.56 1.9 2.07 3.07 3.96 3.07 4.25 0 4.58-4.9 4.58-6.4 0-2.83-1.16-6.12-4.45-6.12-1.87 0-3.48 1.32-4.04 3.29q-0.01 0.07-0.03 0.15z"/>
					</g>
					<g id="&lt;Group&gt;">
						<path id="&lt;Path&gt;" class="s4" d="m367.87 279.03c-2.55 0-5.06-0.61-6.89-1.69-0.45-0.26-0.66-0.81-0.49-1.31l1.02-3.12c0.11-0.33 0.36-0.59 0.69-0.71q0.19-0.06 0.37-0.06 0.33 0 0.62 0.18c1.06 0.7 3.01 1.45 4.78 1.45 0.97 0 3.24-0.22 3.24-2.23 0-1.02-0.25-1.9-3.45-3.08-5.52-1.97-6.68-5.12-6.68-7.42 0-4.48 3.74-7.72 8.89-7.72 2.21 0 4.43 0.56 6.1 1.55 0.46 0.27 0.66 0.82 0.49 1.33l-1.02 2.97c-0.12 0.33-0.37 0.58-0.69 0.7q-0.19 0.06-0.38 0.06-0.32 0-0.6-0.17c-0.53-0.34-2-1.13-4-1.13-1.6 0-2.64 0.76-2.64 1.94 0 1 0.49 1.6 3.55 2.77 3.09 1.17 6.63 3.12 6.63 7.83 0 4.78-3.74 7.86-9.54 7.86z"/>
						<path id="&lt;Compound Path&gt;" fill-rule="evenodd" class="s4" d="m376.64 253.9c0.92 0.54 1.32 1.66 0.98 2.66l-1.02 2.98c-0.23 0.65-0.73 1.16-1.38 1.38q-0.37 0.13-0.75 0.13-0.64 0-1.19-0.35c-0.46-0.28-1.7-0.95-3.41-0.95-0.25 0-1.52 0.04-1.52 0.82 0 0.23 0.01 0.28 0.23 0.46 0.53 0.44 1.67 0.9 2.6 1.26 3.16 1.2 7.35 3.43 7.35 8.88 0 5.38-4.28 8.99-10.66 8.99-2.75 0-5.46-0.68-7.46-1.85-0.91-0.53-1.32-1.63-0.99-2.63l1.02-3.12c0.22-0.66 0.73-1.18 1.39-1.41q0.37-0.13 0.74-0.13 0.66 0 1.23 0.37c0.93 0.6 2.63 1.26 4.17 1.26 0.97 0 2.12-0.2 2.12-1.11 0-0.48 0-1.02-2.7-2.02-6.47-2.31-7.43-6.31-7.43-8.48 0-5.13 4.21-8.85 10.01-8.85 2.41 0 4.84 0.63 6.67 1.71zm-14.44 7.14c0 2.69 1.91 4.93 5.95 6.37 3.02 1.11 4.19 2.18 4.19 4.13 0 1.86-1.4 3.35-4.37 3.35-2.05 0-4.19-0.84-5.4-1.63l-1.02 3.12c1.58 0.93 3.86 1.53 6.32 1.53 5.35 0 8.42-2.79 8.42-6.74 0-3.34-2-5.3-5.91-6.78-2.92-1.12-4.27-1.96-4.27-3.82 0-1.67 1.35-3.06 3.76-3.06 2.09 0 3.72 0.74 4.6 1.3l1.03-2.98c-1.26-0.74-3.26-1.39-5.53-1.39-4.84 0-7.77 2.97-7.77 6.6z"/>
					</g>
					<g id="&lt;Group&gt;">
						<path id="&lt;Compound Path&gt;" class="s4" d="m382.61 278.57c-0.62 0-1.12-0.5-1.12-1.12v-22.5c0-0.62 0.5-1.12 1.12-1.12h4.09c0.62 0 1.12 0.5 1.12 1.12v22.5c0 0.62-0.5 1.12-1.12 1.12zm1.95-26.31c-2.01 0-3.59-1.6-3.59-3.63 0-2.1 1.59-3.68 3.68-3.68 2.1 0 3.63 1.54 3.64 3.66 0.02 0.97-0.32 1.88-0.97 2.55-0.68 0.71-1.67 1.1-2.76 1.1z"/>
						<path id="&lt;Compound Path&gt;" fill-rule="evenodd" class="s4" d="m389.41 248.59c0.03 1.27-0.42 2.46-1.28 3.35q-0.46 0.47-1.04 0.8c1.05 0.19 1.85 1.1 1.85 2.21v22.5c0 1.24-1 2.24-2.24 2.24h-4.09c-1.24 0-2.25-1-2.25-2.24v-22.5c0-1.09 0.78-2 1.82-2.2-1.4-0.82-2.33-2.34-2.33-4.12 0-2.69 2.11-4.8 4.8-4.8 2.7 0 4.74 2.04 4.76 4.76zm-6.8 6.36v22.5h4.09v-22.5zm4.56-6.35c0-1.4-1.14-2.53-2.54-2.53-1.4 0-2.53 1.13-2.53 2.53 0 1.41 1.13 2.54 2.53 2.54 1.4 0 2.54-1.13 2.54-2.54z"/>
					</g>
					<g id="&lt;Group&gt;">
						<path id="&lt;Path&gt;" class="s4" d="m401.48 279.03c-2.23 0-4.04-0.72-5.24-2.08-1.28-1.34-1.88-3.45-1.88-6.61v-11.15h-2.36c-0.62 0-1.13-0.51-1.13-1.13v-3.11c0-0.62 0.51-1.12 1.13-1.12h2.36v-4.27c0-0.51 0.34-0.96 0.83-1.09l4-1.07q0.14-0.03 0.29-0.03 0.38 0 0.68 0.23c0.28 0.21 0.44 0.54 0.44 0.89v5.34h4.74c0.62 0 1.12 0.5 1.12 1.12v3.11c0 0.62-0.5 1.13-1.12 1.13h-4.74v11.01c0 3.24 1.13 3.24 1.95 3.24 0.99 0 1.67-0.13 2.07-0.24q0.15-0.04 0.3-0.04 0.36 0.01 0.65 0.21c0.28 0.2 0.45 0.51 0.47 0.85l0.18 3.07c0.03 0.47-0.24 0.92-0.69 1.1-1 0.42-2.44 0.64-4.05 0.64z"/>
						<path id="&lt;Compound Path&gt;" fill-rule="evenodd" class="s4" d="m400.85 246.71c0.55 0.42 0.87 1.08 0.87 1.78v4.22h3.62c1.24 0 2.24 1 2.24 2.24v3.11c0 1.24-1 2.25-2.24 2.25h-3.62v9.89c0 1.4 0.25 1.89 0.32 2.01 0.02 0.02 0.08 0.11 0.51 0.11 0.91 0 1.5-0.12 1.78-0.2q0.29-0.08 0.59-0.08c0.46 0 0.92 0.15 1.31 0.42 0.55 0.4 0.89 1.02 0.93 1.69l0.18 3.07c0.06 0.96-0.49 1.84-1.38 2.21-1.16 0.47-2.71 0.73-4.48 0.73-2.51 0-4.67-0.87-6.07-2.45-1.95-2.06-2.17-5.19-2.17-7.37v-10.03h-1.24c-1.24 0-2.25-1.01-2.25-2.25v-3.11c0-1.24 1.01-2.24 2.25-2.24h1.24v-3.15c0-1.02 0.68-1.91 1.66-2.17l4-1.07q0.29-0.08 0.58-0.08c0.49 0 0.97 0.16 1.37 0.47zm-5.37 2.85v5.39h-3.48v3.11h3.48v12.28c0 2.64 0.42 4.64 1.58 5.85 0.98 1.12 2.51 1.72 4.42 1.72 1.58 0 2.83-0.23 3.63-0.56l-0.19-3.06c-0.51 0.14-1.3 0.28-2.37 0.28-2.28 0-3.07-1.59-3.07-4.37v-12.14h5.86v-3.11h-5.86v-6.46z"/>
					</g>
					<g id="&lt;Group&gt;">
						<path id="&lt;Compound Path&gt;" fill-rule="evenodd" class="s4" d="m420.16 279.03c-7.4 0-12.18-4.89-12.18-12.46 0-7.8 4.8-13.25 11.67-13.25 7.2 0 10.42 5.88 10.42 11.72 0 0.78-0.07 1.42-0.12 1.84l-0.02 0.19c-0.07 0.56-0.55 0.99-1.12 0.99h-14.6c0.61 5 4.69 5.57 6.51 5.57 2.87 0 4.48-0.52 5.79-1.07q0.22-0.09 0.44-0.09 0.27 0 0.51 0.12c0.29 0.15 0.51 0.42 0.58 0.74l0.7 2.93c0.12 0.52-0.14 1.06-0.63 1.28-1.51 0.68-4.11 1.49-7.95 1.49zm3.66-16.14c-0.12-0.97-0.46-2.3-1.39-3.25q-1.14-1.15-3.1-1.15c-2.92 0-4.36 2.38-4.92 4.4z"/>
						<path id="&lt;Compound Path&gt;" fill-rule="evenodd" class="s4" d="m431.19 265.04c0 0.84-0.08 1.52-0.13 1.97l-0.02 0.18c-0.13 1.14-1.09 2-2.23 2h-13.22c0.85 2.68 3.15 3.32 5.13 3.32 2.67 0 4.15-0.48 5.35-0.99q0.43-0.18 0.88-0.18 0.53 0.01 1.01 0.25c0.59 0.29 1.02 0.84 1.17 1.48l0.7 2.93c0.25 1.04-0.28 2.12-1.26 2.56-1.61 0.73-4.37 1.6-8.41 1.6-3.99 0-7.36-1.32-9.75-3.82-2.32-2.44-3.55-5.81-3.55-9.77 0-3.89 1.18-7.46 3.34-10.05 2.32-2.79 5.68-4.33 9.45-4.33 7.98 0 11.54 6.45 11.54 12.85zm-22.09 1.53c0 6.79 4.14 11.34 11.06 11.34 3.58 0 6.05-0.74 7.49-1.39l-0.7-2.93c-1.53 0.65-3.3 1.16-6.23 1.16-4.09 0-7.62-2.28-7.71-7.81h15.8c0.05-0.42 0.14-1.07 0.14-1.9 0-4.14-1.95-10.6-9.3-10.6-6.55 0-10.55 5.34-10.55 12.13zm10.23-9.2c4.6 0 5.72 4.04 5.67 6.64h-11.95c0.33-2.83 2.14-6.64 6.28-6.64zm3.09 4.4c-0.18-0.51-0.44-0.98-0.79-1.34q-0.8-0.82-2.3-0.82c-1.71 0-2.71 1.05-3.29 2.16z"/>
					</g>
					<g id="&lt;Group&gt;">
						<path id="&lt;Path&gt;" class="s4" d="m451.77 278.57c-0.46 0-0.88-0.29-1.05-0.72l-8.55-22.5c-0.13-0.35-0.08-0.73 0.12-1.04 0.21-0.3 0.56-0.48 0.93-0.48h4.37c0.47 0 0.9 0.3 1.06 0.75l4.41 12.64q0.48 1.32 0.86 2.48 0.41-1.17 0.89-2.49l4.36-12.63c0.16-0.45 0.58-0.75 1.06-0.75h4.28c0.37 0 0.72 0.18 0.92 0.49 0.21 0.3 0.26 0.69 0.12 1.04l-8.83 22.5c-0.17 0.43-0.58 0.71-1.04 0.71z"/>
						<path id="&lt;Compound Path&gt;" fill-rule="evenodd" class="s4" d="m466.75 254.95q0 0.48-0.18 0.89l-8.81 22.43c-0.33 0.86-1.16 1.42-2.08 1.42h-3.91c-0.93 0-1.76-0.57-2.1-1.45l-8.55-22.49c-0.26-0.69-0.17-1.47 0.25-2.07 0.42-0.61 1.11-0.97 1.85-0.97h4.37c0.95 0 1.8 0.6 2.12 1.5l4.22 12.1 4.18-12.09c0.31-0.91 1.16-1.51 2.12-1.51h4.28c1.24 0 2.24 1 2.24 2.24zm-6.52 0l-4.37 12.64c-0.74 2.05-1.39 3.91-1.9 5.77h-0.14c-0.47-1.86-1.07-3.72-1.82-5.77l-4.41-12.64h-4.37l8.55 22.5h3.91l8.83-22.5zm4.27 0h0.01m-0.01 2.24h0.01z"/>
					</g>
					<g id="&lt;Group&gt;">
						<path id="&lt;Compound Path&gt;" class="s4" d="m469.43 278.57c-0.62 0-1.12-0.5-1.12-1.12v-22.5c0-0.62 0.5-1.12 1.12-1.12h4.09c0.62 0 1.13 0.5 1.13 1.12v22.5c0 0.62-0.51 1.12-1.13 1.12zm1.96-26.31c-2.01 0-3.59-1.6-3.59-3.63 0-2.1 1.58-3.68 3.68-3.68 2.1 0 3.62 1.54 3.63 3.66 0.03 0.97-0.31 1.88-0.96 2.55-0.69 0.71-1.67 1.1-2.76 1.1z"/>
						<path id="&lt;Compound Path&gt;" fill-rule="evenodd" class="s4" d="m476.23 248.59c0.04 1.27-0.42 2.46-1.28 3.35q-0.46 0.47-1.03 0.8c1.05 0.19 1.85 1.1 1.85 2.21v22.5c0 1.24-1.01 2.24-2.25 2.24h-4.09c-1.24 0-2.24-1-2.24-2.24v-22.5c0-1.09 0.78-2 1.81-2.2-1.4-0.82-2.32-2.34-2.32-4.12 0-2.69 2.11-4.8 4.8-4.8 2.7 0 4.73 2.04 4.75 4.76zm-6.8 6.36v22.5h4.09v-22.5zm4.56-6.35c0-1.4-1.13-2.53-2.53-2.53-1.4 0-2.54 1.13-2.54 2.53 0 1.41 1.14 2.54 2.54 2.54 1.4 0 2.53-1.13 2.53-2.54z"/>
					</g>
					<g id="&lt;Group&gt;">
						<path id="&lt;Path&gt;" class="s4" d="m486.12 279.03c-2.55 0-5.07-0.61-6.89-1.69-0.45-0.26-0.66-0.81-0.5-1.31l1.03-3.12c0.1-0.33 0.36-0.59 0.69-0.71q0.18-0.06 0.37-0.06 0.33 0 0.62 0.18c1.06 0.7 3.01 1.45 4.77 1.45 0.98 0 3.25-0.22 3.25-2.23 0-1.02-0.25-1.9-3.45-3.08-5.52-1.97-6.68-5.12-6.68-7.42 0-4.48 3.73-7.72 8.88-7.72 2.22 0 4.44 0.56 6.11 1.55 0.45 0.27 0.66 0.82 0.48 1.33l-1.02 2.97c-0.11 0.33-0.36 0.58-0.69 0.7q-0.18 0.06-0.37 0.06-0.32 0-0.6-0.17c-0.54-0.34-2-1.13-4-1.13-1.61 0-2.64 0.76-2.64 1.94 0 1 0.49 1.6 3.55 2.77 3.08 1.17 6.63 3.12 6.63 7.83 0 4.78-3.75 7.86-9.54 7.86z"/>
						<path id="&lt;Compound Path&gt;" fill-rule="evenodd" class="s4" d="m494.89 253.9c0.91 0.54 1.32 1.66 0.98 2.66l-1.03 2.98c-0.22 0.65-0.73 1.16-1.37 1.38q-0.37 0.13-0.75 0.13-0.64 0-1.2-0.35c-0.45-0.28-1.69-0.95-3.4-0.95-0.25 0-1.52 0.04-1.52 0.82 0 0.23 0.01 0.28 0.22 0.46 0.53 0.44 1.68 0.9 2.61 1.26 3.15 1.2 7.35 3.43 7.35 8.88 0 5.38-4.28 8.99-10.66 8.99-2.75 0-5.47-0.68-7.46-1.85-0.91-0.53-1.32-1.63-0.99-2.63l1.02-3.12c0.22-0.66 0.73-1.18 1.39-1.41q0.36-0.13 0.74-0.13 0.66 0 1.23 0.37c0.93 0.6 2.63 1.26 4.16 1.26 0.97 0 2.13-0.2 2.13-1.11 0-0.48 0-1.02-2.71-2.02-6.46-2.31-7.42-6.31-7.42-8.48 0-5.13 4.2-8.85 10-8.85 2.41 0 4.85 0.63 6.68 1.71zm-14.44 7.14c0 2.69 1.91 4.93 5.95 6.37 3.02 1.11 4.18 2.18 4.18 4.13 0 1.86-1.39 3.35-4.37 3.35-2.04 0-4.18-0.84-5.39-1.63l-1.02 3.12c1.58 0.93 3.86 1.53 6.32 1.53 5.35 0 8.41-2.79 8.41-6.74 0-3.34-1.99-5.3-5.9-6.78-2.93-1.12-4.28-1.96-4.28-3.82 0-1.67 1.35-3.06 3.77-3.06 2.09 0 3.72 0.74 4.6 1.3l1.02-2.98c-1.25-0.74-3.25-1.39-5.53-1.39-4.83 0-7.76 2.97-7.76 6.6z"/>
					</g>
					<g id="&lt;Group&gt;">
						<path id="&lt;Compound Path&gt;" class="s4" d="m500.85 278.57c-0.61 0-1.12-0.5-1.12-1.12v-22.5c0-0.62 0.51-1.12 1.12-1.12h4.1c0.62 0 1.12 0.5 1.12 1.12v22.5c0 0.62-0.5 1.12-1.12 1.12zm1.95-26.31c-2.01 0-3.59-1.6-3.59-3.63 0-2.1 1.58-3.68 3.68-3.68 2.1 0 3.62 1.54 3.63 3.66 0.03 0.97-0.31 1.88-0.96 2.55-0.69 0.71-1.67 1.1-2.76 1.1z"/>
						<path id="&lt;Compound Path&gt;" fill-rule="evenodd" class="s4" d="m507.65 248.59c0.04 1.27-0.42 2.46-1.27 3.35q-0.47 0.47-1.04 0.8c1.05 0.19 1.85 1.1 1.85 2.21v22.5c0 1.24-1.01 2.24-2.24 2.24h-4.1c-1.23 0-2.24-1-2.24-2.24v-22.5c0-1.09 0.78-2 1.81-2.2-1.4-0.82-2.32-2.34-2.32-4.12 0-2.69 2.11-4.8 4.8-4.8 2.7 0 4.74 2.04 4.75 4.76zm-6.8 6.36v22.5h4.1v-22.5zm4.55-6.35c0-1.4-1.13-2.53-2.53-2.53-1.4 0-2.54 1.13-2.54 2.53 0 1.41 1.14 2.54 2.54 2.54 1.4 0 2.53-1.13 2.53-2.54z"/>
					</g>
					<g id="&lt;Group&gt;">
						<path id="&lt;Path&gt;" class="s4" d="m519.73 279.03c-2.23 0-4.04-0.72-5.25-2.08-1.28-1.34-1.87-3.45-1.87-6.61v-11.15h-2.37c-0.62 0-1.12-0.51-1.12-1.13v-3.11c0-0.62 0.5-1.12 1.12-1.12h2.37v-4.27c0-0.51 0.34-0.96 0.83-1.09l4-1.07q0.14-0.03 0.29-0.03 0.37 0 0.68 0.23c0.28 0.21 0.44 0.54 0.44 0.89v5.34h4.73c0.62 0 1.13 0.5 1.13 1.12v3.11c0 0.62-0.51 1.13-1.13 1.13h-4.73v11.01c0 3.24 1.12 3.24 1.95 3.24 0.99 0 1.67-0.13 2.07-0.24q0.15-0.04 0.3-0.04 0.35 0.01 0.65 0.21c0.27 0.2 0.45 0.51 0.47 0.85l0.18 3.07c0.03 0.47-0.25 0.92-0.69 1.1-1.01 0.42-2.45 0.64-4.05 0.64z"/>
						<path id="&lt;Compound Path&gt;" fill-rule="evenodd" class="s4" d="m519.09 246.71c0.56 0.42 0.88 1.08 0.88 1.78v4.22h3.61c1.24 0 2.25 1 2.25 2.24v3.11c0 1.24-1.01 2.25-2.25 2.25h-3.61v9.89c0 1.4 0.25 1.89 0.32 2.01 0.02 0.02 0.08 0.11 0.51 0.11 0.91 0 1.5-0.12 1.77-0.2q0.3-0.08 0.6-0.08c0.46 0 0.92 0.15 1.3 0.42 0.55 0.4 0.9 1.02 0.94 1.69l0.18 3.07c0.06 0.96-0.5 1.84-1.38 2.21-1.16 0.47-2.71 0.73-4.48 0.73-2.52 0-4.67-0.87-6.07-2.45-1.95-2.06-2.17-5.19-2.17-7.37v-10.03h-1.25c-1.24 0-2.24-1.01-2.24-2.25v-3.11c0-1.24 1-2.24 2.24-2.24h1.25v-3.15c0-1.02 0.68-1.91 1.66-2.17l4-1.07q0.29-0.08 0.58-0.08c0.49 0 0.97 0.16 1.36 0.47zm-5.36 2.85v5.39h-3.49v3.11h3.49v12.28c0 2.64 0.42 4.64 1.58 5.85 0.98 1.12 2.51 1.72 4.42 1.72 1.58 0 2.83-0.23 3.62-0.56l-0.18-3.06c-0.52 0.14-1.31 0.28-2.37 0.28-2.28 0-3.07-1.59-3.07-4.37v-12.14h5.85v-3.11h-5.85v-6.46z"/>
					</g>
					<g id="&lt;Group&gt;">
						<path id="&lt;Compound Path&gt;" fill-rule="evenodd" class="s4" d="m538.13 279.08c-7.01 0-11.9-5.22-11.9-12.7 0-7.69 5.05-13.06 12.28-13.06 7.03 0 11.95 5.22 11.95 12.69 0 8.98-6.39 13.07-12.33 13.07zm0.28-20.45c-4.28 0-5.8 4.1-5.8 7.61 0 4.36 2.4 7.53 5.71 7.53 3.31 0 5.71-3.21 5.71-7.62 0-2.6-1.17-7.52-5.62-7.52z"/>
						<path id="&lt;Compound Path&gt;" fill-rule="evenodd" class="s4" d="m551.58 266.01c0 9.75-6.97 14.19-13.45 14.19-3.62 0-6.92-1.35-9.29-3.8-2.44-2.54-3.73-6-3.73-10.02 0-8.35 5.51-14.19 13.4-14.19 7.69 0 13.07 5.69 13.07 13.82zm-24.23 0.37c0 7.12 4.69 11.58 10.78 11.58 5.44 0 11.21-3.63 11.21-11.95 0-6.88-4.37-11.57-10.83-11.57-6.23 0-11.16 4.41-11.16 11.94zm4.14-0.14c0-4.27 2.09-8.73 6.92-8.73 4.84 0 6.74 4.83 6.74 8.64 0 5.07-2.93 8.74-6.83 8.74-4 0-6.83-3.72-6.83-8.65zm11.42-0.09c0-2.21-0.94-6.4-4.5-6.4-4.55 0-4.68 5.83-4.68 6.49 0 3.71 1.93 6.41 4.59 6.41 2.66 0 4.59-2.74 4.59-6.5z"/>
					</g>
					<g id="&lt;Group&gt;">
						<path id="&lt;Path&gt;" class="s4" d="m555.56 278.57c-0.62 0-1.12-0.5-1.12-1.12v-15.48c0-2.9-0.06-5.05-0.18-6.95-0.02-0.31 0.09-0.61 0.3-0.84 0.21-0.22 0.51-0.35 0.82-0.35h3.58c0.6 0 1.1 0.48 1.12 1.08l0.03 0.86c1.41-1.55 3.33-2.45 5.4-2.45 0.53 0 0.94 0.05 1.43 0.17 0.5 0.12 0.85 0.57 0.85 1.09v3.86c0 0.34-0.15 0.66-0.41 0.87q-0.32 0.24-0.71 0.25-0.12 0-0.24-0.03c-0.36-0.08-0.7-0.11-1.15-0.11-2.22 0-3.9 1.66-4.38 4.33-0.09 0.51-0.17 1.09-0.17 1.7v12c0 0.62-0.5 1.12-1.12 1.12z"/>
						<path id="&lt;Compound Path&gt;" fill-rule="evenodd" class="s4" d="m567.22 252.4c1 0.25 1.7 1.15 1.7 2.18v3.86c0 0.68-0.31 1.32-0.84 1.75-0.41 0.32-0.9 0.49-1.41 0.49q-0.24 0-0.48-0.05c-0.21-0.05-0.45-0.09-0.91-0.09-2.45 0-3.13 2.58-3.28 3.4-0.08 0.47-0.15 0.99-0.15 1.51v12c0 1.24-1 2.24-2.24 2.24h-4.05c-1.24 0-2.24-1-2.24-2.24v-15.48c0-2.88-0.06-5-0.18-6.87-0.04-0.62 0.17-1.23 0.6-1.68 0.42-0.46 1.02-0.71 1.64-0.71h3.58c0.76 0 1.44 0.38 1.84 0.96 1.38-0.95 3-1.48 4.71-1.48 0.62 0 1.13 0.07 1.71 0.21zm-7.94 6.97h-0.18l-0.14-4.42h-3.58c0.14 2.09 0.18 4.37 0.18 7.02v15.48h4.05v-12c0-0.69 0.09-1.34 0.18-1.9 0.56-3.07 2.61-5.25 5.49-5.25 0.56 0 0.97 0.04 1.39 0.14v-3.86c-0.37-0.1-0.69-0.14-1.16-0.14-2.74 0-5.21 1.9-6.23 4.93z"/>
					</g>
					<g id="&lt;Group&gt;">
						<path id="&lt;Path&gt;" class="s4" d="m576.57 279.03c-2.55 0-5.06-0.61-6.89-1.69-0.45-0.26-0.66-0.81-0.49-1.31l1.02-3.12c0.11-0.33 0.36-0.59 0.69-0.71q0.19-0.06 0.37-0.06 0.33 0 0.62 0.18c1.06 0.7 3.01 1.45 4.78 1.45 0.97 0 3.24-0.22 3.24-2.23 0-1.02-0.25-1.9-3.45-3.08-5.52-1.97-6.68-5.12-6.68-7.42 0-4.48 3.74-7.72 8.88-7.72 2.22 0 4.44 0.56 6.11 1.55 0.46 0.27 0.66 0.82 0.49 1.33l-1.03 2.97c-0.11 0.33-0.36 0.58-0.68 0.7q-0.19 0.06-0.38 0.06-0.32 0-0.6-0.17c-0.53-0.34-2-1.13-4-1.13-1.6 0-2.64 0.76-2.64 1.94 0 1 0.49 1.6 3.55 2.77 3.09 1.17 6.63 3.12 6.63 7.83 0 4.78-3.74 7.86-9.54 7.86z"/>
						<path id="&lt;Compound Path&gt;" fill-rule="evenodd" class="s4" d="m585.34 253.9c0.92 0.54 1.32 1.66 0.98 2.66l-1.02 2.98c-0.23 0.65-0.73 1.16-1.38 1.38q-0.37 0.13-0.75 0.13-0.64 0-1.19-0.35c-0.46-0.28-1.7-0.95-3.41-0.95-0.25 0-1.52 0.04-1.52 0.82 0 0.23 0.01 0.28 0.23 0.46 0.53 0.44 1.67 0.9 2.6 1.26 3.16 1.2 7.35 3.43 7.35 8.88 0 5.38-4.28 8.99-10.66 8.99-2.75 0-5.46-0.68-7.46-1.85-0.91-0.53-1.32-1.63-0.99-2.63l1.02-3.12c0.22-0.66 0.73-1.18 1.39-1.41q0.37-0.13 0.74-0.13 0.66 0 1.23 0.37c0.93 0.6 2.63 1.26 4.17 1.26 0.97 0 2.12-0.2 2.12-1.11 0-0.48 0-1.02-2.7-2.02-6.47-2.31-7.43-6.31-7.43-8.48 0-5.13 4.21-8.85 10-8.85 2.42 0 4.85 0.63 6.68 1.71zm-14.44 7.14c0 2.69 1.91 4.93 5.95 6.37 3.02 1.11 4.19 2.18 4.19 4.13 0 1.86-1.4 3.35-4.37 3.35-2.05 0-4.19-0.84-5.4-1.63l-1.02 3.12c1.58 0.93 3.86 1.53 6.32 1.53 5.35 0 8.42-2.79 8.42-6.74 0-3.34-2-5.3-5.91-6.78-2.93-1.12-4.27-1.96-4.27-3.82 0-1.67 1.34-3.06 3.76-3.06 2.09 0 3.72 0.74 4.6 1.3l1.03-2.98c-1.26-0.74-3.26-1.39-5.54-1.39-4.83 0-7.76 2.97-7.76 6.6z"/>
					</g>
					<g id="&lt;Group&gt;">
						<path id="&lt;Compound Path&gt;" class="s4" d="m602.23 278.57c-0.62 0-1.12-0.5-1.12-1.12v-22.5c0-0.62 0.5-1.12 1.12-1.12h4.09c0.62 0 1.12 0.5 1.12 1.12v22.5c0 0.62-0.5 1.12-1.12 1.12zm1.95-26.31c-2.01 0-3.58-1.6-3.58-3.63 0-2.1 1.58-3.68 3.68-3.68 2.09 0 3.62 1.54 3.63 3.66 0.03 0.97-0.32 1.88-0.97 2.55-0.68 0.71-1.66 1.1-2.76 1.1z"/>
						<path id="&lt;Compound Path&gt;" fill-rule="evenodd" class="s4" d="m609.03 248.59c0.03 1.27-0.42 2.46-1.28 3.35q-0.46 0.47-1.04 0.8c1.06 0.19 1.85 1.1 1.85 2.21v22.5c0 1.24-1 2.24-2.24 2.24h-4.09c-1.24 0-2.24-1-2.24-2.24v-22.5c0-1.09 0.78-2 1.81-2.2-1.4-0.82-2.33-2.34-2.33-4.12 0-2.69 2.11-4.8 4.81-4.8 2.69 0 4.73 2.04 4.75 4.76zm-6.8 6.36v22.5h4.09v-22.5zm4.56-6.35c0-1.4-1.14-2.53-2.54-2.53-1.4 0-2.53 1.13-2.53 2.53 0 1.41 1.13 2.54 2.53 2.54 1.4 0 2.54-1.13 2.54-2.54z"/>
					</g>
					<g id="&lt;Group&gt;">
						<path id="&lt;Path&gt;" class="s4" d="m629.24 278.57c-0.62 0-1.13-0.5-1.13-1.12v-12.97c0-3.67-1.37-5.53-4.08-5.53-2.33 0-3.9 1.71-4.41 3.39q-0.01 0.03-0.02 0.06c-0.13 0.36-0.21 0.93-0.21 1.52v13.53c0 0.62-0.5 1.12-1.12 1.12h-4.09c-0.62 0-1.13-0.5-1.13-1.12v-16.41c0-2.5-0.05-4.3-0.18-6.01-0.02-0.31 0.08-0.62 0.3-0.84 0.21-0.23 0.51-0.36 0.82-0.36h3.63c0.59 0 1.08 0.46 1.12 1.05l0.05 0.9c1.53-1.4 3.74-2.46 6.59-2.46 4.18 0 9.07 2.8 9.07 10.69v13.44c0 0.62-0.5 1.12-1.12 1.12z"/>
						<path id="&lt;Compound Path&gt;" fill-rule="evenodd" class="s4" d="m632.02 254.66c1.62 1.45 3.55 4.25 3.55 9.35v13.44c0 1.24-1 2.24-2.24 2.24h-4.09c-1.24 0-2.25-1-2.25-2.24v-12.97c0-4.4-2.07-4.4-2.96-4.4-1.75 0-2.96 1.34-3.34 2.59q-0.02 0.06-0.04 0.11c-0.07 0.2-0.14 0.63-0.14 1.14v13.53c0 1.24-1 2.24-2.24 2.24h-4.09c-1.24 0-2.25-1-2.25-2.24v-16.41c0-2.48-0.05-4.25-0.18-5.92-0.04-0.63 0.17-1.24 0.59-1.7 0.43-0.45 1.03-0.71 1.65-0.71h3.63c0.81 0 1.53 0.43 1.93 1.1 1.54-0.97 3.49-1.62 5.83-1.62 1.45 0 4.24 0.32 6.64 2.47zm-14.08 4.01h-0.09l-0.23-3.72h-3.63c0.14 1.86 0.19 3.76 0.19 6.09v16.41h4.09v-13.53c0-0.7 0.09-1.39 0.28-1.91 0.69-2.27 2.78-4.18 5.48-4.18 3.86 0 5.21 3.02 5.21 6.65v12.97h4.09v-13.44c0-7.71-4.84-9.57-7.95-9.57-3.72 0-6.32 2.09-7.44 4.23z"/>
					</g>
					<g id="&lt;Group&gt;">
						<path id="&lt;Path&gt;" class="s4" d="m647.78 279.03c-2.22 0-4.04-0.72-5.24-2.08-1.28-1.34-1.88-3.45-1.88-6.61v-11.15h-2.36c-0.62 0-1.12-0.51-1.12-1.13v-3.11c0-0.62 0.5-1.12 1.12-1.12h2.36v-4.27c0-0.51 0.34-0.96 0.84-1.09l3.99-1.07q0.15-0.03 0.29-0.03 0.38 0 0.69 0.23c0.27 0.21 0.44 0.54 0.44 0.89v5.34h4.73c0.62 0 1.12 0.5 1.12 1.12v3.11c0 0.62-0.5 1.13-1.12 1.13h-4.73v11.01c0 3.24 1.12 3.24 1.94 3.24 0.99 0 1.68-0.13 2.08-0.24q0.14-0.04 0.29-0.04 0.36 0.01 0.66 0.21c0.27 0.2 0.44 0.51 0.46 0.85l0.19 3.07c0.03 0.47-0.25 0.92-0.7 1.1-1 0.42-2.44 0.64-4.05 0.64z"/>
						<path id="&lt;Compound Path&gt;" fill-rule="evenodd" class="s4" d="m647.15 246.71c0.55 0.42 0.88 1.08 0.88 1.78v4.22h3.61c1.24 0 2.24 1 2.24 2.24v3.11c0 1.24-1 2.25-2.24 2.25h-3.61v9.89c0 1.4 0.24 1.89 0.32 2.01 0.01 0.02 0.07 0.11 0.5 0.11 0.91 0 1.51-0.12 1.78-0.2q0.29-0.08 0.59-0.08c0.47 0 0.92 0.15 1.31 0.42 0.55 0.4 0.89 1.02 0.93 1.69l0.19 3.07c0.06 0.96-0.5 1.84-1.39 2.21-1.15 0.47-2.7 0.73-4.48 0.73-2.51 0-4.66-0.87-6.07-2.45-1.94-2.06-2.17-5.19-2.17-7.37v-10.03h-1.24c-1.24 0-2.24-1.01-2.24-2.25v-3.11c0-1.24 1-2.24 2.24-2.24h1.24v-3.15c0-1.02 0.68-1.91 1.67-2.17l3.99-1.07q0.29-0.08 0.58-0.08c0.49 0 0.97 0.16 1.37 0.47zm-5.36 2.85v5.39h-3.49v3.11h3.49v12.28c0 2.64 0.41 4.64 1.58 5.85 0.97 1.12 2.51 1.72 4.41 1.72 1.58 0 2.84-0.23 3.63-0.56l-0.19-3.06c-0.51 0.14-1.3 0.28-2.37 0.28-2.28 0-3.07-1.59-3.07-4.37v-12.14h5.86v-3.11h-5.86v-6.46z"/>
					</g>
					<g id="&lt;Group&gt;">
						<path id="&lt;Compound Path&gt;" fill-rule="evenodd" class="s4" d="m666.19 279.08c-7.01 0-11.91-5.22-11.91-12.7 0-7.69 5.05-13.06 12.28-13.06 7.04 0 11.95 5.22 11.95 12.69 0 8.98-6.39 13.07-12.32 13.07zm0.28-20.45c-4.29 0-5.81 4.1-5.81 7.61 0 4.36 2.41 7.53 5.71 7.53 3.31 0 5.72-3.21 5.72-7.62 0-2.6-1.18-7.52-5.62-7.52z"/>
						<path id="&lt;Compound Path&gt;" fill-rule="evenodd" class="s4" d="m679.64 266.01c0 9.75-6.97 14.19-13.45 14.19-3.62 0-6.92-1.35-9.29-3.8-2.45-2.54-3.74-6-3.74-10.02 0-8.35 5.51-14.19 13.4-14.19 7.7 0 13.08 5.69 13.08 13.82zm-24.24 0.37c0 7.12 4.7 11.58 10.79 11.58 5.44 0 11.2-3.63 11.2-11.95 0-6.88-4.37-11.57-10.83-11.57-6.23 0-11.16 4.41-11.16 11.94zm4.14-0.14c0-4.27 2.09-8.73 6.93-8.73 4.83 0 6.74 4.83 6.74 8.64 0 5.07-2.93 8.74-6.84 8.74-3.99 0-6.83-3.72-6.83-8.65zm11.42-0.09c0-2.21-0.94-6.4-4.49-6.4-4.55 0-4.68 5.83-4.68 6.49 0 3.71 1.93 6.41 4.58 6.41 2.66 0 4.59-2.74 4.59-6.5z"/>
					</g>
					<g id="&lt;Group&gt;">
						<path id="&lt;Compound Path&gt;" fill-rule="evenodd" class="s4" d="m694.54 287.77c-0.62 0-1.12-0.5-1.12-1.12v-24.36c0-2.81-0.09-5.05-0.19-7.29-0.01-0.31 0.1-0.61 0.32-0.83 0.21-0.22 0.5-0.34 0.81-0.34h3.67c0.6 0 1.09 0.47 1.12 1.07l0.05 1.04c1.86-1.73 4.27-2.62 7.1-2.62 6.17 0 10.65 5.28 10.65 12.55 0 9.08-5.88 13.21-11.35 13.21-2.25 0-4.31-0.67-5.89-1.87v9.44c0 0.62-0.51 1.12-1.12 1.12zm5.32-18.05c0.63 2.34 2.65 3.91 5.04 3.91 4.21 0 5.71-3.91 5.71-7.57 0-3.61-1.72-7.25-5.57-7.25-2.36 0-4.45 1.74-5.1 4.23-0.1 0.39-0.24 0.94-0.24 1.39v3.86c0 0.49 0.08 0.96 0.16 1.43z"/>
						<path id="&lt;Compound Path&gt;" fill-rule="evenodd" class="s4" d="m718.07 265.87c0 4.35-1.29 8.02-3.73 10.62-2.26 2.39-5.36 3.71-8.74 3.71-1.72 0-3.35-0.36-4.77-1.02v7.47c0 1.24-1.01 2.24-2.24 2.24h-4.05c-1.24 0-2.24-1-2.24-2.24v-24.36c0-2.78-0.09-5.02-0.19-7.24-0.02-0.61 0.2-1.21 0.62-1.65 0.43-0.44 1.01-0.69 1.63-0.69h3.67c0.85 0 1.6 0.48 1.98 1.19 1.78-1.13 3.9-1.71 6.29-1.71 6.82 0 11.77 5.76 11.77 13.68zm-19.76-7.06h-0.1l-0.18-3.86h-3.67c0.09 2.14 0.18 4.46 0.18 7.34v24.36h4.05v-12.22h0.09c1.35 2.23 3.95 3.53 6.92 3.53 5.3 0 10.23-4 10.23-12.09 0-6.83-4.09-11.43-9.53-11.43-3.67 0-6.32 1.62-7.99 4.37zm0.46 11.15c-0.09-0.51-0.18-1.07-0.18-1.67v-3.86c0-0.56 0.14-1.16 0.27-1.67 0.79-3.07 3.4-5.07 6.19-5.07 4.32 0 6.69 3.86 6.69 8.37 0 5.16-2.51 8.69-6.83 8.69-2.93 0-5.39-1.95-6.14-4.79zm6.14 2.55c4.26 0 4.59-4.94 4.59-6.45 0-2.83-1.17-6.12-4.45-6.12-1.85 0-3.5 1.39-4.01 3.38q-0.01 0.01-0.01 0.03c-0.05 0.18-0.2 0.73-0.2 1.08v3.86q0.01 0.58 0.13 1.18c0.51 1.82 2.09 3.04 3.95 3.04z"/>
					</g>
					<g id="&lt;Group&gt;">
						<path id="&lt;Compound Path&gt;" fill-rule="evenodd" class="s4" d="m727.17 279.08c-5.25 0-8-3.81-8-7.58 0-5.82 4.9-9.25 13.5-9.48-0.19-2.34-1.46-3.44-3.96-3.44-1.85 0-3.81 0.56-5.25 1.49q-0.28 0.18-0.61 0.18-0.19 0-0.37-0.06c-0.32-0.11-0.58-0.37-0.69-0.69l-0.93-2.7c-0.17-0.48 0.02-1.02 0.45-1.3 2.13-1.39 5.04-2.18 8-2.18 6.24 0 9.67 3.66 9.67 10.32v8.41q0.01 3.25 0.36 5.2c0.06 0.32-0.03 0.66-0.24 0.92-0.22 0.25-0.53 0.4-0.87 0.4h-3.71c-0.57 0-1.05-0.43-1.12-1l-0.07-0.58c-1.66 1.33-3.84 2.09-6.16 2.09zm5.62-12c-4.84 0.08-7.29 1.41-7.29 3.95 0 2.51 1.92 2.78 2.74 2.78 2.47 0 3.88-1.55 4.38-3 0.11-0.33 0.17-0.67 0.17-0.94z"/>
						<path id="&lt;Compound Path&gt;" fill-rule="evenodd" class="s4" d="m740.11 263.64v8.41q0 3.15 0.33 5c0.12 0.65-0.06 1.32-0.48 1.83-0.43 0.52-1.06 0.81-1.73 0.81h-3.71c-0.75 0-1.41-0.36-1.82-0.92-1.62 0.92-3.53 1.43-5.53 1.43-5.99 0-9.12-4.38-9.12-8.7 0-3.01 1.35-9.77 13.26-10.54-0.37-0.9-1.18-1.26-2.6-1.26-1.61 0-3.39 0.51-4.64 1.32q-0.57 0.35-1.22 0.36-0.37 0-0.73-0.13c-0.66-0.22-1.17-0.73-1.39-1.39l-0.93-2.69c-0.34-0.98 0.03-2.05 0.9-2.61 2.3-1.51 5.44-2.37 8.61-2.37 6.86 0 10.8 4.18 10.8 11.45zm-18.19-7.2l0.93 2.69c1.58-1.02 3.76-1.67 5.86-1.67 4.6 0 5.11 3.35 5.11 5.21v0.46q-0.1 0-0.2 0c-8.57 0-13.33 2.97-13.33 8.37 0 3.25 2.33 6.46 6.88 6.46 3.21 0 5.63-1.58 6.88-3.35h0.14l0.33 2.84h3.71c-0.27-1.54-0.37-3.44-0.37-5.4v-8.41c0-4.51-1.67-9.2-8.55-9.2-2.84 0-5.53 0.79-7.39 2zm2.46 14.59c0-4.15 4.58-5.07 8.87-5.07q0.33 0 0.66 0.01v3.9c0 0.42-0.09 0.88-0.23 1.3-0.65 1.91-2.51 3.77-5.44 3.77-2.09 0-3.86-1.26-3.86-3.91zm7.17-0.57c0.09-0.26 0.12-0.48 0.12-0.59v-1.62q-5.03 0.32-5.04 2.78c0 0.78 0.18 1.66 1.61 1.66 1.88 0 2.94-1.16 3.31-2.23z"/>
					</g>
					<g id="&lt;Group&gt;">
						<path id="&lt;Path&gt;" class="s4" d="m752.27 279.03c-2.23 0-4.04-0.72-5.24-2.08-1.28-1.34-1.88-3.45-1.88-6.61v-11.15h-2.36c-0.62 0-1.12-0.51-1.12-1.13v-3.11c0-0.62 0.5-1.12 1.12-1.12h2.36v-4.27c0-0.51 0.34-0.96 0.84-1.09l3.99-1.07q0.15-0.03 0.29-0.03 0.38 0 0.69 0.23c0.27 0.21 0.43 0.54 0.43 0.89v5.34h4.74c0.62 0 1.12 0.5 1.12 1.12v3.11c0 0.62-0.5 1.13-1.12 1.13h-4.74v11.01c0 3.24 1.13 3.24 1.95 3.24 0.99 0 1.68-0.13 2.08-0.24q0.14-0.04 0.29-0.04 0.36 0.01 0.65 0.21c0.28 0.2 0.45 0.51 0.47 0.85l0.19 3.07c0.03 0.47-0.25 0.92-0.7 1.1-1 0.42-2.44 0.64-4.05 0.64z"/>
						<path id="&lt;Compound Path&gt;" fill-rule="evenodd" class="s4" d="m751.64 246.71c0.55 0.42 0.88 1.08 0.88 1.78v4.22h3.61c1.24 0 2.24 1 2.24 2.24v3.11c0 1.24-1 2.25-2.24 2.25h-3.61v9.89c0 1.4 0.24 1.89 0.32 2.01 0.01 0.02 0.07 0.11 0.5 0.11 0.91 0 1.51-0.12 1.78-0.2q0.29-0.08 0.59-0.08c0.46 0 0.92 0.15 1.31 0.42 0.55 0.4 0.89 1.02 0.93 1.69l0.19 3.07c0.05 0.96-0.5 1.84-1.39 2.21-1.15 0.47-2.7 0.73-4.48 0.73-2.51 0-4.67-0.87-6.07-2.45-1.94-2.06-2.17-5.19-2.17-7.37v-10.03h-1.24c-1.24 0-2.25-1.01-2.25-2.25v-3.11c0-1.24 1.01-2.24 2.25-2.24h1.24v-3.15c0-1.02 0.68-1.91 1.67-2.17l3.99-1.07q0.29-0.08 0.58-0.08c0.49 0 0.97 0.16 1.37 0.47zm-5.37 2.85v5.39h-3.48v3.11h3.48v12.28c0 2.64 0.42 4.64 1.59 5.85 0.97 1.12 2.51 1.72 4.41 1.72 1.58 0 2.84-0.23 3.63-0.56l-0.19-3.06c-0.51 0.14-1.3 0.28-2.37 0.28-2.28 0-3.07-1.59-3.07-4.37v-12.14h5.86v-3.11h-5.86v-6.46z"/>
					</g>
					<g id="&lt;Group&gt;">
						<path id="&lt;Compound Path&gt;" class="s4" d="m761.8 278.57c-0.62 0-1.12-0.5-1.12-1.12v-22.5c0-0.62 0.5-1.12 1.12-1.12h4.09c0.62 0 1.12 0.5 1.12 1.12v22.5c0 0.62-0.5 1.12-1.12 1.12zm1.95-26.31c-2.01 0-3.58-1.6-3.58-3.63 0-2.1 1.58-3.68 3.68-3.68 2.09 0 3.62 1.54 3.63 3.66 0.03 0.97-0.32 1.88-0.97 2.55-0.68 0.71-1.66 1.1-2.76 1.1z"/>
						<path id="&lt;Compound Path&gt;" fill-rule="evenodd" class="s4" d="m768.6 248.59c0.03 1.27-0.42 2.46-1.28 3.35q-0.46 0.47-1.04 0.8c1.05 0.19 1.85 1.1 1.85 2.21v22.5c0 1.24-1 2.24-2.24 2.24h-4.09c-1.24 0-2.24-1-2.24-2.24v-22.5c0-1.09 0.77-2 1.81-2.2-1.4-0.82-2.33-2.34-2.33-4.12 0-2.69 2.11-4.8 4.8-4.8 2.7 0 4.74 2.04 4.76 4.76zm-6.8 6.36v22.5h4.09v-22.5zm4.56-6.35c0-1.4-1.14-2.53-2.54-2.53-1.4 0-2.53 1.13-2.53 2.53 0 1.41 1.13 2.54 2.53 2.54 1.4 0 2.54-1.13 2.54-2.54z"/>
					</g>
					<g id="&lt;Group&gt;">
						<path id="&lt;Compound Path&gt;" fill-rule="evenodd" class="s4" d="m783.18 279.03c-7.4 0-12.18-4.89-12.18-12.46 0-7.8 4.8-13.25 11.67-13.25 7.2 0 10.42 5.88 10.42 11.72 0 0.78-0.08 1.41-0.13 1.84l-0.02 0.19c-0.06 0.56-0.54 0.99-1.11 0.99h-14.61c0.62 5 4.7 5.57 6.52 5.57 2.87 0 4.48-0.52 5.79-1.07q0.21-0.09 0.44-0.09 0.26 0 0.5 0.12c0.3 0.15 0.51 0.42 0.59 0.74l0.7 2.93c0.12 0.52-0.14 1.06-0.63 1.28-1.51 0.68-4.12 1.49-7.95 1.49zm3.65-16.14c-0.12-0.97-0.46-2.3-1.39-3.25q-1.13-1.15-3.1-1.15c-2.91 0-4.35 2.38-4.91 4.4z"/>
						<path id="&lt;Compound Path&gt;" fill-rule="evenodd" class="s4" d="m794.21 265.04c0 0.84-0.08 1.52-0.13 1.97l-0.02 0.18c-0.13 1.14-1.09 2-2.23 2h-13.23c0.86 2.68 3.16 3.32 5.14 3.32 2.66 0 4.15-0.48 5.35-0.99q0.43-0.18 0.88-0.18 0.53 0.01 1.01 0.25c0.59 0.29 1.02 0.84 1.17 1.48l0.7 2.93c0.25 1.04-0.28 2.12-1.26 2.56-1.61 0.73-4.38 1.6-8.41 1.6-3.99 0-7.36-1.32-9.75-3.82-2.33-2.44-3.56-5.81-3.56-9.77 0-3.89 1.19-7.46 3.34-10.05 2.33-2.79 5.68-4.33 9.46-4.33 7.97 0 11.54 6.45 11.54 12.85zm-22.09 1.53c0 6.79 4.14 11.34 11.06 11.34 3.58 0 6.04-0.74 7.48-1.39l-0.69-2.93c-1.54 0.65-3.3 1.16-6.23 1.16-4.09 0-7.62-2.28-7.72-7.81h15.81c0.04-0.42 0.14-1.07 0.14-1.9 0-4.14-1.96-10.6-9.3-10.6-6.55 0-10.55 5.34-10.55 12.13zm10.22-9.2c4.61 0 5.72 4.04 5.68 6.64h-11.95c0.32-2.83 2.14-6.64 6.27-6.64zm3.09 4.4c-0.17-0.51-0.43-0.98-0.79-1.34q-0.8-0.82-2.3-0.82c-1.71 0-2.71 1.05-3.28 2.16z"/>
					</g>
					<g id="&lt;Group&gt;">
						<path id="&lt;Path&gt;" class="s4" d="m813.16 278.57c-0.62 0-1.12-0.5-1.12-1.12v-12.97c0-3.67-1.37-5.53-4.08-5.53-2.34 0-3.9 1.71-4.42 3.39q-0.01 0.03-0.02 0.06c-0.13 0.36-0.21 0.93-0.21 1.52v13.53c0 0.62-0.5 1.12-1.12 1.12h-4.09c-0.62 0-1.12-0.5-1.12-1.12v-16.41c0-2.5-0.06-4.3-0.18-6.01-0.03-0.31 0.08-0.62 0.29-0.84 0.21-0.23 0.51-0.36 0.83-0.36h3.62c0.59 0 1.08 0.46 1.12 1.05l0.06 0.9c1.52-1.4 3.73-2.46 6.58-2.46 4.19 0 9.07 2.8 9.07 10.69v13.44c0 0.62-0.5 1.12-1.12 1.12z"/>
						<path id="&lt;Compound Path&gt;" fill-rule="evenodd" class="s4" d="m815.94 254.66c1.62 1.45 3.56 4.25 3.56 9.35v13.44c0 1.24-1.01 2.24-2.25 2.24h-4.09c-1.24 0-2.24-1-2.24-2.24v-12.97c0-4.4-2.08-4.4-2.96-4.4-1.75 0-2.96 1.34-3.34 2.59q-0.02 0.06-0.04 0.11c-0.07 0.2-0.14 0.63-0.14 1.14v13.53c0 1.24-1.01 2.24-2.25 2.24h-4.09c-1.24 0-2.24-1-2.24-2.24v-16.41c0-2.48-0.06-4.25-0.18-5.92-0.05-0.63 0.17-1.24 0.59-1.7 0.42-0.45 1.02-0.71 1.65-0.71h3.62c0.82 0 1.54 0.43 1.93 1.1 1.55-0.97 3.5-1.62 5.83-1.62 1.45 0 4.24 0.32 6.64 2.47zm-14.07 4.01h-0.1l-0.23-3.72h-3.62c0.13 1.86 0.18 3.76 0.18 6.09v16.41h4.09v-13.53c0-0.7 0.09-1.39 0.28-1.91 0.7-2.27 2.79-4.18 5.49-4.18 3.85 0 5.2 3.02 5.2 6.65v12.97h4.09v-13.44c0-7.71-4.83-9.57-7.95-9.57-3.72 0-6.32 2.09-7.43 4.23z"/>
					</g>
					<g id="&lt;Group&gt;">
						<path id="&lt;Path&gt;" class="s4" d="m831.71 279.03c-2.23 0-4.04-0.72-5.25-2.08-1.27-1.34-1.87-3.45-1.87-6.61v-11.15h-2.36c-0.62 0-1.13-0.51-1.13-1.13v-3.11c0-0.62 0.51-1.12 1.13-1.12h2.36v-4.27c0-0.51 0.34-0.96 0.83-1.09l4-1.07q0.14-0.03 0.29-0.03 0.38 0 0.68 0.23c0.28 0.21 0.44 0.54 0.44 0.89v5.34h4.74c0.62 0 1.12 0.5 1.12 1.12v3.11c0 0.62-0.5 1.13-1.12 1.13h-4.74v11.01c0 3.24 1.13 3.24 1.95 3.24 0.99 0 1.67-0.13 2.07-0.24q0.15-0.04 0.3-0.04 0.35 0.01 0.65 0.21c0.28 0.2 0.45 0.51 0.47 0.85l0.18 3.07c0.03 0.47-0.25 0.92-0.69 1.1-1.01 0.42-2.45 0.64-4.05 0.64z"/>
						<path id="&lt;Compound Path&gt;" fill-rule="evenodd" class="s4" d="m831.08 246.71c0.55 0.42 0.87 1.08 0.87 1.78v4.22h3.62c1.23 0 2.24 1 2.24 2.24v3.11c0 1.24-1.01 2.25-2.24 2.25h-3.62v9.89c0 1.4 0.25 1.89 0.32 2.01 0.02 0.02 0.08 0.11 0.51 0.11 0.91 0 1.5-0.12 1.78-0.2q0.29-0.08 0.59-0.08c0.46 0 0.92 0.15 1.3 0.42 0.55 0.4 0.9 1.02 0.94 1.69l0.18 3.07c0.06 0.96-0.5 1.84-1.38 2.21-1.16 0.47-2.71 0.73-4.48 0.73-2.52 0-4.67-0.87-6.07-2.45-1.95-2.06-2.17-5.19-2.17-7.37v-10.03h-1.24c-1.24 0-2.25-1.01-2.25-2.25v-3.11c0-1.24 1.01-2.24 2.25-2.24h1.24v-3.15c0-1.02 0.68-1.91 1.66-2.17l4-1.07q0.29-0.08 0.58-0.08c0.49 0 0.97 0.16 1.37 0.47zm-5.37 2.85v5.39h-3.48v3.11h3.48v12.28c0 2.64 0.42 4.64 1.58 5.85 0.98 1.12 2.51 1.72 4.42 1.72 1.58 0 2.83-0.23 3.62-0.56l-0.18-3.06c-0.51 0.14-1.3 0.28-2.37 0.28-2.28 0-3.07-1.59-3.07-4.37v-12.14h5.86v-3.11h-5.86v-6.46z"/>
					</g>
					<g id="&lt;Group&gt;">
						<path id="&lt;Path&gt;" class="s4" d="m845.98 279.03c-2.56 0-5.07-0.61-6.89-1.69-0.46-0.26-0.67-0.81-0.5-1.31l1.02-3.12c0.11-0.33 0.37-0.59 0.7-0.71q0.18-0.06 0.37-0.06 0.33 0 0.61 0.18c1.07 0.7 3.01 1.45 4.78 1.45 0.98 0 3.25-0.22 3.25-2.23 0-1.02-0.26-1.9-3.45-3.08-5.52-1.97-6.69-5.12-6.69-7.42 0-4.48 3.74-7.72 8.89-7.72 2.21 0 4.44 0.56 6.1 1.55 0.46 0.27 0.66 0.82 0.49 1.33l-1.02 2.97c-0.11 0.33-0.37 0.58-0.69 0.7q-0.18 0.06-0.37 0.06-0.32 0-0.6-0.17c-0.54-0.34-2-1.13-4-1.13-1.61 0-2.65 0.76-2.65 1.94 0 1 0.5 1.6 3.56 2.77 3.08 1.17 6.62 3.12 6.62 7.83 0 4.78-3.74 7.86-9.53 7.86z"/>
						<path id="&lt;Compound Path&gt;" fill-rule="evenodd" class="s4" d="m854.74 253.9c0.92 0.54 1.33 1.66 0.98 2.66l-1.02 2.98c-0.22 0.65-0.73 1.16-1.38 1.38q-0.36 0.13-0.74 0.13-0.64 0-1.2-0.35c-0.46-0.28-1.7-0.95-3.4-0.95-0.26 0-1.53 0.04-1.53 0.82 0 0.23 0.01 0.28 0.23 0.46 0.53 0.44 1.67 0.9 2.61 1.26 3.15 1.2 7.34 3.43 7.34 8.88 0 5.38-4.28 8.99-10.65 8.99-2.75 0-5.47-0.68-7.46-1.85-0.91-0.53-1.33-1.63-1-2.63l1.03-3.12c0.21-0.66 0.73-1.18 1.39-1.41q0.36-0.13 0.74-0.13 0.66 0 1.23 0.37c0.92 0.6 2.62 1.26 4.16 1.26 0.97 0 2.13-0.2 2.13-1.11 0-0.48 0-1.02-2.71-2.02-6.46-2.31-7.43-6.31-7.43-8.48 0-5.13 4.21-8.85 10.01-8.85 2.41 0 4.84 0.63 6.67 1.71zm-14.43 7.14c0 2.69 1.9 4.93 5.95 6.37 3.02 1.11 4.18 2.18 4.18 4.13 0 1.86-1.4 3.35-4.37 3.35-2.05 0-4.18-0.84-5.39-1.63l-1.02 3.12c1.58 0.93 3.85 1.53 6.32 1.53 5.34 0 8.41-2.79 8.41-6.74 0-3.34-2-5.3-5.9-6.78-2.93-1.12-4.28-1.96-4.28-3.82 0-1.67 1.35-3.06 3.77-3.06 2.09 0 3.71 0.74 4.6 1.3l1.02-2.98c-1.25-0.74-3.25-1.39-5.53-1.39-4.84 0-7.76 2.97-7.76 6.6z"/>
					</g>
					<g id="&lt;Group&gt;">
						<path id="&lt;Path&gt;" fill-rule="evenodd" class="s4" d="m861.99 279.08c-2.15 0-3.89-1.81-3.89-4.05 0-2.24 1.74-4.05 3.89-4.05 2.15 0 3.89 1.81 3.89 4.05 0 2.24-1.74 4.05-3.89 4.05z"/>
						<path id="&lt;Compound Path&gt;" fill-rule="evenodd" class="s4" d="m861.99 280.2c-2.77 0-5.01-2.31-5.01-5.17 0-2.86 2.24-5.17 5.01-5.17 2.77 0 5.01 2.31 5.01 5.17 0 2.86-2.24 5.17-5.01 5.17zm2.77-5.17c0-1.62-1.24-2.93-2.77-2.93-1.53 0-2.77 1.31-2.77 2.93 0 1.62 1.24 2.93 2.77 2.93 1.53 0 2.77-1.31 2.77-2.93z"/>
					</g>
				</g>
				<g id="&lt;Group&gt;">
					<path id="&lt;Compound Path&gt;" class="s5" d="m280.63 186.81v13.11h15.15v-13.11h4.09v31.33h-4.09v-14.69h-15.15v14.69h-4.05v-31.33z"/>
					<path id="&lt;Compound Path&gt;" fill-rule="evenodd" class="s5" d="m310.1 207.64c0.09 5.53 3.62 7.81 7.71 7.81 2.93 0 4.7-0.51 6.23-1.17l0.7 2.93c-1.44 0.65-3.9 1.4-7.48 1.4-6.93 0-11.07-4.56-11.07-11.34 0-6.79 4-12.14 10.55-12.14 7.35 0 9.3 6.46 9.3 10.6 0 0.84-0.09 1.49-0.14 1.91zm11.99-2.93c0.05-2.6-1.06-6.65-5.67-6.65-4.13 0-5.95 3.81-6.27 6.65z"/>
					<path id="&lt;Compound Path&gt;" fill-rule="evenodd" class="s5" d="m336.27 185.14v33h-4.09v-33z"/>
					<path id="&lt;Compound Path&gt;" fill-rule="evenodd" class="s5" d="m344.21 202.99c0-2.88-0.09-5.21-0.18-7.35h3.67l0.19 3.86h0.09c1.67-2.74 4.32-4.37 7.99-4.37 5.44 0 9.53 4.61 9.53 11.44 0 8.09-4.92 12.08-10.22 12.08-2.98 0-5.58-1.3-6.93-3.53h-0.09v12.23h-4.05zm4.05 5.99c0 0.61 0.09 1.16 0.18 1.68 0.75 2.83 3.21 4.78 6.14 4.78 4.32 0 6.83-3.53 6.83-8.69 0-4.51-2.37-8.37-6.69-8.37-2.79 0-5.39 2-6.18 5.07-0.14 0.51-0.28 1.12-0.28 1.67z"/>
					<path id="&lt;Compound Path&gt;" class="s5" d="m373.75 191.83c-1.4 0-2.53-1.13-2.53-2.53 0-1.4 1.13-2.53 2.53-2.53 1.4 0 2.54 1.13 2.54 2.53 0 1.4-1.14 2.53-2.54 2.53zm2.07 3.81v22.5h-4.09v-22.5z"/>
					<path id="&lt;Compound Path&gt;" class="s5" d="m383.68 201.73c0-2.32-0.05-4.23-0.19-6.09h3.63l0.23 3.72h0.09c1.12-2.13 3.72-4.23 7.44-4.23 3.11 0 7.95 1.86 7.95 9.58v13.43h-4.09v-12.97c0-3.62-1.35-6.64-5.21-6.64-2.7 0-4.79 1.9-5.48 4.18-0.19 0.51-0.28 1.21-0.28 1.91v13.52h-4.09z"/>
					<path id="&lt;Compound Path&gt;" fill-rule="evenodd" class="s5" d="m429.93 195.64c-0.1 1.63-0.19 3.44-0.19 6.19v13.06c0 5.16-1.02 8.32-3.21 10.27-2.18 2.05-5.34 2.7-8.18 2.7-2.69 0-5.67-0.65-7.48-1.86l1.02-3.12c1.49 0.93 3.81 1.77 6.6 1.77 4.18 0 7.25-2.18 7.25-7.86v-2.51h-0.09c-1.26 2.1-3.67 3.77-7.16 3.77-5.58 0-9.57-4.74-9.57-10.97 0-7.62 4.97-11.95 10.13-11.95 3.9 0 6.04 2.05 7.02 3.91h0.09l0.19-3.4zm-4.23 8.88c0-0.69-0.05-1.3-0.24-1.86-0.74-2.37-2.74-4.32-5.71-4.32-3.91 0-6.7 3.3-6.7 8.51 0 4.41 2.23 8.09 6.65 8.09 2.51 0 4.79-1.59 5.67-4.19 0.23-0.7 0.33-1.49 0.33-2.18z"/>
					<path id="&lt;Compound Path&gt;" fill-rule="evenodd" class="s5" d="m467.95 185.14v27.19c0 2 0.04 4.28 0.18 5.81h-3.67l-0.19-3.9h-0.09c-1.25 2.51-4 4.41-7.67 4.41-5.44 0-9.62-4.6-9.62-11.43-0.05-7.48 4.6-12.09 10.09-12.09 3.44 0 5.76 1.63 6.78 3.44h0.1v-13.43zm-4.09 19.66c0-0.51-0.05-1.21-0.19-1.72-0.6-2.6-2.84-4.74-5.9-4.74-4.23 0-6.74 3.72-6.74 8.69 0 4.56 2.23 8.32 6.64 8.32 2.75 0 5.26-1.81 6-4.88 0.14-0.55 0.19-1.11 0.19-1.76z"/>
					<path id="&lt;Compound Path&gt;" fill-rule="evenodd" class="s5" d="m478.08 207.64c0.09 5.53 3.62 7.81 7.72 7.81 2.92 0 4.69-0.51 6.22-1.17l0.7 2.93c-1.44 0.65-3.9 1.4-7.48 1.4-6.93 0-11.07-4.56-11.07-11.34 0-6.79 4-12.14 10.56-12.14 7.34 0 9.29 6.46 9.29 10.6 0 0.84-0.09 1.49-0.14 1.91zm12-2.93c0.04-2.6-1.07-6.65-5.67-6.65-4.14 0-5.95 3.81-6.28 6.65z"/>
					<path id="&lt;Compound Path&gt;" class="s5" d="m500.16 201.73c0-2.32-0.05-4.23-0.19-6.09h3.63l0.23 3.72h0.09c1.12-2.13 3.72-4.23 7.44-4.23 3.11 0 7.95 1.86 7.95 9.58v13.43h-4.09v-12.97c0-3.62-1.35-6.64-5.21-6.64-2.69 0-4.79 1.9-5.48 4.18-0.19 0.51-0.28 1.21-0.28 1.91v13.52h-4.09z"/>
					<path id="&lt;Compound Path&gt;" class="s5" d="m531.76 189.18v6.46h5.86v3.12h-5.86v12.13c0 2.79 0.8 4.37 3.07 4.37 1.07 0 1.86-0.14 2.37-0.28l0.19 3.07c-0.79 0.32-2.05 0.56-3.63 0.56-1.9 0-3.44-0.61-4.41-1.72-1.16-1.21-1.58-3.21-1.58-5.86v-12.27h-3.49v-3.12h3.49v-5.39z"/>
					<path id="&lt;Compound Path&gt;" fill-rule="evenodd" class="s5" d="m555.75 218.14l-0.33-2.83h-0.14c-1.25 1.76-3.67 3.34-6.87 3.34-4.56 0-6.88-3.2-6.88-6.46 0-5.44 4.83-8.41 13.52-8.36v-0.47c0-1.86-0.51-5.2-5.11-5.2-2.09 0-4.28 0.65-5.86 1.67l-0.93-2.7c1.86-1.21 4.56-2 7.39-2 6.88 0 8.56 4.7 8.56 9.21v8.41c0 1.95 0.09 3.86 0.37 5.39zm-0.61-11.48c-4.46-0.09-9.52 0.7-9.52 5.07 0 2.65 1.76 3.9 3.85 3.9 2.93 0 4.79-1.86 5.44-3.76 0.14-0.42 0.23-0.89 0.23-1.3z"/>
					<path id="&lt;Compound Path&gt;" fill-rule="evenodd" class="s5" d="m570.86 185.14v33h-4.1v-33z"/>
					<path id="&lt;Compound Path&gt;" fill-rule="evenodd" class="s5" d="m589.73 202.99c0-2.88-0.1-5.21-0.19-7.35h3.67l0.19 3.86h0.09c1.67-2.74 4.32-4.37 8-4.37 5.44 0 9.53 4.61 9.53 11.44 0 8.09-4.93 12.08-10.23 12.08-2.98 0-5.58-1.3-6.93-3.53h-0.09v12.23h-4.04zm4.04 5.99c0 0.61 0.09 1.16 0.19 1.68 0.74 2.83 3.2 4.78 6.13 4.78 4.32 0 6.84-3.53 6.84-8.69 0-4.51-2.38-8.37-6.7-8.37-2.79 0-5.39 2-6.18 5.07-0.14 0.51-0.28 1.12-0.28 1.67z"/>
					<path id="&lt;Compound Path&gt;" class="s5" d="m617.24 202.66c0-2.65-0.04-4.92-0.18-7.02h3.58l0.14 4.42h0.18c1.02-3.02 3.49-4.93 6.23-4.93 0.47 0 0.79 0.05 1.16 0.14v3.86c-0.42-0.09-0.83-0.14-1.39-0.14-2.88 0-4.93 2.19-5.49 5.25-0.09 0.56-0.18 1.21-0.18 1.91v11.99h-4.05z"/>
					<path id="&lt;Compound Path&gt;" fill-rule="evenodd" class="s5" d="m645.74 218.14l-0.33-2.83h-0.14c-1.25 1.76-3.67 3.34-6.88 3.34-4.55 0-6.88-3.2-6.88-6.46 0-5.44 4.84-8.41 13.53-8.36v-0.47c0-1.86-0.51-5.2-5.11-5.2-2.1 0-4.28 0.65-5.86 1.67l-0.93-2.7c1.86-1.21 4.55-2 7.39-2 6.88 0 8.55 4.7 8.55 9.21v8.41c0 1.95 0.1 3.86 0.38 5.39zm-0.61-11.48c-4.46-0.09-9.53 0.7-9.53 5.07 0 2.65 1.77 3.9 3.86 3.9 2.93 0 4.79-1.86 5.44-3.76 0.14-0.42 0.23-0.89 0.23-1.3z"/>
					<path id="&lt;Compound Path&gt;" class="s5" d="m672.79 217.31c-1.07 0.55-3.44 1.3-6.46 1.3-6.79 0-11.2-4.6-11.2-11.48 0-6.93 4.74-11.95 12.08-11.95 2.42 0 4.56 0.6 5.67 1.16l-0.93 3.16c-0.97-0.55-2.51-1.07-4.74-1.07-5.16 0-7.95 3.82-7.95 8.51 0 5.21 3.35 8.41 7.81 8.41 2.33 0 3.86-0.6 5.02-1.11z"/>
					<path id="&lt;Compound Path&gt;" class="s5" d="m684.18 189.18v6.46h5.85v3.12h-5.85v12.13c0 2.79 0.79 4.37 3.06 4.37 1.07 0 1.86-0.14 2.37-0.28l0.19 3.07c-0.79 0.32-2.04 0.56-3.63 0.56-1.9 0-3.43-0.61-4.41-1.72-1.16-1.21-1.58-3.21-1.58-5.86v-12.27h-3.49v-3.12h3.49v-5.39z"/>
					<path id="&lt;Compound Path&gt;" class="s5" d="m697.73 191.83c-1.41 0-2.54-1.13-2.54-2.53 0-1.4 1.13-2.53 2.54-2.53 1.4 0 2.53 1.13 2.53 2.53 0 1.4-1.13 2.53-2.53 2.53zm2.06 3.81v22.5h-4.09v-22.5z"/>
					<path id="&lt;Compound Path&gt;" class="s5" d="m723.68 217.31c-1.06 0.55-3.43 1.3-6.46 1.3-6.78 0-11.2-4.6-11.2-11.48 0-6.93 4.74-11.95 12.09-11.95 2.41 0 4.55 0.6 5.67 1.16l-0.93 3.16c-0.98-0.55-2.51-1.07-4.74-1.07-5.16 0-7.95 3.82-7.95 8.51 0 5.21 3.35 8.41 7.81 8.41 2.32 0 3.86-0.6 5.02-1.11z"/>
					<path id="&lt;Compound Path&gt;" fill-rule="evenodd" class="s5" d="m731.54 207.64c0.09 5.53 3.63 7.81 7.72 7.81 2.92 0 4.69-0.51 6.22-1.17l0.7 2.93c-1.44 0.65-3.9 1.4-7.48 1.4-6.93 0-11.06-4.56-11.06-11.34 0-6.79 3.99-12.14 10.55-12.14 7.34 0 9.29 6.46 9.29 10.6 0 0.84-0.09 1.49-0.14 1.91zm12-2.93c0.04-2.6-1.07-6.65-5.67-6.65-4.14 0-5.95 3.81-6.28 6.65z"/>
					<path id="&lt;Compound Path&gt;" class="s5" d="m753.06 213.96c1.21 0.79 3.35 1.63 5.39 1.63 2.98 0 4.37-1.49 4.37-3.35 0-1.95-1.16-3.02-4.18-4.14-4.05-1.44-5.95-3.67-5.95-6.37 0-3.62 2.93-6.6 7.76-6.6 2.28 0 4.28 0.65 5.53 1.4l-1.02 2.97c-0.88-0.55-2.51-1.3-4.6-1.3-2.42 0-3.77 1.4-3.77 3.07 0 1.86 1.35 2.7 4.28 3.81 3.9 1.49 5.9 3.44 5.9 6.79 0 3.95-3.06 6.74-8.41 6.74-2.46 0-4.74-0.61-6.32-1.54z"/>
					<path id="&lt;Compound Path&gt;" class="s5" d="m788.94 189.18v6.46h5.86v3.12h-5.86v12.13c0 2.79 0.79 4.37 3.07 4.37 1.07 0 1.86-0.14 2.37-0.28l0.19 3.07c-0.79 0.32-2.05 0.56-3.63 0.56-1.9 0-3.44-0.61-4.41-1.72-1.17-1.21-1.58-3.21-1.58-5.86v-12.27h-3.49v-3.12h3.49v-5.39z"/>
					<path id="&lt;Compound Path&gt;" class="s5" d="m819.3 212.01q-0.01 3.48 0.18 6.13h-3.62l-0.24-3.67h-0.09c-1.07 1.81-3.44 4.18-7.44 4.18-3.53 0-7.76-1.95-7.76-9.85v-13.16h4.09v12.46c0 4.28 1.3 7.16 5.02 7.16 2.74 0 4.65-1.91 5.39-3.72 0.24-0.6 0.38-1.35 0.38-2.09v-13.81h4.09z"/>
					<path id="&lt;Compound Path&gt;" class="s5" d="m827.15 202.66c0-2.65-0.05-4.92-0.18-7.02h3.57l0.14 4.42h0.19c1.02-3.02 3.49-4.93 6.23-4.93 0.46 0 0.79 0.05 1.16 0.14v3.86c-0.42-0.09-0.84-0.14-1.39-0.14-2.89 0-4.93 2.19-5.49 5.25-0.09 0.56-0.18 1.21-0.18 1.91v11.99h-4.05z"/>
					<path id="&lt;Compound Path&gt;" class="s5" d="m843.61 201.73c0-2.32-0.05-4.23-0.19-6.09h3.63l0.23 3.72h0.09c1.12-2.13 3.72-4.23 7.44-4.23 3.11 0 7.95 1.86 7.95 9.58v13.43h-4.09v-12.97c0-3.62-1.35-6.64-5.21-6.64-2.7 0-4.79 1.9-5.49 4.18-0.18 0.51-0.27 1.21-0.27 1.91v13.52h-4.09z"/>
					<path id="&lt;Compound Path&gt;" class="s5" d="m278.07 254.95l2.98 11.43c0.65 2.51 1.25 4.84 1.67 7.16h0.14c0.51-2.28 1.25-4.69 2-7.11l3.67-11.48h3.44l3.49 11.25c0.83 2.69 1.48 5.06 2 7.34h0.13c0.38-2.28 0.98-4.65 1.72-7.3l3.21-11.29h4.05l-7.26 22.5h-3.71l-3.44-10.74c-0.79-2.51-1.44-4.74-2-7.39h-0.1c-0.55 2.69-1.25 5.02-2.04 7.44l-3.63 10.69h-3.72l-6.78-22.5z"/>
					<path id="&lt;Compound Path&gt;" fill-rule="evenodd" class="s5" d="m313.54 266.94c0.09 5.53 3.62 7.81 7.71 7.81 2.93 0 4.7-0.51 6.23-1.16l0.7 2.93c-1.44 0.65-3.91 1.39-7.48 1.39-6.93 0-11.07-4.55-11.07-11.34 0-6.79 4-12.13 10.55-12.13 7.35 0 9.3 6.46 9.3 10.6 0 0.83-0.09 1.48-0.14 1.9zm11.99-2.93c0.05-2.6-1.06-6.64-5.67-6.64-4.13 0-5.95 3.81-6.27 6.64z"/>
					<path id="&lt;Compound Path&gt;" fill-rule="evenodd" class="s5" d="m335.43 277.45c0.09-1.54 0.19-3.81 0.19-5.81v-27.2h4.04v14.13h0.09c1.44-2.51 4.05-4.13 7.67-4.13 5.58 0 9.53 4.65 9.48 11.48 0 8.04-5.06 12.04-10.08 12.04-3.26 0-5.86-1.26-7.53-4.23h-0.14l-0.19 3.72zm4.23-9.02c0 0.51 0.1 1.02 0.19 1.49 0.79 2.83 3.16 4.78 6.13 4.78 4.28 0 6.84-3.48 6.84-8.64 0-4.51-2.33-8.37-6.7-8.37-2.79 0-5.39 1.91-6.23 5.02-0.09 0.47-0.23 1.02-0.23 1.68z"/>
					<path id="&lt;Compound Path&gt;" class="s5" d="m362.57 273.26c1.21 0.79 3.35 1.63 5.4 1.63 2.97 0 4.37-1.49 4.37-3.35 0-1.95-1.17-3.02-4.19-4.13-4.04-1.44-5.95-3.68-5.95-6.37 0-3.63 2.93-6.6 7.77-6.6 2.27 0 4.27 0.65 5.53 1.39l-1.03 2.98c-0.88-0.56-2.51-1.3-4.6-1.3-2.41 0-3.76 1.39-3.76 3.06 0 1.86 1.35 2.7 4.27 3.82 3.91 1.48 5.91 3.44 5.91 6.78 0 3.95-3.07 6.74-8.42 6.74-2.46 0-4.74-0.6-6.32-1.53z"/>
					<path id="&lt;Compound Path&gt;" class="s5" d="m384.63 251.14c-1.4 0-2.53-1.13-2.53-2.54 0-1.4 1.13-2.53 2.53-2.53 1.4 0 2.53 1.13 2.53 2.53 0 1.41-1.13 2.54-2.53 2.54zm2.07 3.81v22.5h-4.09v-22.5z"/>
					<path id="&lt;Compound Path&gt;" class="s5" d="m399.48 248.49v6.46h5.86v3.11h-5.86v12.14c0 2.78 0.79 4.37 3.07 4.37 1.07 0 1.86-0.14 2.37-0.28l0.19 3.06c-0.8 0.33-2.05 0.56-3.63 0.56-1.91 0-3.44-0.6-4.42-1.72-1.16-1.21-1.58-3.21-1.58-5.85v-12.28h-3.48v-3.11h3.48v-5.39z"/>
					<path id="&lt;Compound Path&gt;" fill-rule="evenodd" class="s5" d="m413.01 266.94c0.09 5.53 3.62 7.81 7.71 7.81 2.93 0 4.7-0.51 6.23-1.16l0.7 2.93c-1.44 0.65-3.91 1.39-7.49 1.39-6.92 0-11.06-4.55-11.06-11.34 0-6.79 4-12.13 10.55-12.13 7.35 0 9.3 6.46 9.3 10.6 0 0.83-0.09 1.48-0.14 1.9zm11.99-2.93c0.05-2.6-1.07-6.64-5.67-6.64-4.13 0-5.95 3.81-6.27 6.64z"/>
					<path id="&lt;Compound Path&gt;" class="s5" d="m447.59 254.95l4.41 12.64c0.75 2.05 1.35 3.91 1.82 5.77h0.14c0.51-1.86 1.16-3.72 1.9-5.77l4.37-12.64h4.28l-8.83 22.5h-3.91l-8.55-22.5z"/>
					<path id="&lt;Compound Path&gt;" class="s5" d="m471.46 251.14c-1.4 0-2.54-1.13-2.54-2.54 0-1.4 1.14-2.53 2.54-2.53 1.4 0 2.53 1.13 2.53 2.53 0 1.41-1.13 2.54-2.53 2.54zm2.06 3.81v22.5h-4.09v-22.5z"/>
					<path id="&lt;Compound Path&gt;" class="s5" d="m480.82 273.26c1.21 0.79 3.35 1.63 5.39 1.63 2.98 0 4.37-1.49 4.37-3.35 0-1.95-1.16-3.02-4.18-4.13-4.04-1.44-5.95-3.68-5.95-6.37 0-3.63 2.93-6.6 7.76-6.6 2.28 0 4.28 0.65 5.53 1.39l-1.02 2.98c-0.88-0.56-2.51-1.3-4.6-1.3-2.42 0-3.77 1.39-3.77 3.06 0 1.86 1.35 2.7 4.28 3.82 3.91 1.48 5.9 3.44 5.9 6.78 0 3.95-3.06 6.74-8.41 6.74-2.46 0-4.74-0.6-6.32-1.53z"/>
					<path id="&lt;Compound Path&gt;" class="s5" d="m502.88 251.14c-1.4 0-2.54-1.13-2.54-2.54 0-1.4 1.14-2.53 2.54-2.53 1.4 0 2.53 1.13 2.53 2.53 0 1.41-1.13 2.54-2.53 2.54zm2.07 3.81v22.5h-4.1v-22.5z"/>
					<path id="&lt;Compound Path&gt;" class="s5" d="m517.73 248.49v6.46h5.85v3.11h-5.85v12.14c0 2.78 0.79 4.37 3.07 4.37 1.06 0 1.85-0.14 2.37-0.28l0.18 3.06c-0.79 0.33-2.04 0.56-3.62 0.56-1.91 0-3.44-0.6-4.42-1.72-1.16-1.21-1.58-3.21-1.58-5.85v-12.28h-3.49v-3.11h3.49v-5.39z"/>
					<path id="&lt;Compound Path&gt;" fill-rule="evenodd" class="s5" d="m549.34 266.01c0 8.32-5.77 11.95-11.21 11.95-6.09 0-10.78-4.46-10.78-11.58 0-7.53 4.93-11.94 11.16-11.94 6.46 0 10.83 4.69 10.83 11.57zm-17.85 0.23c0 4.93 2.83 8.65 6.83 8.65 3.9 0 6.83-3.67 6.83-8.74 0-3.81-1.9-8.64-6.74-8.64-4.83 0-6.92 4.46-6.92 8.73z"/>
					<path id="&lt;Compound Path&gt;" class="s5" d="m555.56 261.97c0-2.65-0.04-4.93-0.18-7.02h3.58l0.14 4.42h0.18c1.02-3.03 3.49-4.93 6.23-4.93 0.47 0 0.79 0.04 1.16 0.14v3.86c-0.42-0.1-0.83-0.14-1.39-0.14-2.88 0-4.93 2.18-5.49 5.25-0.09 0.56-0.18 1.21-0.18 1.9v12h-4.05z"/>
					<path id="&lt;Compound Path&gt;" class="s5" d="m571.27 273.26c1.21 0.79 3.35 1.63 5.4 1.63 2.97 0 4.37-1.49 4.37-3.35 0-1.95-1.17-3.02-4.19-4.13-4.04-1.44-5.95-3.68-5.95-6.37 0-3.63 2.93-6.6 7.76-6.6 2.28 0 4.28 0.65 5.54 1.39l-1.03 2.98c-0.88-0.56-2.51-1.3-4.6-1.3-2.42 0-3.76 1.39-3.76 3.06 0 1.86 1.34 2.7 4.27 3.82 3.91 1.48 5.91 3.44 5.91 6.78 0 3.95-3.07 6.74-8.42 6.74-2.46 0-4.74-0.6-6.32-1.53z"/>
					<path id="&lt;Compound Path&gt;" class="s5" d="m604.25 251.14c-1.4 0-2.53-1.13-2.53-2.54 0-1.4 1.13-2.53 2.53-2.53 1.4 0 2.54 1.13 2.54 2.53 0 1.41-1.14 2.54-2.54 2.54zm2.07 3.81v22.5h-4.09v-22.5z"/>
					<path id="&lt;Compound Path&gt;" class="s5" d="m614.18 261.04c0-2.33-0.05-4.23-0.19-6.09h3.63l0.23 3.72h0.09c1.12-2.14 3.72-4.23 7.44-4.23 3.11 0 7.95 1.86 7.95 9.57v13.44h-4.09v-12.97c0-3.63-1.35-6.65-5.21-6.65-2.7 0-4.79 1.91-5.48 4.18-0.19 0.52-0.28 1.21-0.28 1.91v13.53h-4.09z"/>
					<path id="&lt;Compound Path&gt;" class="s5" d="m645.78 248.49v6.46h5.86v3.11h-5.86v12.14c0 2.78 0.79 4.37 3.07 4.37 1.07 0 1.86-0.14 2.37-0.28l0.19 3.06c-0.79 0.33-2.05 0.56-3.63 0.56-1.9 0-3.44-0.6-4.41-1.72-1.17-1.21-1.58-3.21-1.58-5.85v-12.28h-3.49v-3.11h3.49v-5.39z"/>
					<path id="&lt;Compound Path&gt;" fill-rule="evenodd" class="s5" d="m677.39 266.01c0 8.32-5.76 11.95-11.2 11.95-6.09 0-10.79-4.46-10.79-11.58 0-7.53 4.93-11.94 11.16-11.94 6.46 0 10.83 4.69 10.83 11.57zm-17.85 0.23c0 4.93 2.84 8.65 6.83 8.65 3.91 0 6.84-3.67 6.84-8.74 0-3.81-1.91-8.64-6.74-8.64-4.84 0-6.93 4.46-6.93 8.73z"/>
					<path id="&lt;Compound Path&gt;" fill-rule="evenodd" class="s5" d="m694.54 262.29c0-2.88-0.09-5.2-0.18-7.34h3.67l0.18 3.86h0.1c1.67-2.75 4.32-4.37 7.99-4.37 5.44 0 9.53 4.6 9.53 11.43 0 8.09-4.93 12.09-10.23 12.09-2.97 0-5.57-1.3-6.92-3.53h-0.09v12.22h-4.05zm4.05 6c0 0.6 0.09 1.16 0.18 1.67 0.75 2.84 3.21 4.79 6.14 4.79 4.32 0 6.83-3.53 6.83-8.69 0-4.51-2.37-8.37-6.69-8.37-2.79 0-5.4 2-6.19 5.07-0.13 0.51-0.27 1.11-0.27 1.67z"/>
					<path id="&lt;Compound Path&gt;" fill-rule="evenodd" class="s5" d="m734.52 277.45l-0.33-2.84h-0.14c-1.25 1.77-3.67 3.35-6.88 3.35-4.55 0-6.88-3.21-6.88-6.46 0-5.44 4.84-8.42 13.53-8.37v-0.46c0-1.86-0.51-5.21-5.11-5.21-2.1 0-4.28 0.65-5.86 1.67l-0.93-2.69c1.86-1.21 4.55-2 7.39-2 6.88 0 8.55 4.69 8.55 9.2v8.41c0 1.96 0.1 3.86 0.37 5.4zm-0.6-11.48c-4.46-0.1-9.53 0.69-9.53 5.06 0 2.65 1.77 3.91 3.86 3.91 2.93 0 4.79-1.86 5.44-3.77 0.14-0.42 0.23-0.88 0.23-1.3z"/>
					<path id="&lt;Compound Path&gt;" class="s5" d="m750.27 248.49v6.46h5.86v3.11h-5.86v12.14c0 2.78 0.79 4.37 3.07 4.37 1.07 0 1.86-0.14 2.37-0.28l0.19 3.06c-0.79 0.33-2.05 0.56-3.63 0.56-1.9 0-3.44-0.6-4.41-1.72-1.17-1.21-1.59-3.21-1.59-5.85v-12.28h-3.48v-3.11h3.48v-5.39z"/>
					<path id="&lt;Compound Path&gt;" class="s5" d="m763.82 251.14c-1.4 0-2.53-1.13-2.53-2.54 0-1.4 1.13-2.53 2.53-2.53 1.4 0 2.54 1.13 2.54 2.53 0 1.41-1.14 2.54-2.54 2.54zm2.07 3.81v22.5h-4.09v-22.5z"/>
					<path id="&lt;Compound Path&gt;" fill-rule="evenodd" class="s5" d="m776.02 266.94c0.1 5.53 3.63 7.81 7.72 7.81 2.93 0 4.69-0.51 6.23-1.16l0.69 2.93c-1.44 0.65-3.9 1.39-7.48 1.39-6.92 0-11.06-4.55-11.06-11.34 0-6.79 4-12.13 10.55-12.13 7.34 0 9.3 6.46 9.3 10.6 0 0.83-0.1 1.48-0.14 1.9zm11.99-2.93c0.05-2.6-1.07-6.64-5.67-6.64-4.14 0-5.95 3.81-6.28 6.64z"/>
					<path id="&lt;Compound Path&gt;" class="s5" d="m798.1 261.04c0-2.33-0.05-4.23-0.18-6.09h3.62l0.23 3.72h0.1c1.11-2.14 3.71-4.23 7.43-4.23 3.12 0 7.95 1.86 7.95 9.57v13.44h-4.09v-12.97c0-3.63-1.35-6.65-5.2-6.65-2.7 0-4.79 1.91-5.49 4.18-0.19 0.52-0.28 1.21-0.28 1.91v13.53h-4.09z"/>
					<path id="&lt;Compound Path&gt;" class="s5" d="m829.71 248.49v6.46h5.86v3.11h-5.86v12.14c0 2.78 0.79 4.37 3.07 4.37 1.07 0 1.86-0.14 2.37-0.28l0.18 3.06c-0.79 0.33-2.04 0.56-3.62 0.56-1.91 0-3.44-0.6-4.42-1.72-1.16-1.21-1.58-3.21-1.58-5.85v-12.28h-3.48v-3.11h3.48v-5.39z"/>
					<path id="&lt;Compound Path&gt;" class="s5" d="m840.68 273.26c1.21 0.79 3.34 1.63 5.39 1.63 2.97 0 4.37-1.49 4.37-3.35 0-1.95-1.16-3.02-4.18-4.13-4.05-1.44-5.95-3.68-5.95-6.37 0-3.63 2.92-6.6 7.76-6.6 2.28 0 4.28 0.65 5.53 1.39l-1.02 2.98c-0.89-0.56-2.51-1.3-4.6-1.3-2.42 0-3.77 1.39-3.77 3.06 0 1.86 1.35 2.7 4.28 3.82 3.9 1.48 5.9 3.44 5.9 6.78 0 3.95-3.07 6.74-8.41 6.74-2.47 0-4.74-0.6-6.32-1.53z"/>
					<path id="&lt;Compound Path&gt;" fill-rule="evenodd" class="s5" d="m861.99 277.96c-1.53 0-2.77-1.31-2.77-2.93 0-1.62 1.24-2.93 2.77-2.93 1.53 0 2.77 1.31 2.77 2.93 0 1.62-1.24 2.93-2.77 2.93z"/>
				</g>
			</g>
		</g>
	</g>
</svg>